<svg id="Capa_1" data-name="Capa 1" xmlns="http://www.w3.org/2000/svg" viewBox="0 0 976 1080"><defs><style>.cls-1{fill:#922226;}.cls-2{fill:#f19021;}.cls-3{fill:#1d1e1c;}</style></defs><path class="cls-1" d="M717,189.09a57,57,0,0,1,16.69,40.6l-1,377a56.12,56.12,0,0,1-56.06,55.9h-.15l-434-1.19L243.7,171l80.12.21,0,13L256.65,184,256,427.15h51.89l.52-191.06,302.91.82a57.41,57.41,0,0,1,57.2,57.6l-.26,90.81-13,0,.26-90.82a44.37,44.37,0,0,0-44.24-44.56l-289.92-.78-.91,334.53,197.1.73,0,13-210.08-.76.42-156.47H256l-.57,208.26,306.12.82V538l-80.63-.24V481.5a65,65,0,1,1,13,.15v43.2l84.65.23h.06A17.16,17.16,0,0,0,595.75,508l.43-154.43A44.37,44.37,0,0,0,551.94,309l-171.49-.46-.59,216,50.16.08v13l-63.17-.08.65-242L552,296a57.38,57.38,0,0,1,57.21,57.52L608.79,493h46.38a71.26,71.26,0,0,1,64.94-65.77l.54-197.53a44.37,44.37,0,0,0-44.24-44.49l-270.24-.74,0-13,270.22.73A57,57,0,0,1,717,189.09Zm2.67,417.52.45-166.37A58.26,58.26,0,0,0,668,498.11v25.36l-.07,27.34a46.86,46.86,0,0,1-46.79,46.67H621l0-13h.1a33.84,33.84,0,0,0,33.79-33.7L655,506H608.76l0,2a30.15,30.15,0,0,1-30.15,30.08h-.08l-4,0V649.28l101.94.27h.11A43.1,43.1,0,0,0,719.62,606.61ZM540.15,416.84a52.08,52.08,0,1,0-52.08,52.09A52.13,52.13,0,0,0,540.15,416.84Z"/><path class="cls-2" d="M720.07,440.24l-.45,166.37a43.1,43.1,0,0,1-43.06,42.94h-.11l-101.94-.27V538.06l4,0h.08A30.15,30.15,0,0,0,608.74,508l0-2H655l-.06,44.82a33.84,33.84,0,0,1-33.79,33.7H621l0,13h.13a46.86,46.86,0,0,0,46.79-46.67l.07-27.34V498.11A58.26,58.26,0,0,1,720.07,440.24Z"/><path class="cls-2" d="M488.07,364.78A52.08,52.08,0,1,1,436,416.84,52.13,52.13,0,0,1,488.07,364.78Z"/><path class="cls-1" d="M161.54,824.17V717.4a1.39,1.39,0,0,1,1.57-1.57h24.24q12.1,0,19.35,7.93T213.94,745v51.5q0,13.34-7.24,21.27t-19.35,7.93H163.11A1.39,1.39,0,0,1,161.54,824.17Zm11.8-8.16,13.85-.16a13.37,13.37,0,0,0,11.09-5.34q4.17-5.34,4.33-14.44V745.51q0-9.27-4.09-14.61a13.5,13.5,0,0,0-11.33-5.33H173.34a.55.55,0,0,0-.63.62v89.19A.56.56,0,0,0,173.34,816Z"/><path class="cls-1" d="M234.71,824.17V717.4a1.4,1.4,0,0,1,1.58-1.57h8a1.39,1.39,0,0,1,1.57,1.57V824.17a1.39,1.39,0,0,1-1.57,1.57h-8A1.39,1.39,0,0,1,234.71,824.17Z"/><path class="cls-1" d="M316.85,725.57h-36.5a.55.55,0,0,0-.63.62v38.94a.56.56,0,0,0,.63.63h23a1.39,1.39,0,0,1,1.57,1.57v6.75a1.39,1.39,0,0,1-1.57,1.57h-23a.56.56,0,0,0-.63.63v39.1a.56.56,0,0,0,.63.63h36.5a1.39,1.39,0,0,1,1.58,1.57v6.59a1.39,1.39,0,0,1-1.58,1.57H270.12a1.39,1.39,0,0,1-1.58-1.57V717.4a1.4,1.4,0,0,1,1.58-1.57h46.73a1.4,1.4,0,0,1,1.58,1.57V724A1.4,1.4,0,0,1,316.85,725.57Z"/><path class="cls-1" d="M340.77,819.85q-7.25-7.14-7.24-19.07v-60q0-11.94,7.24-19.08t19.36-7.14q12.11,0,19.43,7.22T386.88,741v6.76a1.4,1.4,0,0,1-1.58,1.57h-8a1.4,1.4,0,0,1-1.58-1.57v-7.07q0-7.38-4.25-11.85t-11.32-4.48a14.86,14.86,0,0,0-11.26,4.55,16.44,16.44,0,0,0-4.32,11.78v60.29a16.42,16.42,0,0,0,4.32,11.78,14.82,14.82,0,0,0,11.26,4.55q7.08,0,11.32-4.47t4.25-11.86V780.84a.56.56,0,0,0-.63-.63H361.54a1.39,1.39,0,0,1-1.57-1.57V772a1.39,1.39,0,0,1,1.57-1.57H385.3a1.4,1.4,0,0,1,1.58,1.57v28.74q0,11.93-7.32,19.07T360.13,827Q348,827,340.77,819.85Z"/><path class="cls-1" d="M411.82,819.46q-7.49-7.53-7.48-19.94V742.05q0-12.39,7.48-19.94t19.59-7.53q12.27,0,19.82,7.53t7.56,19.94v57.47q0,12.24-7.56,19.86T431.41,827Q419.29,827,411.82,819.46Zm31.31-7a17.3,17.3,0,0,0,4.49-12.32V741.58q0-7.7-4.49-12.48a15.33,15.33,0,0,0-11.72-4.79,14.91,14.91,0,0,0-11.49,4.79q-4.41,4.78-4.41,12.48v58.57q0,7.53,4.41,12.32a14.87,14.87,0,0,0,11.49,4.79A15.3,15.3,0,0,0,443.13,812.47Z"/><path class="cls-1" d="M555.88,715.83h7.87a1.39,1.39,0,0,1,1.57,1.57V824.17a1.39,1.39,0,0,1-1.57,1.57h-9.29a1.73,1.73,0,0,1-1.73-1.26l-30.68-81.17q-.16-.48-.48-.39c-.21.05-.31.23-.31.55l.16,80.7a1.39,1.39,0,0,1-1.58,1.57h-8a1.39,1.39,0,0,1-1.58-1.57V717.4a1.4,1.4,0,0,1,1.58-1.57h9.12a1.73,1.73,0,0,1,1.73,1.26l30.85,81.33c.1.31.26.45.47.39s.31-.23.31-.55V717.4A1.4,1.4,0,0,1,555.88,715.83Z"/><path class="cls-1" d="M636.13,725.57H599.62a.55.55,0,0,0-.63.62v38.94a.56.56,0,0,0,.63.63h23a1.39,1.39,0,0,1,1.57,1.57v6.75a1.39,1.39,0,0,1-1.57,1.57h-23a.56.56,0,0,0-.63.63v39.1a.56.56,0,0,0,.63.63h36.51a1.39,1.39,0,0,1,1.57,1.57v6.59a1.39,1.39,0,0,1-1.57,1.57H589.4a1.39,1.39,0,0,1-1.58-1.57V717.4a1.4,1.4,0,0,1,1.58-1.57h46.73a1.39,1.39,0,0,1,1.57,1.57V724A1.39,1.39,0,0,1,636.13,725.57Z"/><path class="cls-1" d="M655.33,824.17V717.4a1.39,1.39,0,0,1,1.57-1.57h8a1.39,1.39,0,0,1,1.57,1.57V824.17a1.39,1.39,0,0,1-1.57,1.57h-8A1.39,1.39,0,0,1,655.33,824.17Z"/><path class="cls-1" d="M731.33,824.48,715.28,776a.61.61,0,0,0-.63-.47H701a.55.55,0,0,0-.63.62v48a1.39,1.39,0,0,1-1.57,1.57h-8a1.39,1.39,0,0,1-1.57-1.57V717.4a1.39,1.39,0,0,1,1.57-1.57h26q11.47,0,18.56,8.4t7.09,21.91a33.64,33.64,0,0,1-4.41,17.58,23.87,23.87,0,0,1-12,10.36.57.57,0,0,0-.47.79L742.66,824l.16.63c0,.74-.47,1.1-1.42,1.1h-8.18A1.84,1.84,0,0,1,731.33,824.48Zm-31-98.29v39.73a.56.56,0,0,0,.63.63h14.16A14.12,14.12,0,0,0,726.77,761q4.4-5.57,4.4-14.83t-4.4-14.92a14,14,0,0,0-11.65-5.65H701A.55.55,0,0,0,700.33,726.19Z"/><path class="cls-1" d="M800.72,824.33l-3.93-19.47a.52.52,0,0,0-.24-.47.92.92,0,0,0-.55-.16H767.52a.94.94,0,0,0-.55.16.52.52,0,0,0-.24.47l-3.93,19.47a1.5,1.5,0,0,1-1.73,1.41h-8a1.46,1.46,0,0,1-1.18-.47,1.42,1.42,0,0,1-.23-1.26l23.6-106.76a1.62,1.62,0,0,1,1.73-1.42h9.44c1.05,0,1.63.47,1.73,1.42L812.05,824v.32a1.25,1.25,0,0,1-1.41,1.41h-8.19A1.62,1.62,0,0,1,800.72,824.33Zm-31.47-29.21h24.86c.32,0,.48-.21.48-.62L782,732.79c-.11-.31-.21-.47-.32-.47s-.21.16-.31.47L768.78,794.5C768.78,794.91,768.94,795.12,769.25,795.12Z"/><path class="cls-3" d="M164.55,906a10.82,10.82,0,0,1-2.93-7.95V874.71a10.74,10.74,0,0,1,2.93-7.88,10.47,10.47,0,0,1,7.78-3,10.1,10.1,0,0,1,10.78,10.84v1.07a.56.56,0,0,1-.63.63l-3.27.19a.56.56,0,0,1-.63-.63v-1.58a6.74,6.74,0,0,0-1.71-4.79,6.52,6.52,0,0,0-9,0,6.67,6.67,0,0,0-1.74,4.79v24.08a6.64,6.64,0,0,0,1.74,4.79,6.5,6.5,0,0,0,9,0,6.71,6.71,0,0,0,1.71-4.79V896.9a.56.56,0,0,1,.63-.63l3.27.19a.56.56,0,0,1,.63.63v1a10.72,10.72,0,0,1-3,7.95,10.58,10.58,0,0,1-7.82,3A10.47,10.47,0,0,1,164.55,906Z"/><path class="cls-3" d="M204.7,906.35a9.4,9.4,0,0,1-2.68-7V885.8a9.48,9.48,0,0,1,2.71-7,11,11,0,0,1,14.44,0,9.44,9.44,0,0,1,2.71,7v13.56a9.3,9.3,0,0,1-2.71,7,9.91,9.91,0,0,1-7.25,2.65A9.81,9.81,0,0,1,204.7,906.35Zm11.16-3A6.07,6.07,0,0,0,217.4,899v-13a6.22,6.22,0,0,0-1.54-4.39,5.14,5.14,0,0,0-3.94-1.67,5,5,0,0,0-3.91,1.67,6.3,6.3,0,0,0-1.51,4.39v13a6.14,6.14,0,0,0,1.51,4.35,5.09,5.09,0,0,0,3.91,1.64A5.18,5.18,0,0,0,215.86,903.39Z"/><path class="cls-3" d="M272.87,878.93c1.39,1.85,2.08,4.42,2.08,7.69v21.25a.56.56,0,0,1-.63.63h-3.15a.56.56,0,0,1-.63-.63V887a8.47,8.47,0,0,0-1.35-5.07,4.21,4.21,0,0,0-3.56-1.86,4.51,4.51,0,0,0-3.79,1.83,8,8,0,0,0-1.38,5v21a.56.56,0,0,1-.63.63h-3.22a.56.56,0,0,1-.63-.63V887a8.47,8.47,0,0,0-1.35-5.07,4.16,4.16,0,0,0-3.5-1.86,4.59,4.59,0,0,0-3.82,1.83,7.93,7.93,0,0,0-1.41,5v21a.56.56,0,0,1-.63.63h-3.16a.56.56,0,0,1-.63-.63V877.23a.56.56,0,0,1,.63-.63h3.16a.56.56,0,0,1,.63.63v1.95c0,.09,0,.14.09.16a.23.23,0,0,0,.22-.09,7.42,7.42,0,0,1,2.84-2.33,8.05,8.05,0,0,1,3.46-.76,7.33,7.33,0,0,1,4.16,1.17,7.41,7.41,0,0,1,2.71,3.3.21.21,0,0,0,.19.13c.09,0,.15-.06.19-.19a7.56,7.56,0,0,1,3.09-3.34,8.56,8.56,0,0,1,4.16-1.07A6.88,6.88,0,0,1,272.87,878.93Z"/><path class="cls-3" d="M310.13,876.6h3.21a.56.56,0,0,1,.63.63v30.64a.56.56,0,0,1-.63.63h-3.21a.56.56,0,0,1-.63-.63v-2.15c0-.12,0-.19-.1-.19s-.13.05-.22.13a6.78,6.78,0,0,1-6.3,3.28,8,8,0,0,1-6-2.3q-2.24-2.31-2.24-7V877.23a.56.56,0,0,1,.63-.63h3.22a.56.56,0,0,1,.63.63v21.43a7.48,7.48,0,0,0,1.29,4.76,4.53,4.53,0,0,0,3.75,1.61,4.71,4.71,0,0,0,3.94-1.83,8,8,0,0,0,1.42-5v-21A.56.56,0,0,1,310.13,876.6Z"/><path class="cls-3" d="M351.57,878.81q2.12,2.64,2.11,7.37v21.69a.56.56,0,0,1-.63.63h-3.21a.56.56,0,0,1-.63-.63V886.56a7.46,7.46,0,0,0-1.36-4.79,4.5,4.5,0,0,0-3.75-1.7,4.71,4.71,0,0,0-3.94,1.83,7.93,7.93,0,0,0-1.42,5v21a.56.56,0,0,1-.63.63H334.9a.56.56,0,0,1-.63-.63V877.23a.56.56,0,0,1,.63-.63h3.21a.56.56,0,0,1,.63.63v2a.22.22,0,0,0,.13.19c.08,0,.15,0,.19-.13a7.06,7.06,0,0,1,2.87-2.36,8.71,8.71,0,0,1,3.69-.79A7.17,7.17,0,0,1,351.57,878.81Z"/><path class="cls-3" d="M373.76,869.79a3.52,3.52,0,0,1,2.55-6,3.38,3.38,0,0,1,2.49,1,3.77,3.77,0,0,1,0,5.07,3.29,3.29,0,0,1-2.49,1A3.36,3.36,0,0,1,373.76,869.79Zm.35,38.08V877.23a.56.56,0,0,1,.63-.63H378a.56.56,0,0,1,.63.63v30.64a.56.56,0,0,1-.63.63h-3.21A.56.56,0,0,1,374.11,907.87Z"/><path class="cls-3" d="M401.31,906.35a9.36,9.36,0,0,1-2.68-7V885.74a9.36,9.36,0,0,1,2.71-7,9.7,9.7,0,0,1,7.12-2.67,11.14,11.14,0,0,1,5.23,1.19,8.88,8.88,0,0,1,3.5,3.19,8.14,8.14,0,0,1,1.23,4.38v.63a.56.56,0,0,1-.63.63l-3.22.12a.56.56,0,0,1-.63-.63v-.44a5,5,0,0,0-1.54-3.62,5.33,5.33,0,0,0-3.94-1.55,5,5,0,0,0-3.88,1.67,6.42,6.42,0,0,0-1.48,4.39v13a6.38,6.38,0,0,0,1.48,4.38,4.92,4.92,0,0,0,3.88,1.67,5.33,5.33,0,0,0,3.94-1.54,5,5,0,0,0,1.54-3.63v-.44a.56.56,0,0,1,.63-.63l3.22.06a.56.56,0,0,1,.63.64v.69a8.1,8.1,0,0,1-2.74,6.27,10.34,10.34,0,0,1-7.22,2.49A9.7,9.7,0,0,1,401.31,906.35Z"/><path class="cls-3" d="M453.66,879a10.89,10.89,0,0,1,2.64,7.66v21.25a.56.56,0,0,1-.63.63h-3.21a.56.56,0,0,1-.63-.63V906a.14.14,0,0,0-.1-.15c-.06,0-.13,0-.22.09-1.55,2.06-3.89,3.09-7,3.09a9.46,9.46,0,0,1-6-2q-2.56-2-2.56-7,0-5.36,3.09-7.85a12.56,12.56,0,0,1,8.13-2.49h4.41a.23.23,0,0,0,.26-.25v-2.46a8.11,8.11,0,0,0-1.45-5,4.91,4.91,0,0,0-7.16-.64,5.15,5.15,0,0,0-1.6,3.22.56.56,0,0,1-.63.63l-3.53-.06a.61.61,0,0,1-.48-.19.49.49,0,0,1-.09-.44,8.53,8.53,0,0,1,3-6,10,10,0,0,1,6.68-2.3A9.16,9.16,0,0,1,453.66,879Zm-3.72,24.46a5.86,5.86,0,0,0,1.89-4.63v-5.3a.23.23,0,0,0-.26-.25H447.1a6.84,6.84,0,0,0-4.79,1.61,6.11,6.11,0,0,0-1.77,4.76,5.6,5.6,0,0,0,1.36,4.13,4.82,4.82,0,0,0,3.56,1.35A6.52,6.52,0,0,0,449.94,903.42Z"/><path class="cls-3" d="M477.89,906.35a9.36,9.36,0,0,1-2.68-7V885.74a9.4,9.4,0,0,1,2.71-7,9.72,9.72,0,0,1,7.13-2.67,11.17,11.17,0,0,1,5.23,1.19,8.88,8.88,0,0,1,3.5,3.19,8.14,8.14,0,0,1,1.23,4.38v.63a.56.56,0,0,1-.64.63l-3.21.12a.56.56,0,0,1-.63-.63v-.44a5,5,0,0,0-1.54-3.62,5.35,5.35,0,0,0-3.94-1.55,5,5,0,0,0-3.88,1.67,6.38,6.38,0,0,0-1.48,4.39v13a6.33,6.33,0,0,0,1.48,4.38,4.92,4.92,0,0,0,3.88,1.67,5.34,5.34,0,0,0,3.94-1.54,5,5,0,0,0,1.54-3.63v-.44a.56.56,0,0,1,.63-.63l3.21.06a.57.57,0,0,1,.64.64v.69a8.11,8.11,0,0,1-2.75,6.27,10.3,10.3,0,0,1-7.21,2.49A9.72,9.72,0,0,1,477.89,906.35Z"/><path class="cls-3" d="M514,869.79a3.52,3.52,0,0,1,2.55-6,3.38,3.38,0,0,1,2.49,1,3.77,3.77,0,0,1,0,5.07,3.29,3.29,0,0,1-2.49,1A3.36,3.36,0,0,1,514,869.79Zm.35,38.08V877.23a.56.56,0,0,1,.63-.63h3.21a.56.56,0,0,1,.63.63v30.64a.56.56,0,0,1-.63.63H515A.56.56,0,0,1,514.36,907.87Z"/><path class="cls-3" d="M541.56,906.35a9.36,9.36,0,0,1-2.68-7V885.8a9.44,9.44,0,0,1,2.71-7,9.68,9.68,0,0,1,7.18-2.71,9.78,9.78,0,0,1,7.25,2.71,9.44,9.44,0,0,1,2.71,7v13.56a9.3,9.3,0,0,1-2.71,7,9.91,9.91,0,0,1-7.25,2.65A9.78,9.78,0,0,1,541.56,906.35Zm11.15-3a6.08,6.08,0,0,0,1.55-4.35v-13a6.23,6.23,0,0,0-1.55-4.39,5.14,5.14,0,0,0-3.94-1.67,5.06,5.06,0,0,0-3.91,1.67,6.34,6.34,0,0,0-1.51,4.39v13a6.19,6.19,0,0,0,1.51,4.35,5.1,5.1,0,0,0,3.91,1.64A5.18,5.18,0,0,0,552.71,903.39Zm-6.58-31.17a.5.5,0,0,1,.06-.54l3.91-6.87a.92.92,0,0,1,.75-.44h2.59c.25,0,.41.08.47.22a.62.62,0,0,1-.09.54L549.4,872a.92.92,0,0,1-.75.44h-2A.51.51,0,0,1,546.13,872.22Z"/><path class="cls-3" d="M595.57,878.81q2.11,2.64,2.12,7.37v21.69a.56.56,0,0,1-.63.63h-3.22a.56.56,0,0,1-.63-.63V886.56a7.52,7.52,0,0,0-1.35-4.79,4.53,4.53,0,0,0-3.75-1.7,4.69,4.69,0,0,0-3.94,1.83,7.87,7.87,0,0,0-1.42,5v21a.56.56,0,0,1-.63.63H578.9a.56.56,0,0,1-.63-.63V877.23a.56.56,0,0,1,.63-.63h3.22a.56.56,0,0,1,.63.63v2a.21.21,0,0,0,.12.19c.09,0,.15,0,.19-.13a7.06,7.06,0,0,1,2.87-2.36,8.74,8.74,0,0,1,3.69-.79A7.15,7.15,0,0,1,595.57,878.81Z"/><path class="cls-3" d="M637.71,907.93l-9.14-42.86v-.13a.5.5,0,0,1,.57-.57h3.53a.6.6,0,0,1,.69.57l6.81,35.24c0,.08.08.12.13.12s.08,0,.12-.12l6.75-35.24a.64.64,0,0,1,.69-.57h3.41c.46,0,.65.23.56.7l-9.14,42.86a.6.6,0,0,1-.69.57h-3.59A.66.66,0,0,1,637.71,907.93Z"/><path class="cls-3" d="M670.65,869.79a3.52,3.52,0,0,1,2.55-6,3.38,3.38,0,0,1,2.49,1,3.77,3.77,0,0,1,0,5.07,3.29,3.29,0,0,1-2.49,1A3.36,3.36,0,0,1,670.65,869.79Zm.34,38.08V877.23a.56.56,0,0,1,.64-.63h3.21a.56.56,0,0,1,.63.63v30.64a.56.56,0,0,1-.63.63h-3.21A.56.56,0,0,1,671,907.87Z"/><path class="cls-3" d="M697.56,906.57a7.44,7.44,0,0,1-2.61-6v-.44a.56.56,0,0,1,.63-.63h3a.56.56,0,0,1,.63.63v.37a4.49,4.49,0,0,0,1.49,3.41,5.42,5.42,0,0,0,3.87,1.38,5,5,0,0,0,3.66-1.38,4.8,4.8,0,0,0,1.38-3.53,4.23,4.23,0,0,0-.88-2.74,6.64,6.64,0,0,0-2-1.74c-.77-.42-1.94-1-3.5-1.64a29.72,29.72,0,0,1-4.06-2,8.65,8.65,0,0,1-2.77-2.78,9.42,9.42,0,0,1,1.32-10.93,10.83,10.83,0,0,1,13.52.06,8.38,8.38,0,0,1,2.52,6.37v.19a.56.56,0,0,1-.63.63h-2.9a.56.56,0,0,1-.63-.63v-.38a4.7,4.7,0,0,0-1.42-3.53,5,5,0,0,0-3.68-1.39,4.76,4.76,0,0,0-3.63,1.42,4.87,4.87,0,0,0-1.35,3.5,4,4,0,0,0,.82,2.55,6.51,6.51,0,0,0,2,1.7c.8.44,1.91,1,3.34,1.61a38.88,38.88,0,0,1,4.26,2.14,9.74,9.74,0,0,1,2.93,2.84,7.81,7.81,0,0,1,1.26,4.54,8,8,0,0,1-2.58,6.24,10.1,10.1,0,0,1-7,2.33A10.33,10.33,0,0,1,697.56,906.57Z"/><path class="cls-3" d="M747.58,876.6h3.22a.56.56,0,0,1,.63.63v30.64a.56.56,0,0,1-.63.63h-3.22a.56.56,0,0,1-.63-.63v-2.15c0-.12,0-.19-.09-.19a.39.39,0,0,0-.23.13,6.78,6.78,0,0,1-6.3,3.28,8,8,0,0,1-6-2.3q-2.23-2.31-2.24-7V877.23a.56.56,0,0,1,.63-.63h3.22a.56.56,0,0,1,.63.63v21.43a7.48,7.48,0,0,0,1.29,4.76,4.53,4.53,0,0,0,3.75,1.61,4.7,4.7,0,0,0,3.94-1.83,7.9,7.9,0,0,0,1.42-5v-21A.56.56,0,0,1,747.58,876.6Z"/><path class="cls-3" d="M788.11,879a10.85,10.85,0,0,1,2.65,7.66v21.25a.56.56,0,0,1-.63.63h-3.22a.56.56,0,0,1-.63-.63V906a.14.14,0,0,0-.09-.15.23.23,0,0,0-.22.09q-2.34,3.09-7,3.09a9.48,9.48,0,0,1-6-2q-2.55-2-2.55-7,0-5.36,3.09-7.85a12.56,12.56,0,0,1,8.13-2.49H786a.22.22,0,0,0,.25-.25v-2.46a8,8,0,0,0-1.45-5,4.64,4.64,0,0,0-3.9-1.9,4.59,4.59,0,0,0-3.25,1.26,5.17,5.17,0,0,0-1.61,3.22.56.56,0,0,1-.63.63l-3.53-.06a.59.59,0,0,1-.47-.19.47.47,0,0,1-.1-.44,8.5,8.5,0,0,1,3-6,9.94,9.94,0,0,1,6.68-2.3A9.14,9.14,0,0,1,788.11,879Zm-3.72,24.46a5.86,5.86,0,0,0,1.89-4.63v-5.3a.22.22,0,0,0-.25-.25h-4.47a6.84,6.84,0,0,0-4.79,1.61,6.11,6.11,0,0,0-1.77,4.76,5.6,5.6,0,0,0,1.36,4.13,4.82,4.82,0,0,0,3.56,1.35A6.5,6.5,0,0,0,784.39,903.42Z"/><path class="cls-3" d="M810,907.87V865a.56.56,0,0,1,.63-.63h3.22a.56.56,0,0,1,.63.63v42.87a.56.56,0,0,1-.63.63h-3.22A.56.56,0,0,1,810,907.87Z"/></svg>