<?xml version="1.0" encoding="utf-8"?>
<!-- Generator: Adobe Illustrator 24.1.0, SVG Export Plug-In . SVG Version: 6.00 Build 0)  -->
<svg version="1.1" id="Capa_1" xmlns="http://www.w3.org/2000/svg" xmlns:xlink="http://www.w3.org/1999/xlink" x="0px" y="0px"
	 viewBox="0 0 1080 1440" style="enable-background:new 0 0 1080 1440;" xml:space="preserve">
<style type="text/css">
	.st0{fill:none;stroke:#FE6695;stroke-width:7;stroke-linecap:round;stroke-miterlimit:10;}
	.st1{fill:#EC6694;}
	.st2{font-family:'Poppins-Medium';}
	.st3{font-size:40px;}
</style>
<path class="st0" d="M725.7,648.6c-7.1,5.6-9.5,15.9-5.4,23.8c0.4,0.7,0.8,1.4,1.2,2c4.6,6.6,13.7,10.4,22,8.9
	c6.2-1.1,11.3-4.8,14.9-9.6c3.5-4.6,5.7-10.2,6.4-15.7c1.3-9.8-1.1-19.9-6.4-28.4c-3.4-5.5-8.1-10.4-13.7-14
	c-12.1-7.9-28-10.2-42.3-7.1c-7.2,1.6-13.1,3.7-18.3,6.8c-8.4,5-14.9,12.5-19,21.4c-10,21.8-28.6,84.1,25.3,117.6
	c0,0,31.9,18.3,62-2.3c30-20.6,14-50.6,0-52.5c-10.7-1.4-19,3.6-22.4,6.2c-2.3,1.7-3.8,5-8.2,6.3c-7.2,2.1-18.4-3-20.8-12.9
	c-4-16.9,8.5-30.8,20.5-24.7"/>
<path class="st0" d="M279.6,693.9c3.6,15.3,3.6,34.7,1.4,47.2c-1.6,9-9.3,16.5-17.4,19.6c-8.9,3.4-21.6,4.4-35.2-6
	c-24.1-18.3-2.2-92.5,1.4-104c0.2-0.6-0.3-1.1-0.8-0.9c-4.1,1.8-22.1,3.8-30.8-13.1c-10.1-19.7-1.2-37,20.9-25.3
	c11.8,6.2,20-1.6,37.3-6c24-6.1,34.9,28.2,38.6,34.7c0.2,0.4,0.9,0.4,1.1-0.1c7.4-16.2,19.8-26,27.7-30.8c5.5-3.4,16.6-5,22-1.3
	c16.7,11.6,21,38.1,22.1,53.6c0.6,9.1,1.4,18.2,2.3,27.3c1.8,18.1,2.7,47.4-7.9,59.8c0,0-21.9,27.9-47.8,4
	c-19.9-18.4-7.2-57.3-7.2-57.3"/>
<path class="st0" d="M868.3,688.1c-0.9-9.1-1.7-18.2-2.3-27.3c-1.1-15.5-5.4-42-22.1-53.6c-1.4-0.9-3.1-1.3-4.9-1.9
	c-6.6-2-11.8,0-11.8,0c-1.9,0.3-3.6,0.9-4.9,1.9c-16.7,11.6-21,38.1-22.1,53.6c-0.6,9.1-1.4,18.2-2.3,27.3
	c-1.8,18.1-2.7,47.4,7.9,59.8c0,0,11.4,14.4,27.4,13.6c16,0.8,27.4-13.6,27.4-13.6C871,735.5,870.1,706.2,868.3,688.1z"/>
<path class="st0" d="M267.7,679c0,0,19.6,25.6,25.7,25.6s27.1-25.6,27.1-25.6"/>
<path class="st0" d="M447.2,748.2c0,0,15.9,26.5,42.8,8.6c28.7-19.2,1.9-104.1-18.7-137.5c-10.6-17.2-35.7-18.2-47.2-1.6
	c-1.6,2.3-3.1,4.9-4.4,7.9c-13.3,30.4-53.2,119.7-9.5,133c37.1,11.3,44.7-27.6,44.7-27.6"/>
<g>
	<path class="st0" d="M576.4,705.5c0,0,50.7,9.8,46.5-55.2c-3.7-57.6-64.4-45.5-87.9-38.5c-5.5,1.6-9.3,6.4-9.4,11.8l0,1.3
		c-0.3,14.6-1,29.1-1.9,43.7c-1.3,19.6-2.2,53,4.3,72.8c3.3,10,13,17.6,24.2,18.5c10.4,0.8,23.5-0.5,30.6-24.8"/>
	<path class="st0" d="M608.5,697.7c9.6,1.6,13.5,3.4,16.5,11.7c2.1,5.9,1.9,11,5.5,13.2c2.4,1.5,5.3,2.5,8.2,2.4
		c2.5,0,4.4,2,4.4,4.3c0,15.8-8.3,24-22.3,28.1c-14.5,4.3-33.7-0.8-40.1-16.6"/>
</g>
<path class="st1" d="M452.1,686.3c0.6-3.2,2.4-6.1,6.2-6.6c2-0.2,4.1,0.5,5.5,1.9c2.9,2.9,2.4,7.1,1,10.5c-1.8,4.3-4.9,8-8.8,10.5
	c-3.9,2.5-8.6,3.8-13.3,3.6c-3.8-0.2,1.8-1.7,6.2-6c-2.6-1.2-5.3-2.4-7.6-4.1c-2.3-1.7-4.2-4.1-5-6.9s0-6.1,2.2-7.9
	c2.2-1.8,5.4-2,8-0.8C446.6,680.5,450.3,682.2,452.1,686.3z"/>
<path class="st1" d="M579.5,659.7c0.6-3.2,2.4-6.1,6.2-6.6c2-0.2,4.1,0.5,5.5,1.9c2.9,2.9,2.4,7.1,1,10.5c-1.8,4.3-4.9,8-8.8,10.5
	c-3.9,2.5-8.6,3.8-13.3,3.6c-3.8-0.2,1.8-1.7,6.2-6c-2.6-1.2-5.3-2.4-7.6-4.1c-2.3-1.7-4.2-4.1-5-6.9c-0.7-2.8,0-6.1,2.2-7.9
	c2.2-1.8,5.4-2,8-0.8C573.9,653.9,577.7,655.6,579.5,659.7z"/>
<g>
	<text transform="matrix(1 0 0 1 359.3252 827.3422)" class="st1 st2 st3">Diseñadora Gráfica</text>
</g>
</svg>
