<?xml version="1.0" encoding="utf-8"?>
<!-- Generator: Adobe Illustrator 26.0.1, SVG Export Plug-In . SVG Version: 6.00 Build 0)  -->
<svg version="1.1" id="Capa_1" xmlns="http://www.w3.org/2000/svg" xmlns:xlink="http://www.w3.org/1999/xlink" x="0px" y="0px"
	 viewBox="0 0 1080 1440" style="enable-background:new 0 0 1080 1440;" xml:space="preserve">
<style type="text/css">
	.st0{fill:#D280B4;}
	.st1{fill:#C21B2E;}
</style>
<rect x="0" class="st0" width="1080" height="1440"/>
<g>
	<path class="st1" d="M213.3,759.3h32.4c-2.5,2.2-15.4,11.5-15.4,35.5c0,10.6,0.1,21.9,0.1,41.1H100.8l0,0c0-13.5,0-30.8,0-46.7
		V653.6c0-17.3,0-32.7,0-49.5h52.8c-0.2,15.9,0,30.5,0,46.7v99c0,45-22.4,68-33.8,76.6c-0.8,0.6-1.1,1.1-1.1,2
		c0,1.1,1.1,2.2,2.5,2.2h35.8c14.5,0,26.3-11.7,26.3-25.2c0-2.2-0.3-4.2-0.8-6.4c-0.8-3.1-1.1-6.4-1.1-9.8
		C181.4,760.1,210.2,759.3,213.3,759.3z"/>
	<path class="st1" d="M603.8,604.9c0,14.7,0,31,0,47.5v136.8c0,16.2,0,29.1,0,46.7h-64.3c7.6-14.3,11.7-30.5,11.7-46.7V617.8
		L528,672.6c0,0-0.6,1.4-1.4,3.6c-4.2,9.2-17.3,34.1-36.9,34.1c-16.5,0-28.5-20.1-34.1-32.7c-0.3,0-0.3-0.3-0.3-0.3l-3.9-9.2v-0.3
		l-10.1-24.1c-0.3,2.5-0.3,5-0.3,7.8v13.1c0,66.3,50.9,108.5,53.7,132c0.3,2.8,0.6,5.3,0.6,7.8c0,24.1-17.1,31.3-29.9,31.3h-40.8
		c7.3-14.5,11.2-31,11.2-47.3V651.6c0-12.6,0-21.9,0-36.1v-0.3v-8.7c0-0.9,0-1.2,0-2.5h46.2l23.8,56.5c2,4.8,6.4,7.3,10.9,7.3
		c4.5,0,9-2.5,10.9-7.3l23.8-56.5h52.6V604.9z"/>
	<path class="st1" d="M966.3,816.9c0-3.1,0.8-6.7,2.8-10.3c6.4-9.8,10.1-21.5,10.1-35c0-49.2-51-75.1-107.2-75.1
		c66.4,0,97-9,95.1-46.6c-1.4-25.9-23.4-45.8-49.3-45.8H809.9c0,17.7,0,31.3,0,46.7v138.5c0,16.2,0,32.1,0,46.7h77.2
		c-22.4-16.2-24.3-44.2-24.3-56.2v-5.6c0-41.4-19.6-61.5-33-70.5c-1.7-1.1-2.2-2.8-2.2-4.2c0-2.2,1.1-4.5,3.6-5.3
		c13.1-4.8,31.6-16.5,31.6-43.4v-0.3c0-29.4,7.6-40.8,15.9-40.8c10.1,0,21.3,16.5,21.3,38c0,32.1-26.4,42.8-46.8,47.4
		c-4.2,0.8-7.5,0-11.9,0.1l-0.7,0.1c-2.4,0.6-4,2.5-4,4.9c0,1.9,1.4,3.8,3.4,4.5l3.4,0.8c23.4,5.4,52.6,12.2,65.9,46.4
		c0.1,0.2,1.5,4.6,1.5,10.5c0,6.6-3,18.2-7,24.7l0,0c-3.6,5.6-6.1,13-6.1,20.4c0,14.3,9,28.5,35,28.5h46.4
		C979.2,835.9,966.3,829,966.3,816.9z M939.2,747.3c-3.5,6.4-15,18-23.7,26.8c0.9-4.5,1.4-8.7,1.4-11.8c0-6.8-1.6-11.8-1.9-12.5
		c-13.4-34.5-42-43.5-64.8-49c1.4-0.2,2.6-0.2,3.9-0.2c26.7,0.9,67.9,5.1,83.7,28c2.3,3.3,3.3,7.3,3.4,11.2
		C941.2,742.7,940.9,744.2,939.2,747.3z"/>
	<path class="st1" d="M339.2,835.9h75.2c-3.4-14-6.4-22.4-12-45.3l-33.8-148c-1.1-6.2-2.7-11.6-3.9-16.5c-1.9-7.7-4.1-16.9-4.9-22.1
		H313c0,0-2.6,9.9-8.3,32.2c-2.4,9.5-5,19.3-8.3,32.2l-33,128.7c-2.5,8.9-11.5,33.8-22.7,38.9h48.7c0,0,22.9,0,32.2-14.5
		c3.4-5,4.8-10.1,4.8-15.1c0-9.5-5.3-18.5-11.5-25.5c-10.8-12.2-16.3-27.5-19-41.4c1.7,4.3,4,8.4,7.1,11.9
		c9.3,11.4,24.5,16.4,38.8,14.4c3.8,16.5,6.4,27.7,6.4,27.7c0.8,3.6,2,10.1,2,16.8C350.1,820,347.8,830.6,339.2,835.9z M330.5,758.3
		c-13-0.7-25.4-9.9-30.4-22.1c-5-12-5.2-24.8-6-37.7c0.3-2.1,0.8-4.3,1.4-6.3c0,0,14.5-53.7,15.4-54.8c0.8,0,18.2,74.3,28.9,120.4
		C336.8,758.3,333.6,758.6,330.5,758.3z"/>
	<path class="st1" d="M710.9,835.9h75.2c-3.4-14-6.4-22.4-12-45.3l-33.8-148c-1.1-6.2-2.7-11.6-3.9-16.5c-1.9-7.7-4.1-16.9-4.9-22.1
		h-46.8c0,0-2.6,9.9-8.3,32.2c-2.4,9.5-5,19.3-8.3,32.2l-33,128.7c-2.5,8.9-11.5,33.8-22.7,38.9h48.7c0,0,22.9,0,32.2-14.5
		c3.4-5,4.8-10.1,4.8-15.1c0-9.5-5.3-18.5-11.5-25.5c-9.8-11.2-15.3-24.8-18.2-37.7c1.5,2.9,3.2,5.7,5.4,8.2
		c9.4,11.6,25.1,16.6,39.6,14.2c3.8,16.5,6.5,27.9,6.5,27.9c0.8,3.6,2,10.1,2,16.8C721.8,820,719.6,830.6,710.9,835.9z M701.4,758.3
		c-13-0.7-25.4-9.9-30.4-22.1c-4.4-10.5-5.1-21.6-5.7-32.9c0.3-3.8,0.9-7.6,2-11.2c0,0,14.5-53.7,15.4-54.8
		c0.8,0,18.1,74.1,28.9,120.2C708.2,758.3,704.8,758.6,701.4,758.3z"/>
</g>
</svg>
