<?xml version="1.0" encoding="utf-8"?>
<!-- Generator: Adobe Illustrator 27.1.0, SVG Export Plug-In . SVG Version: 6.00 Build 0)  -->
<svg version="1.1" id="Capa_1" xmlns="http://www.w3.org/2000/svg" xmlns:xlink="http://www.w3.org/1999/xlink" x="0px" y="0px"
	 viewBox="0 0 1080 1440" style="enable-background:new 0 0 1080 1440;" xml:space="preserve">
<style type="text/css">
	.st0{fill:#FFFFFF;}
	.st1{fill:#1D1D1B;}
	.st2{fill:#1D1D1B;stroke:#1D1D1B;stroke-width:2;stroke-miterlimit:10;}
	.st3{fill:none;stroke:#1D1D1B;stroke-width:14;stroke-miterlimit:10;}
</style>
<g>
	<path class="st0" d="M672.2,672c0,0,29.4-21.6,28.8-81c0,0-5.8-13.6-19.3,5.1C668.2,614.8,672.2,672,672.2,672z"/>
	<path class="st0" d="M762.9,661.2c-7.6-3.7-22.4-17.1-27.8-29.7c-5.3-12.6,5.8-36.1,30.9-38.4c16.5-1.6,12.7,48.3,12.7,48.3
		S777.1,668.1,762.9,661.2z"/>
	<path class="st1" d="M352.5,738.4c0,0-0.6,15.6,12.4,7.3c0,0,15.4-18.7,26.1-26.5c0,0,10.6,67.1,39.4,68.8c0,0,12.2,0.2,5.8-11.4
		s-17.9-0.1-30.8-68.1c0,0,8.3-7.3,25.6-14.3c0,0,4.6-5.8-3-7c-7.6-1.2-22.9,9.5-22.9,9.5s-5.5-55,18.2-68.8c0,0,27.1-11.9,21,133.3
		c-6,145.3-21.3,146.6-21.3,146.6s-0.7,12.3,7.3,2.3s60-293.6-7.9-293.9c0,0-33.6-3-34,91.3C388.6,707.6,359.1,724.9,352.5,738.4z"
		/>
	<path class="st2" d="M501.3,770.3c0,0,4.9,11-5.7,9.7s-26.1-33.6-25.9-80.3c0.2-45.7,6-78.9,35-80.8c29-1.8,26.5,64.3,26.5,64.3
		s14-100.9,9.1-129.5c0,0,15.6-11.4,14,0c-2.8,19.5-10.1,146.9-19.8,219.5c0,0-6.6,6.1-9.6-2.4c-3-8.5,11.6-123.3-20.3-142.2
		S467.1,755.1,501.3,770.3z"/>
	<path class="st1" d="M617,477.1c0,0,12.5-22.9,23.9,0c0,0-29.1,236.5,15.6,208.7c0,0-10.4-121.4,36.4-118.3s8.3,109-11.4,120.5
		c0,0,12.5,106.1,78-11.4c0,0-76.8-56.2,0.2-104.6c68.2-42.9,20.7,214.6,11.7,257.1c-0.9,4.4-3.2,8.4-6.6,11.2
		c-3.4,2.9-8.1,5.4-12.7,3.3c-5.6-2.4-0.7-8.7,1.2-12.4c4.3-8.1,19.2-23.1,31.2-148.6c0,0-5.3,9.6-17.7,0c0,0-51.6,134-106.7,22.3
		C660,705.1,591,751.5,617,477.1z"/>
	<path class="st3" d="M883.6,635.8c0,33.6-18,44.6-37.2,44.6c-19.2,0-32.3-11.1-32.3-44.6s15.6-60.8,34.8-60.8
		S883.6,602.3,883.6,635.8z"/>
	<path class="st1" d="M821.5,651.3c0,0,46.1-15.4,69.5-84.2c0,0-33.6,60.9-71,63.1L821.5,651.3z"/>
	<path class="st0" d="M671.7,685.8c0,0,29.4-21.6,28.8-81c0,0-5.8-13.6-19.3,5.1S671.7,685.8,671.7,685.8z"/>
	<path class="st0" d="M765.2,667.1c-7.6-3.7-21.6-17.1-27-29.7c-5.3-12.6,2.8-35,27.9-37.4c16.5-1.6,12.7,48.3,12.7,48.3
		S779.4,674,765.2,667.1z"/>
	<path class="st1" d="M247.6,506.4c0,0,16.2-26.2,24.7,9c0,0-55.8,323.5,0.6,318.6C272.9,833.9,196.4,904.4,247.6,506.4z"/>
	<path class="st1" d="M190.9,525.1c0,0-9.7,26.2,13.1,20.5c22.8-5.8,97.2-54.4,131.3-47.1c0,0,15-14.3,4.2-15
		C301.2,480.9,204.9,507.9,190.9,525.1z"/>
	<path class="st1" d="M190.4,894.4c0,0-8.1,23.7,12.5,17.9s636.2-191.7,681.2-190.2c0,0,12.8-8,3.5-13.5
		C878.2,703.1,202.7,878.6,190.4,894.4z"/>
	<path class="st1" d="M373.2,648.4c0,0-39.9,174.4-82.6,155.8c-33.6-14.6-15.8-181.9-15.8-181.9s1.8-6.7,10.4-5.7
		c8.5,0.9,8.9,9.9,8.9,9.9s-14.1,111.9-0.2,150.6c14,38.8,57.7-100,57.7-100l14.9-42.4c0,0,2.4-5.4,8.3-4.3c5.9,1,1.5,7.7,1.5,7.7"
		/>
	<path class="st1" d="M413,600c0,0,5.6-50.2,35.9-53.5C479.2,543.3,413,600,413,600z"/>
	<path class="st1" d="M190.5,858.6c0,0-9.7,26.2,13.1,20.5c22.8-5.8,97.2-54.4,131.3-47.1c0,0,15-14.3,4.2-15
		C300.8,814.4,204.5,841.3,190.5,858.6z"/>
	<path class="st1" d="M579,553.1c0,0-6.3,17.1,8.6,13.3c14.9-3.8,63.4-35.5,85.6-30.7c0,0,9.8-9.3,2.8-9.8
		C650.9,524.3,588.1,541.9,579,553.1z"/>
	<path class="st1" d="M569.3,493.5c0,0-9.7,26.2,13.1,20.5c22.8-5.8,97.2-54.4,131.3-47.1c0,0,15-14.3,4.2-15
		C679.7,449.3,583.3,476.3,569.3,493.5z"/>
	<g>
		<g>
			<path class="st1" d="M196.7,977.2l-4.3,11.7h-2.7l12.4-33.9h3.1l13,33.9h-2.9l-4.4-11.7H196.7z M210.1,974.8
				c-3.8-10.1-5.7-14.9-6.4-17.2h0c-0.8,2.6-3,8.6-6,17.2H210.1z"/>
			<path class="st1" d="M236.8,988.9v-33.9h3.9c5.3,8.1,17.7,27,19.8,30.7h0c-0.3-4.9-0.2-9.9-0.2-15.4v-15.3h2.7v33.9h-3.6
				c-5-7.8-17.6-27.5-20-31.2h0c0.2,4.5,0.2,9.4,0.2,15.5v15.7H236.8z"/>
			<path class="st1" d="M287.5,955.1v33.9h-2.6v-33.9H287.5z"/>
			<path class="st1" d="M338.9,973.3c0-6.6,0-13,0.2-16.3H339c-1.4,4.5-8.2,21.2-12.5,31.9h-2.6c-3.2-8.3-10.4-26.8-11.9-32h-0.1
				c0.2,3.9,0.3,11.8,0.3,17.6v14.4h-2.6v-33.9h3.9c4.6,11.6,10.5,26.8,11.8,30.6h0.1c0.8-2.5,7.5-19.3,12.3-30.6h3.9v33.9h-2.6
				V973.3z"/>
			<path class="st1" d="M367.1,977.2l-4.3,11.7h-2.7l12.4-33.9h3.1l13,33.9h-2.9l-4.4-11.7H367.1z M380.5,974.8
				c-3.8-10.1-5.7-14.9-6.4-17.2h0c-0.8,2.6-3,8.6-6,17.2H380.5z"/>
			<path class="st1" d="M414.1,957.5h-11.4v-2.4h25.4v2.4h-11.4v31.4h-2.7V957.5z"/>
			<path class="st1" d="M448.4,955.1v33.9h-2.6v-33.9H448.4z"/>
			<path class="st1" d="M498.9,971.8c0,9.2-4.9,17.7-15.4,17.7c-9.5,0-15.1-7.7-15.1-17.4c0-9.6,5.4-17.4,15.4-17.4
				C493.1,954.6,498.9,961.9,498.9,971.8z M471.2,971.8c0,7.8,4.3,15.1,12.4,15.1c8.8,0,12.4-7.2,12.4-15.2
				c0-7.9-4.2-14.8-12.3-14.8C475,957,471.2,964.2,471.2,971.8z"/>
			<path class="st1" d="M518.9,988.9v-33.9h3.9c5.3,8.1,17.7,27,19.8,30.7h0c-0.3-4.9-0.2-9.9-0.2-15.4v-15.3h2.7v33.9h-3.6
				c-5-7.8-17.6-27.5-20-31.2h0c0.2,4.5,0.2,9.4,0.2,15.5v15.7H518.9z"/>
			<path class="st1" d="M619.7,967.2l-8.4,13.1c-4.1,6.3-7.1,9.2-12.5,9.2c-5.5,0-8.8-4.4-8.8-8.6c0-4.1,1.9-7.3,9-11.1
				c4.9-3.2,6.8-4.5,6.8-7.6c0-2.7-1.7-5.2-4.9-5.2c-3,0-5.2,1.9-5.2,5.4c0,2.2,1.5,4.2,4.4,7l20,19.7h-3.6l-18.3-18
				c-3.1-3-5-5.2-5-8.7c0-3.8,2.6-7.6,7.7-7.6c4.4,0,7.4,3.3,7.4,7.4c0,3.3-1.8,5.4-7.7,9.1c-6.8,3.9-8,6.2-8,9.5
				c0,3.5,3,6.4,6.1,6.4c3.9,0,6.5-1.4,10.9-8.3l7.2-11.6H619.7z"/>
			<path class="st1" d="M664.7,955.1h11.2c9.3,0,15.7,6.5,15.7,16.6c0,10.1-6.3,17.2-15.8,17.2h-11.2V955.1z M667.3,986.5h8.2
				c8.9,0,13.3-6.3,13.3-14.7c0-7.4-4-14.4-13.3-14.4h-8.2V986.5z"/>
			<path class="st1" d="M731.6,972.3h-17.3v14.2h18.9l-0.4,2.4h-21.1v-33.9h20.8v2.4h-18.1v12.4h17.3V972.3z"/>
			<path class="st1" d="M752.7,979.8c1,4.5,4,7.2,9.6,7.2c6.2,0,8.6-3.1,8.6-6.8c0-3.8-1.7-6.2-9.1-8c-7.2-1.8-10.3-4.1-10.3-9
				c0-4.5,3.2-8.6,10.5-8.6c7.4,0,10.6,4.5,11,8.7h-2.7c-0.8-3.6-3.1-6.2-8.5-6.2c-4.9,0-7.5,2.3-7.5,6c0,3.7,2.2,5.2,8.5,6.7
				c9.5,2.4,10.9,6.2,10.9,10.3c0,5-3.6,9.3-11.5,9.3c-8.5,0-11.6-4.9-12.2-9.5H752.7z"/>
			<path class="st1" d="M796,955.1v33.9h-2.6v-33.9H796z"/>
			<path class="st1" d="M844.2,988.9H842c-0.2-0.4-0.3-2.1-0.3-5.4c-1.2,2.3-3.9,5.8-10.9,5.8c-9.7,0-14.7-7.4-14.7-17
				c0-10.1,5.3-17.7,15.2-17.7c7.3,0,12.1,3.8,13.2,10.1h-2.6c-1.5-4.8-4.8-7.6-10.7-7.6c-8.5,0-12.3,6.6-12.3,15.1
				c0,7.7,3.7,14.8,12,14.8c8.5,0,10.8-5.5,10.8-13v-0.4h-10.9v-2.4h13.4V988.9z"/>
			<path class="st1" d="M865.1,988.9v-33.9h3.9c5.3,8.1,17.7,27,19.8,30.7h0c-0.3-4.9-0.2-9.9-0.2-15.4v-15.3h2.7v33.9h-3.6
				c-5-7.8-17.6-27.5-20-31.2h0c0.2,4.5,0.2,9.4,0.2,15.5v15.7H865.1z"/>
		</g>
	</g>
</g>
</svg>
