<svg id="Capa_1" data-name="Capa 1" xmlns="http://www.w3.org/2000/svg" viewBox="0 0 1080 1440"><defs><style>.cls-1{fill:#fff;}.cls-2{fill:#6cb42d;}.cls-3{fill:none;}</style></defs><rect width="1080" height="1440"/><path class="cls-1" d="M567,887.38a16.07,16.07,0,0,1-10.63-4.24c-4.42-4-7-8.81-9.27-13l-.35-.66c-2.59-4.76-4.92-8.91-7.09-12.63a226.27,226.27,0,0,0-16.33-24.51,151.31,151.31,0,0,0-10.36-12.12c-1.49-1.57-3.09-3.16-4.76-4.73a115.39,115.39,0,0,0-12.63-10.4A155.06,155.06,0,0,0,479,795.29c-1.4-.75-2.8-1.5-4.2-2.27l-.84-.45c-4-2.16-14.8-7.89-12.82-19.59.52-2.89,3.15-11.88,15.79-11.88h.87q3.63.09,7.25.09c7.18,0,14.54-.24,21.65-.48l4.34-.15,5.77-.15c8.12-.2,16.48-.41,24.37-1.41,1.26-3.35,2.55-6.79,3.9-10.36-10.44,5.32-22.36,9.2-35.3,9.2-8.76,0-21.39-1-30.1-10a28.41,28.41,0,0,1-4.23-5.63c-10,12.95-13.55,25.76-15.71,33.46a43,43,0,0,1-2.78,8.13c-2.85,5.49-7.64,8.64-13.16,8.64a16.57,16.57,0,0,1-10.66-4.22c-4.07-3.68-6.88-8.71-9.37-13.15-1.14-2-2.21-3.94-3.19-5.33-1.23-1.77-2.44-3.64-3.65-5.54-2.57-4-5-7.81-7.75-10.34-.73-.67-1.78-1.44-2.9-2.26-4.14-3-10.4-7.62-11.65-16.12-.76-5.17.84-9.67,1.9-12.66,21.14-59.57,43.63-117.17,62.83-165.66,4.37-11,7.74-20.09,10.6-28.5.86-2.54,1.59-4.87,2.23-7.11,3.29-11.51,6.46-25.92,1.7-35.38-3.73-7.44-5.47-18,.82-25.26a16.58,16.58,0,0,1,12.58-5.71,15.52,15.52,0,0,1,12.77,6.44,24.37,24.37,0,0,1,3.05,6.21l.16.46c5.31,14.59,17.14,24.62,26.14,30.48a16.31,16.31,0,0,1,6.18,19.76c-5.12,12.63-19.86,49.43-34.92,90.9l.32-.5c2.7-4.08,5.29-7.72,7.95-11.17s5.49-6.84,8.36-10,5.8-6.13,8.73-8.82a114.27,114.27,0,0,1,9-7.53,92.27,92.27,0,0,1,9.21-6.12,73.18,73.18,0,0,1,9.39-4.6,56.43,56.43,0,0,1,9.59-2.88,42.08,42.08,0,0,1,7.31-.85c.74,0,1.47,0,2.21,0a28.41,28.41,0,0,1,5.87.55,18.33,18.33,0,0,1,5.8,2.26c3.66,2.24,6.44,6.09,8,11.11a33.58,33.58,0,0,1,.72,15.29A30.41,30.41,0,0,0,595.65,604c.32.67.68,1.34,1,2s.79,1.51,1.19,2.33c2.74-10.59,4.64-22.65.5-30.9-3.74-7.45-5.49-18,.8-25.26a16.6,16.6,0,0,1,12.6-5.72,15.5,15.5,0,0,1,12.77,6.45,24.07,24.07,0,0,1,3.06,6.32l.15.41c5.28,14.51,17.12,24.56,26.12,30.42a16.33,16.33,0,0,1,6.2,19.72c-7.7,19-33.63,83.85-53,142.42,68-3.83,140.43-7.19,213.64-7.19h3c57.46.07,101.7,7,143.46,22.36,3.49,1.29,9.34,3.45,13,9,3.37,5.06,3.36,10.53,3.36,14.52v1.18c.18,17.7,11.22,33.14,20.45,43l.69.74c3.9,4.14,8.75,9.29,10.14,16.81a19.46,19.46,0,0,1-2.8,13.82c-4.38,6.92-10.2,8-13.28,8h0c-6.22,0-11-3.83-14.43-6.62-.69-.55-1.34-1.09-2-1.54a169.89,169.89,0,0,0-19.86-12,177.52,177.52,0,0,0-27.3-11.26l-.5-.16c-53.39-18.41-112-30.82-174.24-36.94-29.37-2.89-59.41-4.36-89.26-4.36a771.79,771.79,0,0,0-80,3.82,266,266,0,0,0-6.29,30.3c-1.86,13-3,24.71-3.53,36-.09,2-.37,8.15-5.11,12.36a13.74,13.74,0,0,1-8,3.4C567.86,887.36,567.4,887.38,567,887.38ZM532.89,683c-4.84,20.23-6.16,31-6.41,36.46,8.46-3.53,24.6-13.75,39.54-25.28q8.21-21,16.52-42l1.13-2.87c-2.64,2.3-5.27,4.39-7.65,6.29-1.56,1.24-3,2.39-4.27,3.45a180.56,180.56,0,0,1-19.19,14.39C547.12,676.86,540.6,680.67,532.89,683Zm30.61-62.69c-2.49,3-5.24,6.52-8.1,10.57a115.84,115.84,0,0,0,9-8.71C564.07,621.55,563.79,620.93,563.5,620.28Z"/><path d="M487.29,464.87a5.92,5.92,0,0,1,4.92,2.41,17.15,17.15,0,0,1,2,4.33c5.43,14.93,16.81,26.72,29.95,35.28a6.59,6.59,0,0,1,2.49,8c-11.57,28.57-66.51,166.22-74.55,224.45,0,0,12.55-21.37,27.23-33.25.33-23.46,6.11-46.11,16.31-67.73q3-6.39,6.46-12.54,3.3-5.93,7-11.6c2.39-3.61,4.87-7.14,7.51-10.57q3.76-4.87,7.88-9.44c2.59-2.84,5.28-5.58,8.11-8.19a104,104,0,0,1,8.23-6.9,84.24,84.24,0,0,1,8.24-5.49,63.93,63.93,0,0,1,8.15-4,46.75,46.75,0,0,1,7.9-2.39,33.5,33.5,0,0,1,5.66-.66c.65,0,1.29,0,1.94,0a18.44,18.44,0,0,1,3.85.34,8.85,8.85,0,0,1,2.76,1c2,1.21,3.17,3.61,3.84,5.74a24.45,24.45,0,0,1,.39,10.93,39.91,39.91,0,0,0,3.39,23.56c1.72,3.54,4,7,4.29,10.9.58,7.84-5.4,15.13-12.21,21.33-4.74,4.32-9.89,8.1-13.52,11.17a172.5,172.5,0,0,1-18.19,13.64c-5.93,3.82-12.07,7.21-18.91,8.95-1.18.29-2.34.59-3.5.93l0,0c-4.62,18.49-10.29,44.91-7.23,52.84.66,1.71,2.16,2.44,4.28,2.44,13.54,0,52-30.12,52.07-30.18l.11-.1q8.65-22.25,17.46-44.47c3.8-9.57,7.46-19.2,10.77-29,.84-2.5,2.91-8.69,3.64-11.23,3.69-12.91,7.41-29.75,1.06-42.39-2-4-3.86-10.72-.52-14.59a7,7,0,0,1,5.28-2.36,5.92,5.92,0,0,1,4.9,2.41,17,17,0,0,1,2,4.34c5.43,14.92,16.82,26.72,30,35.28a6.6,6.6,0,0,1,2.5,8c-7.69,19-35.27,87.82-55.15,149-.63,1.93-1.7,5.22-2.42,7.54,75.62-4.37,151.45-8,227.21-8h2.94c48.72.07,94.18,4.83,140.12,21.77,3.14,1.15,6.46,2.48,8.32,5.27,2,3,1.71,6.86,1.74,10.44.19,18.63,10.31,35.91,23.06,49.5,3.52,3.75,7.45,7.63,8.38,12.69a9.83,9.83,0,0,1-1.46,6.87c-1.6,2.53-3.33,3.47-5.11,3.47-3.71,0-7.59-4.09-10.81-6.37a179,179,0,0,0-21-12.75,188.37,188.37,0,0,0-28.76-11.86l-.44-.14c-61.29-21.14-122.48-32.1-176.33-37.39-33.5-3.3-64.14-4.4-90.22-4.4-50.93,0-84.42,4.23-87.45,4.62l-.22,0c-.41,1.52-.8,3-1.2,4.51a283,283,0,0,0-7,33.36c-1.74,12.2-3,24.5-3.59,36.81-.1,2.06-.45,4.31-1.87,5.58a4.12,4.12,0,0,1-2.43,1l-.41,0a6.46,6.46,0,0,1-4.13-1.74c-3.38-3.05-5.48-7.17-7.61-11.11-2.36-4.34-4.76-8.67-7.25-12.93a236.66,236.66,0,0,0-17-25.57,161.89,161.89,0,0,0-11-12.86c-1.66-1.74-3.37-3.44-5.11-5.08a123.17,123.17,0,0,0-13.71-11.28c-6.84-4.86-14.31-8.6-21.66-12.61-3.63-2-9.65-4.69-8.76-9.95.59-3.23,3.49-3.81,6.25-3.81h.61q3.76.11,7.52.1c8.78,0,17.52-.35,26.29-.64,12-.36,24.87-.33,36.89-2.53,0,0,0-.05,0-.06v0l.86-2.27Q557,744.45,565,723.66c-15.81,12.9-34.29,24.52-55.21,24.52h0c-8,0-17.26-1-23.14-7.08-4.56-4.7-6-11.36-6.59-17.65a1.34,1.34,0,0,1,0-.2c-26.33,23.17-28.61,50.21-31.66,56.09-1.36,2.63-3.05,3.42-4.57,3.42a7.11,7.11,0,0,1-4.17-1.73c-4.51-4.07-7.64-11.88-11.12-16.85-4-5.75-7.61-12.69-12.79-17.45-4.1-3.78-10.61-6.5-11.52-12.67-.4-2.71.53-5.42,1.45-8,19.72-55.58,41-110.52,62.71-165.34,3.79-9.57,7.45-19.2,10.76-29q1.28-3.75,2.37-7.56c3.69-12.91,7.4-29.74,1.05-42.39-2-4-3.85-10.72-.51-14.59a7,7,0,0,1,5.26-2.35m42.64,191.25s22.13-3.72,46.55-33.14c0,0-6.55-5.86-7.43-22.46,0,0-22.51,18.68-39.12,55.6m-42.64-210.6a26.26,26.26,0,0,0-19.9,9.05c-7.88,9.12-8.69,22.88-2.14,35.93,3.67,7.3-.87,23.16-2.36,28.37-.61,2.12-1.29,4.3-2.1,6.67-2.8,8.26-6.11,17.17-10.42,28.05-19.24,48.57-41.77,106.28-63,166-1.21,3.41-3.46,9.76-2.35,17.3,1.84,12.5,10.73,19,15.51,22.52.73.53,1.73,1.27,2.06,1.57,1.83,1.69,4,5.12,6.16,8.44,1.22,1.91,2.48,3.88,3.87,5.87.7,1,1.7,2.78,2.67,4.51,2.71,4.84,6.08,10.86,11.32,15.59a26.09,26.09,0,0,0,17.15,6.73,23.56,23.56,0,0,0,16.73-7,47.9,47.9,0,0,0,8.88,6l.76.4c1.42.78,2.84,1.54,4.26,2.3a147.26,147.26,0,0,1,15.47,9.1,106.38,106.38,0,0,1,11.62,9.57c1.54,1.46,3,2.94,4.41,4.38a141.6,141.6,0,0,1,9.65,11.3,216.73,216.73,0,0,1,15.68,23.54c2.14,3.66,4.35,7.61,7,12.4l.3.56c2.38,4.44,5.64,10.52,11.31,15.65A25.83,25.83,0,0,0,567,897.05a22,22,0,0,0,2.3-.11,23.26,23.26,0,0,0,13.44-5.83c5.11-4.55,7.92-11,8.29-19.11.51-11,1.63-22.4,3.43-35l0-.22a223.15,223.15,0,0,1,4.44-22.59c14.23-1.32,39.63-3.11,72.26-3.11,29.55,0,59.26,1.45,88.32,4.31,61.52,6,119.36,18.3,171.92,36.42l.18.06.5.16,0,0,.16.06A167.09,167.09,0,0,1,958,862.74a161.23,161.23,0,0,1,18.76,11.37c.26.19.93.73,1.47,1.17,4.06,3.27,10.87,8.75,20.5,8.75,8.62,0,16.45-4.54,21.46-12.47a29.26,29.26,0,0,0,4.14-20.74c-1.91-10.32-8.35-17.16-12.62-21.69l-.67-.71c-11.39-12.14-17.72-25.09-17.83-36.47v-1.06c0-4.63,0-12.39-5-19.89-5.44-8.18-13.74-11.25-17.73-12.72-42.87-15.8-88.14-22.88-146.8-23h-3c-68.34,0-136,2.92-199.93,6.42C639.41,687.23,662,630.87,669,613.44A26.09,26.09,0,0,0,659.17,582c-7.77-5.05-17.92-13.59-22.33-25.63l-.12-.35a33.55,33.55,0,0,0-4.34-8.73,25.37,25.37,0,0,0-20.61-10.46,26.3,26.3,0,0,0-19.93,9.07,26,26,0,0,0-3.4,5,28.54,28.54,0,0,0-7.9-2.89,36.9,36.9,0,0,0-7.83-.76c-.82,0-1.64,0-2.45,0a53,53,0,0,0-9,1,66.46,66.46,0,0,0-11.17,3.35l-.1,0a84,84,0,0,0-10.64,5.2,102.62,102.62,0,0,0-10.16,6.75l-1.48,1.13c7.63-19.8,13.85-35.29,16.82-42.61a26,26,0,0,0-9.87-31.5c-7.76-5.05-17.93-13.6-22.33-25.68l-.14-.41a33.78,33.78,0,0,0-4.3-8.6,25.44,25.44,0,0,0-20.63-10.46ZM541.1,690.35a96.6,96.6,0,0,0,16.68-8.85q1.89-1.21,3.78-2.51-1.78,4.54-3.56,9.11c-6.5,4.9-13.25,9.6-19.28,13.46.63-3.25,1.42-7,2.38-11.21Z"/><path class="cls-1" d="M662.47,585.84a15.5,15.5,0,0,1-12.76-6.43,24.55,24.55,0,0,1-3.1-6.38l-.13-.35A49.71,49.71,0,0,0,641,561.91c-4.91-7.34-11.84-13.95-20.61-19.67a16.3,16.3,0,0,1-6.16-19.79l.83-2c1-2.6,2.35-5.83,3.86-9.61,2.88-10.28,6-24.77,1.34-34.09-3.73-7.43-5.48-18,.81-25.26a16.63,16.63,0,0,1,12.59-5.71,15.54,15.54,0,0,1,12.77,6.42,25.42,25.42,0,0,1,3.1,6.39l.13.35a49.89,49.89,0,0,0,5.51,10.77C660,477,667,483.63,675.74,489.34a16.29,16.29,0,0,1,6.15,19.81c-1.12,2.78-2.7,6.67-4.62,11.45-3.14,11.18-6,25-1.4,34.26,3.73,7.44,5.48,18-.8,25.27a16.63,16.63,0,0,1-12.6,5.71Z"/><path d="M633.62,455.42a6,6,0,0,1,4.92,2.41,17.74,17.74,0,0,1,2,4.34,59.21,59.21,0,0,0,6.59,12.9c6,9,14.27,16.46,23.36,22.38a6.43,6.43,0,0,1,2.85,4.23,6.66,6.66,0,0,1-.36,3.78c-1.19,2.94-2.84,7-4.85,12-3.63,12.8-7.13,29.31-.87,41.74,2,4,3.85,10.72.51,14.6a7,7,0,0,1-5.27,2.36,6,6,0,0,1-4.92-2.42,17.55,17.55,0,0,1-2-4.34A60.26,60.26,0,0,0,649,556.52c-6-9-14.27-16.46-23.37-22.38a6.55,6.55,0,0,1-2.85-4.23,6.7,6.7,0,0,1,.37-3.79c1.18-3,2.85-7,4.88-12.12,0,0,0,0,0-.08,3.61-12.76,7-29.17.81-41.54-2-4-3.85-10.73-.51-14.61a7,7,0,0,1,5.26-2.35m0-19.35a26.3,26.3,0,0,0-19.88,9c-7.9,9.17-8.71,22.93-2.17,36,2.36,4.68,1.73,13.64-1.87,26.65-1.42,3.56-2.66,6.61-3.66,9.09l-.82,2a25.94,25.94,0,0,0,9.9,31.54c7.64,5,13.63,10.67,17.8,16.9a40.25,40.25,0,0,1,4.47,8.72l.1.26a33.87,33.87,0,0,0,4.27,8.67l.1.14a25.42,25.42,0,0,0,20.61,10.44,26.25,26.25,0,0,0,19.88-9c7.9-9.17,8.71-22.93,2.17-36-2.35-4.68-1.7-13.7,1.93-26.82,1.82-4.54,3.33-8.25,4.43-11a26,26,0,0,0-9.9-31.52c-7.65-5-13.64-10.67-17.8-16.9a40.53,40.53,0,0,1-4.48-8.72l-.09-.26a34,34,0,0,0-4.27-8.67l-.11-.15a25.42,25.42,0,0,0-20.61-10.44Z"/><path class="cls-1" d="M684.88,744.75A42.8,42.8,0,0,1,662,737.22c-14.23-9.52-23.78-26.93-25.53-46.58-1.68-18.86,3.64-37.21,7.79-49.36,8.24-24.16,24-58,52.43-81.84,12.29-10.33,24.64-15.65,36.69-15.83h.73c11.36,0,30.26,4.3,38.13,30.92,55.32-15.67,122.53-49.1,200-99.5a15.27,15.27,0,0,1,22.81,8A26.06,26.06,0,0,1,988.32,510c-9.13,8.68-24.28,26.64-23.13,49.38a19.55,19.55,0,0,1-12.07,18.94c-19.75,8.22-89.62,35.06-178.31,43.61a189.65,189.65,0,0,1-6.25,32.31c-7.86,26.24-20.75,49.75-36.27,66.19-6.92,7.33-25.3,24.36-46.65,24.36ZM712,624.52c-.39,1.06-.79,2.11-1.19,3.15-2.34,6.13-4.85,12.26-7.29,18.18-6.19,15.1-12,29.37-15.73,44.48-2,8.11-1.48,10.91-1.12,11.79,2.11-1.88,4.92-7.45,8.37-16.58.59-1.57,1.1-2.93,1.54-4,5.23-12.33,10.24-25,14.9-37.57l.75-2q1.11-3,2.27-6.09c1.4-3.72,2.82-7.51,4.15-11.31C716.44,624.57,714.21,624.55,712,624.52Z"/><path d="M980.55,482.23a5.59,5.59,0,0,1,5.32,3.84A16.24,16.24,0,0,1,981.66,503c-10.37,9.86-27.48,30.3-26.13,56.89a9.84,9.84,0,0,1-6.13,9.52c-21.71,9-93.06,36.16-183.53,43.63a185.12,185.12,0,0,1-6.57,38.44c-6.68,22.27-18,45.33-34,62.33-9.82,10.41-24.66,21.32-39.61,21.32h-.57a33.38,33.38,0,0,1-17.66-5.9c-12.83-8.58-19.9-24-21.27-39.4s2.32-30.77,7.3-45.38c9.83-28.8,25.91-57.73,49.5-77.56,9.38-7.87,19.78-13.4,30.62-13.56h.58c19.44,0,28,14.71,30.88,33.2,45-11.34,113.7-39.06,212.5-103.35a5.59,5.59,0,0,1,3-.9M714.4,593.74a161.58,161.58,0,0,0,20.31-1.39,53.86,53.86,0,0,0-.67-7.15c-.41-2.47-1.17-5.18-3.33-6.45a5.15,5.15,0,0,0-2.63-.67,8.23,8.23,0,0,0-3.78,1c-3,1.6-5.13,4.45-6.88,7.36-1.42,2.35-2.68,4.8-3.88,7.3h.86M686.65,712.19c10.14,0,16.11-20.39,18.84-26.84q8-18.81,15.07-38l.75-2.06c3.58-9.73,7.75-20,10.49-30.53-3.86.08-7.76.13-11.67.13q-7.39,0-14.88-.21c-1.14,3.21-2.28,6.4-3.47,9.51-8.11,21.18-18,41.71-23.39,63.82-1.74,7.13-4.06,18.68,4,23a9.07,9.07,0,0,0,4.28,1.17m293.9-249.31h0a24.85,24.85,0,0,0-13.58,4c-86.85,56.51-148.66,83.19-188.78,95.73-11.55-25.5-33.67-28.72-44.05-28.72h-.87c-14.34.21-28.73,6.29-42.77,18.08-30.11,25.31-46.73,60.81-55.37,86.13-4.43,13-10.11,32.65-8.27,53.35,2,22.53,13.15,42.63,29.8,53.76a52.38,52.38,0,0,0,28,9.16h.94c24.21,0,44-17.16,53.68-27.38,16.54-17.53,30.22-42.41,38.51-70.06a186.44,186.44,0,0,0,5.61-26.25c86.36-9.45,153.91-35.4,173.4-43.52a29.24,29.24,0,0,0,18-28.36C973.9,540,987.06,524.52,995,517a35.78,35.78,0,0,0,9.26-37,24.91,24.91,0,0,0-23.7-17.13Z"/><path class="cls-1" d="M236.42,994.25a15.6,15.6,0,0,1-10.5-4.43c-3.6-3.23-5.78-7-7.71-10.35-.47-.82-.93-1.63-1.41-2.41-3-4.78-5.46-8.67-7.91-12.26a142.5,142.5,0,0,0-15-18.8,56,56,0,0,0-4.4-3.82c-5.89-4.84-13.23-10.86-14.57-20-.75-5.18.85-9.68,1.91-12.65,6.61-18.66,23.22-57.09,53.85-124.59q16.65-36.7,34.47-75.52c28-61.11,54.3-118.66,63.64-142.23,4.4-11.12,7.76-20.18,10.58-28.49.92-2.74,1.64-5,2.24-7.12,0-.13.08-.25.11-.38C305.52,532.62,227.86,549.78,89,640.13a15.25,15.25,0,0,1-22.81-8,26,26,0,0,1,6.73-26.92c9.14-8.68,24.29-26.65,23.13-49.39a19.56,19.56,0,0,1,12.08-18.94C134.2,526,228,490.61,341.11,490.57c-1.9-6.54-1.81-14,3-19.64a16.6,16.6,0,0,1,12.58-5.69,15.49,15.49,0,0,1,12.77,6.45,23,23,0,0,1,3,6l.21.56a47.84,47.84,0,0,0,2.91,6.47l.31.6a442.3,442.3,0,0,0,24.75,43l5.51,8.15c9.19,13.14,18,23.55,26.08,30.81.68.62,1.3,1.18,1.95,1.72s1.42,1.18,2.12,1.73c.48.39.94.74,1.39,1.08l.41.29c1.46,1.1,3,2.19,4.62,3.23a16.32,16.32,0,0,1,6.18,19.77c-6,14.87-12.11,30.32-18.6,47.23-10.43,27.2-19.33,51.53-27.19,74.38-11.72,34-17.69,74-22.39,112.1-.66,5.34-1.21,10.82-1.64,16.28-.08,1.14-.08,2.65-.07,4.24,0,4.67,0,10.48-2.29,15.59-2.74,6.05-8.19,9.81-14.21,9.81h0a15.58,15.58,0,0,1-10.14-3.89l-.22-.19c-4.08-3.68-6.9-8.72-9.39-13.17-1.13-2-2.2-3.93-3.17-5.32-5.9-8.42-13.47-18.41-17.1-21.76-.72-.66-1.77-1.43-2.88-2.25-4.15-3-10.41-7.63-11.66-16.12-.78-5.15.83-9.67,1.9-12.67,8.33-23.5,17.47-48.33,27.72-75.36q-5.64,3.33-11.45,7.1l-3.27,8.65c-10,26.57-18.74,50.2-26.71,72.22-9.12,25.2-16.28,45.64-22.54,64.34L272,881.14c-8.17,24.36-16.62,49.55-19,75.05-.5,5.47-.79,11-.85,16.32C252.05,983,247.07,994.25,236.42,994.25ZM387.93,575.69a54.23,54.23,0,0,0-6.12,11.23c-1.15,2.72-2.2,5.51-3.31,8.46-1.19,3.18-2.42,6.46-3.83,9.74-1.85,4.31-3.51,8.69-5.27,13.33-.86,2.28-1.72,4.56-2.61,6.82q-8.24,21.09-16.36,42.2-.85,2.22-1.72,4.44,5.13-1.7,10.23-3.28,6.82-17.48,13.75-34.93c4.4-11.12,7.76-20.18,10.59-28.5.8-2.35,1.55-4.74,2.24-7.12,1.72-6,3.19-11.38,3.69-16.48.4-4.06-.08-6.13-.43-7C388.52,574.9,388.24,575.27,387.93,575.69Zm-12.05-90.37"/><path d="M356.72,474.91a5.93,5.93,0,0,1,4.91,2.41,17.34,17.34,0,0,1,2,4.33,56.68,56.68,0,0,0,3.49,7.73,1.92,1.92,0,0,0,.12.25,455.5,455.5,0,0,0,25.35,44l5.57,8.25c8.43,12.06,17.93,23.89,27.64,32.6.73.67,1.46,1.32,2.22,1.95s1.5,1.25,2.28,1.87c.57.46,1.16.9,1.73,1.33.09.06.17.13.27.19q2.54,1.92,5.18,3.63a6.59,6.59,0,0,1,2.48,8q-9.56,23.61-18.66,47.4c-9.5,24.76-18.68,49.63-27.31,74.7-12.21,35.47-18.22,76.59-22.84,114.07q-1,8.32-1.68,16.71c-.39,5,.55,12-1.53,16.58-1.18,2.61-3.19,4.14-5.4,4.14a6,6,0,0,1-3.88-1.6c-4.52-4.07-7.64-11.88-11.12-16.85-4-5.75-13.29-18.56-18.47-23.33-4.1-3.77-10.61-6.49-11.52-12.66-.41-2.72.53-5.43,1.44-8,11.79-33.23,24.14-66.23,36.82-99.11a280.57,280.57,0,0,0-37.59,21.22c-1.48,3.87-2.93,7.75-4.39,11.61q-13.59,36.1-26.75,72.35c-7.77,21.44-15.38,42.94-22.62,64.56-9,26.82-18.44,53.74-21.05,82.07q-.79,8.52-.89,17.1c-.05,4.37-1.82,12.18-6.08,12.18a6.3,6.3,0,0,1-4-2c-3.22-2.88-5.1-7-7.35-10.64-2.63-4.27-5.33-8.49-8.14-12.63a152.41,152.41,0,0,0-16-20.05c-5-5.15-15.25-10.9-16.36-18.52-.4-2.71.52-5.43,1.44-8,7.65-21.59,29-69.78,53.55-123.84,11.16-24.6,23-50.42,34.46-75.49,28.21-61.65,54.39-118.87,63.83-142.69,3.79-9.57,7.45-19.2,10.76-29,.84-2.5,1.64-5,2.37-7.55,1.12-3.92,2.24-8.2,3.08-12.61-2.11-.13-4.48-.22-7.13-.22C312.47,521.41,232,535.54,83.73,632a5.46,5.46,0,0,1-3,.9,5.61,5.61,0,0,1-5.32-3.84A16.25,16.25,0,0,1,79.6,612.2c10.37-9.86,27.47-30.29,26.13-56.89a9.86,9.86,0,0,1,6.12-9.52c25.27-10.52,117.8-45.54,229.44-45.54q6.68,0,13.44.17a31.47,31.47,0,0,0-2.76-8.57c-2-4-3.85-10.72-.51-14.59a7,7,0,0,1,5.26-2.35M332.17,688c11-4.12,22.36-8,34.07-11.5q7.68-19.65,15.44-39.25c3.79-9.57,7.45-19.2,10.76-29q1.29-3.76,2.38-7.56c1.69-5.89,3.42-12.07,4-18.2.43-4.31.32-9.42-1.89-13.26-1.71-3-4.38-6.18-8.14-6.18h-.11c-3.44,0-6.71,4.34-8.55,6.83a63.46,63.46,0,0,0-7.24,13.2c-2.54,6-4.56,12.18-7.13,18.16-2.88,6.71-5.34,13.64-8,20.45Q349.55,642.86,341.4,664q-4.63,12-9.23,24m24.55-232.45a26.24,26.24,0,0,0-19.91,9.07A27.25,27.25,0,0,0,330.34,481c-110,2.16-200.27,36.24-225.92,46.92a29.24,29.24,0,0,0-18,28.36c1,18.88-12.2,34.35-20.13,41.89a35.74,35.74,0,0,0-9.26,37,24.94,24.94,0,0,0,37.28,13.1c63.86-41.56,121.16-71.67,170.32-89.52,27.24-9.89,48.05-14.57,63.33-16.6-2.27,6.39-4.93,13.39-8.14,21.51-9.24,23.32-35.51,80.72-63.32,141.5l-.12.25c-11.88,26-23.46,51.25-34.48,75.56-30.74,67.75-47.45,106.41-54.17,125.36-1.2,3.38-3.45,9.71-2.35,17.28,1.87,12.84,11.58,20.81,18,26.08,1.3,1.07,2.93,2.4,3.56,3.06a133.44,133.44,0,0,1,14,17.51c2.36,3.47,4.8,7.25,7.67,11.91.44.7.85,1.42,1.27,2.15A48.52,48.52,0,0,0,219.46,997c6.36,5.7,12.73,6.9,17,6.9,14.53,0,25.22-13.17,25.43-31.31,0-5.11.32-10.34.8-15.55,2.25-24.37,10.15-47.92,18.51-72.84l1.63-4.87c5.49-16.4,11.69-34.18,19.32-55.39,3.53,5.92,8.58,9.63,11.79,12,.73.53,1.73,1.27,2.06,1.57,2.16,2,8.41,9.75,15.71,20.17.69,1,1.69,2.78,2.66,4.51,2.71,4.85,6.09,10.88,11.35,15.62l.43.38a25.15,25.15,0,0,0,16.41,6.2c9.87,0,18.69-5.94,23-15.5,3.19-7,3.17-14.3,3.15-19.61,0-1.33,0-2.71.05-3.46.41-5.32.95-10.65,1.59-15.83,4.64-37.6,10.51-77,21.94-110.15,7.84-22.78,16.7-47,27.08-74.07,6.43-16.77,12.49-32.16,18.53-47.06A26,26,0,0,0,448,567.23q-2.17-1.41-4.07-2.85l-.56-.41c-.33-.24-.66-.49-1-.75-.69-.55-1.29-1-1.87-1.53l-.17-.14c-.53-.44-1-.9-1.56-1.37l-.12-.11c-7.51-6.74-15.79-16.55-24.61-29.16l-5.42-8a435.54,435.54,0,0,1-24.1-41.82l-.1-.21-.08-.15-.3-.59a36.55,36.55,0,0,1-2.31-5.14l-.21-.57a33,33,0,0,0-4.29-8.46,25.38,25.38,0,0,0-20.56-10.39Z"/><path class="cls-1" d="M609.54,868.88a6.46,6.46,0,0,1-6.4-7.3l3.64-27.15a6.45,6.45,0,0,1,5.9-5.57l6.19-.48c.42,0,.84,0,1.24,0,6.36,0,10.95,4.16,11.42,10.35a16.22,16.22,0,0,1-.1,3.31l-1.84,13.76c-1,7.45-5.59,12-12.69,12.59l-6.87.53Z"/><path d="M620.11,834.78c3,0,4.78,1.56,5,4.39a9.93,9.93,0,0,1-.07,2L623.2,854.9c-.58,4.46-2.67,6.69-6.8,7l-6.86.53,3.64-27.15,6.18-.48.75,0m-5.75,23.45,1.87-.15c1.48-.11,2.37-1.1,2.65-3L620.79,841a5.59,5.59,0,0,0,0-1,1.28,1.28,0,0,0-1.46-1.3h-.25l-2.18.17-2.58,19.39m5.75-36.35c-.56,0-1.14,0-1.74.07l-6.18.47a12.91,12.91,0,0,0-11.8,11.15l-3.64,27.15a12.9,12.9,0,0,0,12.78,14.61q.5,0,1,0l6.87-.53c10.27-.79,17.22-7.59,18.6-18.21l1.83-13.68a22.75,22.75,0,0,0,.14-4.7c-.73-9.59-8.07-16.3-17.85-16.3Z"/><path class="cls-1" d="M625,867.7a6.46,6.46,0,0,1-6.4-7.31l3.65-27.15a6.43,6.43,0,0,1,5.9-5.57l4.27-.33.49,0a6.46,6.46,0,0,1,6.4,7.31l-3.65,27.15a6.43,6.43,0,0,1-5.89,5.57l-4.28.33Z"/><path d="M632.94,833.77h0m0,0-3.64,27.15-4.27.33,3.64-27.15,4.27-.33m0-12.9h-.21c-.31,0-.62,0-.92,0l-4.13.32a12.9,12.9,0,0,0-11.81,11.15l-3.64,27.14A12.9,12.9,0,0,0,625,874.15c.33,0,.66,0,1,0l4.27-.33a12.89,12.89,0,0,0,11.8-11.14l3.58-26.72a12.73,12.73,0,0,0,.18-2.15A12.9,12.9,0,0,0,633,820.87Zm0,25.8h0Z"/><path class="cls-1" d="M637.57,867.09c-6.59,0-11.16-4.13-11.65-10.51a16.76,16.76,0,0,1,.14-3.88l.1-.77a6.43,6.43,0,0,1,3.31-4.83,15.15,15.15,0,0,1-1.56-5.61,14.43,14.43,0,0,1,2.75-10,12.8,12.8,0,0,1,9.58-5.09c.49,0,1-.05,1.39-.05,6.58,0,11.15,4.11,11.64,10.47a18.9,18.9,0,0,1-.15,3.72l-.1.66a6.47,6.47,0,0,1-3.27,4.7,15.65,15.65,0,0,1-1,15.95A12.89,12.89,0,0,1,639,867C638.49,867.07,638,867.09,637.57,867.09Z"/><path d="M641.64,832.76c3.23,0,5,1.5,5.2,4.52a13.44,13.44,0,0,1-.12,2.42l-.08.51-4,.31.14-1.17a5.66,5.66,0,0,0,0-1.15,1.55,1.55,0,0,0-1.75-1.58h-.29c-1.72.13-2.36,1.72-2.21,3.66a7.88,7.88,0,0,0,2.7,4.78c2.29,2.33,3.55,4.69,3.73,7.09a8.55,8.55,0,0,1-1.47,5.87,6.49,6.49,0,0,1-5,2.57c-.32,0-.62,0-.92,0-3.26,0-5-1.51-5.22-4.56a10.08,10.08,0,0,1,.08-2.38l.13-.94,4-.3-.18,1.66a4.66,4.66,0,0,0,0,1,1.58,1.58,0,0,0,1.8,1.62h.31c1.72-.14,2.5-1.46,2.31-3.94a8,8,0,0,0-2.71-4.9c-2.28-2.21-3.54-4.53-3.72-6.93a8,8,0,0,1,1.45-5.64,6.48,6.48,0,0,1,5-2.57l.9,0m0-12.9h0c-.62,0-1.25,0-1.89.07a19.35,19.35,0,0,0-14.26,7.67A21.73,21.73,0,0,0,622,845.33a12.88,12.88,0,0,0-2.24,5.75l-.11.8a23,23,0,0,0-.17,5.19c.75,9.85,8,16.47,18.08,16.47.62,0,1.26,0,1.9-.08a19.42,19.42,0,0,0,14.4-7.74l.1-.14a21.36,21.36,0,0,0,3.87-14.41,21.14,21.14,0,0,0-.59-3.63,12.78,12.78,0,0,0,2.14-5.38l.08-.51c0-.13,0-.26,0-.38a25.3,25.3,0,0,0,.18-5c-.74-9.69-8.17-16.45-18.06-16.45Z"/><path class="cls-1" d="M646.36,866.07a6.44,6.44,0,0,1-6.39-7.31l3.64-27.15a6.43,6.43,0,0,1,5.9-5.57l11.44-.88.5,0a6.45,6.45,0,0,1,6.38,7.35l-.54,3.88a6.38,6.38,0,0,0-2.43,7.23l-.51,3.88a6.46,6.46,0,0,0,.36,8.22l-.51,3.88a6.44,6.44,0,0,1-5.9,5.59l-11.45.88Z"/><path d="M661.45,831.59l-.55,3.88-7.13.55-.95,7.17,5.65-.43-.51,3.88-5.65.43-1.13,8.34,7.14-.55-.51,3.88-11.45.88L650,832.47l11.45-.88m-3,11.17h0m3-24.07c-.33,0-.66,0-1,0l-11.44.88a12.89,12.89,0,0,0-11.8,11.14l-3.65,27.15a12.92,12.92,0,0,0,12.79,14.62c.33,0,.65,0,1,0l11.45-.88a12.9,12.9,0,0,0,11.81-11.18l.51-3.88a12.91,12.91,0,0,0-.76-6.32,13.35,13.35,0,0,0,.4-1.9l.45-3.45a12.73,12.73,0,0,0,.17-1.86,12.89,12.89,0,0,0,2.31-5.74l.54-3.88a12.9,12.9,0,0,0-12.77-14.7Z"/><path class="cls-1" d="M659.94,865a6.46,6.46,0,0,1-6.39-7.31l3.64-27.15a6.45,6.45,0,0,1,5.9-5.57l5.08-.39.5,0a6.65,6.65,0,0,1,1.67.22,6.43,6.43,0,0,1,2.1-.53l3.82-.29.49,0a6.46,6.46,0,0,1,6.4,7.31l-3.65,27.15a6.44,6.44,0,0,1-5.9,5.57l-4.12.32H669a5.38,5.38,0,0,0-4.73.39l-3.82.29Z"/><path d="M676.75,830.42h0m0,0-3.64,27.15-4.12.31-2.56-19.41-2.67,19.81-3.82.3,3.65-27.15,5.07-.39L670.72,847l2.22-16.25,3.81-.29m0-12.9h-.23c-.3,0-.6,0-.89.05l-3.68.28a13.39,13.39,0,0,0-2.12.34c-.38,0-.77-.05-1.16-.05s-.66,0-1,0l-5.08.39a12.89,12.89,0,0,0-11.8,11.14l-3.64,27.15a12.92,12.92,0,0,0,12.78,14.62c.33,0,.66,0,1,0l3.81-.29a13.11,13.11,0,0,0,2.6-.47,12.67,12.67,0,0,0,1.64.1l1,0,4.13-.32a12.89,12.89,0,0,0,11.8-11.15l3.58-26.72a12.61,12.61,0,0,0,.18-2.14,12.9,12.9,0,0,0-12.83-12.9Z"/><path class="cls-1" d="M667.55,835.72a6.37,6.37,0,0,1-3.57-1.08l-2.06-1.37a6.44,6.44,0,0,1-2.21-8.19c2.62-5.39,6.22-6.75,8.77-6.94.17,0,.52,0,.69,0a9.14,9.14,0,0,1,1.73.17,6,6,0,0,1,1.24-.49,6.77,6.77,0,0,1,1.79-.24,6.33,6.33,0,0,1,3.48,1l2.1,1.38a6.45,6.45,0,0,1,2.27,8.22c-2.62,5.38-6.22,6.75-8.77,6.94-.17,0-.53,0-.7,0a9.12,9.12,0,0,1-1.72-.17,7.06,7.06,0,0,1-1.17.49A6.71,6.71,0,0,1,667.55,835.72Z"/><path d="M673.88,824l2.1,1.38c-1,2.11-2.21,3.24-3.47,3.33h-.2a3.49,3.49,0,0,1-2-.76,1.66,1.66,0,0,0-.94-.43h-.05c-.69,0-1.26.63-1.74,1.78l-2.07-1.38c1-2.11,2.21-3.24,3.47-3.33h.2a3.39,3.39,0,0,1,2,.76,1.63,1.63,0,0,0,.94.42h0c.57,0,1.14-.62,1.71-1.78m0-12.9a12.63,12.63,0,0,0-3.44.47l-.51.15-.76,0c-.4,0-.8,0-1.19.05-3.45.26-9.9,2-14.07,10.54a12.89,12.89,0,0,0,4.43,16.38L660.4,840a12.91,12.91,0,0,0,10.86,1.63l.26-.08.79,0c.4,0,.79,0,1.19-.05,3.47-.26,9.91-2,14.08-10.55A12.9,12.9,0,0,0,683,814.54l-2.1-1.38a13,13,0,0,0-7.06-2.1Z"/><path class="cls-1" d="M682.33,863.67c-6.81,0-11.72-4.38-12.22-10.9a15.59,15.59,0,0,1,.13-3.38l1.93-14.29c.87-6.94,5.53-11.6,12.15-12.11.45,0,.88,0,1.3,0,6.81,0,11.72,4.38,12.22,10.89a15.7,15.7,0,0,1-.13,3.4l-1.92,14.31c-1,7.07-5.54,11.57-12.16,12.08C683.18,863.65,682.75,863.67,682.33,863.67Z"/><path d="M685.62,829.39c3.36,0,5.54,1.72,5.79,4.94a9.08,9.08,0,0,1-.08,2l-1.94,14.35c-.57,4.07-2.63,6.23-6.25,6.51l-.81,0c-3.36,0-5.54-1.72-5.79-4.94a8.88,8.88,0,0,1,.08-2L678.56,836c.5-4,2.74-6.27,6.25-6.54l.81,0m-2.86,24h.31c1.19-.09,1.85-1,2.08-2.54l2-14.85a4.54,4.54,0,0,0,0-1,1.71,1.71,0,0,0-1.93-1.76h-.32q-1.77.13-2.1,2.58l-2,14.85a3.82,3.82,0,0,0-.05.93,1.74,1.74,0,0,0,2,1.75m2.86-36.87c-.58,0-1.18,0-1.79.07-9.69.74-16.78,7.7-18.06,17.73l-1.92,14.26a21.41,21.41,0,0,0-.17,4.71c.76,9.93,8.43,16.86,18.65,16.86.58,0,1.18,0,1.79-.07,9.72-.75,16.64-7.49,18-17.58l1.94-14.42a21.85,21.85,0,0,0,.16-4.71c-.76-9.92-8.43-16.85-18.65-16.85Z"/><path class="cls-1" d="M709.38,861.6c-6.76,0-11.63-4.32-12.13-10.75a17.39,17.39,0,0,1,.1-3.43L699.29,833c1-7.07,5.49-11.57,12-12.07.48,0,.94,0,1.39,0,6.79,0,11.51,4.22,12,10.75a16.56,16.56,0,0,1-.1,3.43l-.2,1.66a6.81,6.81,0,0,0-.43,3.16l-1.31,9.58c-.92,7.06-5.39,11.59-11.95,12.09Q710,861.6,709.38,861.6Z"/><path d="M712.72,827.32c3.44,0,5.34,1.69,5.57,4.8a9.75,9.75,0,0,1-.07,2.07l-.21,1.75-4,.31.31-2.45a4.49,4.49,0,0,0,0-1,1.67,1.67,0,0,0-1.87-1.73l-.29,0c-1.23.09-2,1-2.19,2.54l-2,15a3.94,3.94,0,0,0,0,1,1.65,1.65,0,0,0,1.86,1.69h.3c1.26-.1,2-.92,2.23-2.52l.76-5.58-2.14.16.51-3.88,6.19-.47-1.31,9.58c-.53,4.07-2.55,6.26-6.06,6.53l-.86,0c-3.29,0-5.44-1.58-5.69-4.79a11.34,11.34,0,0,1,.07-2.15l1.94-14.35c.56-4.08,2.59-6.23,6.14-6.5l.89,0m0-12.9h0c-.61,0-1.23,0-1.88.07-9.65.74-16.52,7.47-17.93,17.57L691,846.47l0,.18a24.78,24.78,0,0,0-.12,4.69c.76,9.84,8.39,16.7,18.55,16.7.6,0,1.21,0,1.84-.07,9.69-.74,16.54-7.53,17.87-17.71l1.3-9.52a11.54,11.54,0,0,0,.11-1.55,11.88,11.88,0,0,0,.33-1.7l.2-1.68a23.05,23.05,0,0,0,.14-4.68c-.76-9.84-8.34-16.71-18.44-16.71Z"/><path class="cls-1" d="M718.1,860.57a6.44,6.44,0,0,1-6.39-7.3l3.64-27.15a6.43,6.43,0,0,1,5.9-5.57l6.14-.47c.42,0,.83-.05,1.23-.05,6.23,0,10.73,4.08,11.2,10.16a16.83,16.83,0,0,1-.11,3.38l-.17,1.33a16.75,16.75,0,0,1-1.63,5.64,12.53,12.53,0,0,1,.32,2,14.73,14.73,0,0,1-.16,3.71l-.61,4.63c-.06.44-.1.8-.13,1.07a6.44,6.44,0,0,1-5.84,7.63l-4.16.32-.5,0a5.19,5.19,0,0,0-4,.32l-4.27.33Z"/><path d="M728.62,826.48c2.87,0,4.55,1.43,4.77,4.21a10.81,10.81,0,0,1-.08,2.08l-.16,1.32c-.41,3.25-1.43,5-3.55,5.72v0c1.33.32,2.06,1.38,2.2,3.17a9.32,9.32,0,0,1-.1,2.23l-.63,4.77a14.87,14.87,0,0,0-.2,2.44c0,.15.07.38.13.68l-4.16.32c-.08-.46-.14-.8-.15-1a11.86,11.86,0,0,1,.15-2.47l.66-5a7,7,0,0,0,.1-1.62c-.07-1-.51-1.4-1.61-1.4l-.53,0-1.52.11-1.57,11.64-4.27.32L721.74,827l6.14-.47.74,0m-4.17,11.8,1.26-.09q2.58-.2,3-3.23l.3-2.1a4.7,4.7,0,0,0,.06-1.23,1.26,1.26,0,0,0-1.45-1.26h-.26l-1.91.15-1,7.75m4.17-24.7c-.56,0-1.13,0-1.72.07l-6.14.46A12.91,12.91,0,0,0,709,825.26l-3.64,27.15A12.9,12.9,0,0,0,718.1,867l1,0,4.28-.33a13.41,13.41,0,0,0,2.21-.36c.42,0,.83.06,1.26.06s.66,0,1,0L732,866a12.89,12.89,0,0,0,11.85-14.13.77.77,0,0,0,0-.15l.6-4.53a21.65,21.65,0,0,0,.21-5.17c0-.23,0-.46-.07-.68a24.82,24.82,0,0,0,1.36-5.67l.16-1.27a23.89,23.89,0,0,0,.14-4.66c-.73-9.53-8-16.16-17.63-16.16Z"/><path class="cls-1" d="M732.37,859.48a6.44,6.44,0,0,1-6.19-8.25l8-27.48a6.44,6.44,0,0,1,5.7-4.63l5.8-.44a4.18,4.18,0,0,1,.5,0,6.44,6.44,0,0,1,6.44,6.28l.71,26.81a6.45,6.45,0,0,1-6,6.6l-4.28.33-.49,0a5.53,5.53,0,0,0-5.69.45l-4,.31A4,4,0,0,1,732.37,859.48Z"/><path d="M746.16,825.11l.71,26.81-4.27.33,0-5.26-4.73.36-1.43,5.37-4,.31,8-27.48,5.8-.44m-7.29,18.52,3.66-.28,0-13.09-3.62,13.37m7.29-31.42c-.32,0-.65,0-1,0l-5.8.44A12.9,12.9,0,0,0,728,822l-8,27.48a12.9,12.9,0,0,0,12.39,16.5c.33,0,.66,0,1,0l4-.31a9.42,9.42,0,0,1,5.2-.43c.33,0,.65,0,1,0l4.28-.33a12.9,12.9,0,0,0,11.91-13.2l-.71-26.81a12.91,12.91,0,0,0-12.9-12.56Z"/><path class="cls-1" d="M741.08,830.29a6.44,6.44,0,0,1-5.48-9.85L739,815a6.49,6.49,0,0,1,5-3l4.77-.36.49,0a6.44,6.44,0,0,1,4.88,10.66l-4.79,5.55a6.44,6.44,0,0,1-4.39,2.22l-3.36.26Z"/><path d="M749.23,818h0m0,0-4.79,5.55-3.36.26,3.38-5.45,4.77-.36m0-12.9h-.34l-.78.05-4.63.35a12.91,12.91,0,0,0-10,6.05L730.12,817a12.9,12.9,0,0,0,11,19.71l1,0,3.36-.26A12.89,12.89,0,0,0,754.2,832l4.63-5.36a12.9,12.9,0,0,0-9.34-21.52Zm0,25.8h0Z"/><path class="cls-1" d="M748.74,858.23a6.44,6.44,0,0,1-6.39-7.31L746,823.77a6.46,6.46,0,0,1,5.9-5.57l11.11-.85.49,0a6.46,6.46,0,0,1,6.39,7.35l-.55,3.88a6.37,6.37,0,0,0-2.48,7.61l-.51,3.88a6.45,6.45,0,0,1-5.9,5.6h-.1l-.89,6.66a6.45,6.45,0,0,1-5.91,5.57l-4.31.33Z"/><path d="M763.49,823.78h0m0,0-.55,3.88-6.79.52-1,7.56,5.31-.4-.51,3.87-5.31.41-1.59,11.83-4.31.33,3.64-27.15,11.11-.85m0-12.9h-.26c-.29,0-.58,0-.86,0l-11,.84a12.89,12.89,0,0,0-11.8,11.15L736,850.06a12.89,12.89,0,0,0,12.78,14.62c.33,0,.66,0,1,0l4.31-.33a12.89,12.89,0,0,0,11.8-11.14l.36-2.67a12.89,12.89,0,0,0,6.54-9.6l.51-3.88a14.68,14.68,0,0,0,.11-1.75,12.82,12.82,0,0,0,2.35-5.81l.49-3.45a12.58,12.58,0,0,0,.19-2.23,12.89,12.89,0,0,0-12.81-12.9Z"/><path class="cls-1" d="M761.75,857.23a6.44,6.44,0,0,1-6.39-7.3L759,822.78a6.47,6.47,0,0,1,5.9-5.58l4.28-.32.49,0a6.44,6.44,0,0,1,6.39,7.31l-3.64,27.14a6.47,6.47,0,0,1-5.9,5.58l-4.27.32A4.18,4.18,0,0,1,761.75,857.23Z"/><path d="M769.67,823.31h0m0,0L766,850.46l-4.28.32,3.64-27.14,4.28-.33m0-12.9h-.22c-.31,0-.61,0-.9.05l-4.14.31a12.9,12.9,0,0,0-11.8,11.15L749,849.07a12.9,12.9,0,0,0,12.78,14.61l1,0,4.27-.33a12.9,12.9,0,0,0,11.8-11.15l3.59-26.72a13.73,13.73,0,0,0,.17-2.14,12.88,12.88,0,0,0-12.83-12.9Zm0,25.8h0Z"/><path class="cls-1" d="M775,856.57c-6.78,0-11.49-4.21-12-10.72a15.74,15.74,0,0,1,.11-3.33l2-14.69c.91-6.87,5.52-11.45,12-12,.46,0,.91,0,1.34,0,6.65,0,11.45,4.29,11.93,10.69a15.86,15.86,0,0,1-.11,3.43l-.29,2.18a6.45,6.45,0,0,1-2,3.88,6.52,6.52,0,0,1,.89,4.17l-.55,4.34c-.88,7-5.36,11.49-12,12C775.92,856.55,775.47,856.57,775,856.57Z"/><path d="M778.5,822.28c3.4,0,5.27,1.73,5.5,4.73a9.4,9.4,0,0,1-.07,2l-.29,2.25-4,.31.39-3a3.42,3.42,0,0,0,0-.89,1.64,1.64,0,0,0-1.86-1.65h-.3c-1.18.1-1.85.91-2.08,2.43l-2.06,15.17a3.08,3.08,0,0,0-.05.84,1.65,1.65,0,0,0,1.86,1.69h.3A2.27,2.27,0,0,0,778,843.9l.52-4.23,4-.3-.55,4.34c-.5,4-2.53,6.1-6.08,6.37a8.71,8.71,0,0,1-.87,0c-3.42,0-5.32-1.7-5.55-4.76a10,10,0,0,1,.07-2l2-14.66c.51-3.84,2.64-6.11,6.12-6.38l.84,0m0-12.9c-.59,0-1.2,0-1.83.07-9.56.73-16.59,7.62-17.92,17.53l-2,14.64a22.4,22.4,0,0,0-.15,4.73c.75,9.81,8.32,16.67,18.41,16.67.6,0,1.22,0,1.86-.07,9.76-.75,16.62-7.51,17.89-17.64l.55-4.32a13,13,0,0,0-.12-4,12.61,12.61,0,0,0,1.22-4l.28-2.18a22.39,22.39,0,0,0,.15-4.76c-.74-9.78-8.3-16.63-18.36-16.63Z"/><path class="cls-1" d="M789.75,855.44c-6.81,0-11.72-4.38-12.22-10.89a15.41,15.41,0,0,1,.13-3.36l1.93-14.31c.86-6.94,5.53-11.61,12.15-12.11.45,0,.88,0,1.3,0,6.81,0,11.72,4.37,12.22,10.89a15.86,15.86,0,0,1-.13,3.42l-1.93,14.29c-1,7.07-5.53,11.57-12.15,12.07-.45,0-.88.05-1.3.05Z"/><path d="M793,821.16c3.36,0,5.54,1.72,5.79,4.94a9.14,9.14,0,0,1-.08,2l-1.94,14.35c-.57,4.07-2.63,6.23-6.25,6.5l-.81,0c-3.36,0-5.54-1.71-5.79-4.94a8.79,8.79,0,0,1,.08-2L786,827.74c.5-4,2.74-6.27,6.25-6.54.28,0,.55,0,.81,0m-2.86,24h.31c1.19-.09,1.85-1,2.07-2.54l2-14.85a4.54,4.54,0,0,0,0-1,1.72,1.72,0,0,0-1.93-1.77l-.32,0q-1.77.13-2.1,2.58l-2,14.85a3.77,3.77,0,0,0,0,.92,1.74,1.74,0,0,0,2,1.76M793,808.27c-.58,0-1.18,0-1.79.07-9.69.74-16.78,7.69-18.06,17.72l-1.93,14.31a21.62,21.62,0,0,0-.16,4.68c.76,9.91,8.43,16.84,18.65,16.84.58,0,1.18,0,1.79-.07,9.71-.74,16.63-7.47,18.05-17.57l1.94-14.42a21.79,21.79,0,0,0,.16-4.71c-.76-9.93-8.43-16.85-18.65-16.85Z"/><path class="cls-2" d="M1005.25,853.87c-.94-5-4.87-8.93-8.38-12.69-12.75-13.59-22.88-30.87-23.07-49.5,0-3.58.24-7.46-1.74-10.44-1.85-2.78-5.18-4.12-8.31-5.27-45.94-16.93-91.4-21.7-140.12-21.77-76.75-.09-153.56,3.57-230.16,8,.73-2.32,1.79-5.61,2.42-7.54,19.88-61.13,47.46-129.95,55.16-148.95a6.62,6.62,0,0,0-2.5-8c-13.13-8.55-24.52-20.35-30-35.28a17.35,17.35,0,0,0-2-4.34c-2.41-3.35-7.59-3.05-10.19,0-3.34,3.86-1.5,10.55.53,14.58,6.35,12.65,2.63,29.48-1.06,42.39-.73,2.54-2.81,8.73-3.65,11.23-3.31,9.76-7,19.39-10.77,29Q582.7,677.41,574,699.67l-.1.09c-.1.07-51.5,40.33-56.35,27.75-3.06-7.94,2.61-34.36,7.23-52.85h.05c1.16-.34,2.32-.65,3.49-.94,6.85-1.74,13-5.13,18.91-9a172.62,172.62,0,0,0,18.2-13.64c3.63-3.07,8.77-6.85,13.51-11.16,6.82-6.21,12.8-13.5,12.22-21.34-.29-3.91-2.58-7.35-4.3-10.9a40,40,0,0,1-3.39-23.56,24.26,24.26,0,0,0-.39-10.92c-.66-2.13-1.86-4.54-3.83-5.75a8.94,8.94,0,0,0-2.76-1,25,25,0,0,0-5.8-.3,33.51,33.51,0,0,0-5.65.66,47.14,47.14,0,0,0-7.91,2.39,63.16,63.16,0,0,0-8.14,4,84.38,84.38,0,0,0-8.25,5.49,105.82,105.82,0,0,0-8.23,6.9c-2.83,2.61-5.52,5.35-8.11,8.2q-4.11,4.54-7.87,9.44c-2.64,3.42-5.13,6.95-7.51,10.56q-3.71,5.67-7,11.6-3.45,6.17-6.46,12.54c-10.21,21.62-16,44.27-16.31,67.74C464.57,717.52,452,738.89,452,738.89c8-58.23,63-195.88,74.55-224.45a6.6,6.6,0,0,0-2.5-8c-13.13-8.55-24.51-20.35-29.94-35.28a17.7,17.7,0,0,0-2-4.33c-2.41-3.35-7.58-3.06-10.18-.06-3.34,3.87-1.51,10.57.52,14.6,6.35,12.64,2.64,29.48-1.05,42.38-.73,2.54-1.53,5.06-2.38,7.56-3.31,9.75-7,19.38-10.76,29-21.71,54.82-43,109.75-62.71,165.33-.91,2.59-1.84,5.3-1.44,8,.91,6.17,7.41,8.89,11.52,12.67,5.18,4.76,8.76,11.71,12.78,17.45,3.49,5,6.62,12.78,11.12,16.85,0,0,5.36,4.85,8.75-1.69C451.38,773,453.66,746,480,722.78c0,.07,0,.13,0,.2.63,6.29,2,12.95,6.58,17.65,5.88,6.06,15.12,7.08,23.14,7.08,20.92,0,39.41-11.62,55.21-24.52q-8,20.8-15.83,41.67c-.28.76-.57,1.51-.85,2.27a.1.1,0,0,1,0,0s0,0,0,.06c-12,2.2-24.88,2.17-36.89,2.54-11.28.36-22.49.83-33.82.53-2.93-.08-6.22.34-6.86,3.81-.88,5.25,5.13,8,8.76,9.94,7.35,4,14.83,7.75,21.67,12.61A125.12,125.12,0,0,1,514.76,808c1.74,1.65,3.46,3.34,5.12,5.08a160.15,160.15,0,0,1,11,12.87,235.64,235.64,0,0,1,17,25.56c2.48,4.26,4.89,8.59,7.25,12.93,2.12,3.94,4.23,8.06,7.6,11.12a6.3,6.3,0,0,0,4.55,1.71,4.09,4.09,0,0,0,2.42-1c1.43-1.27,1.78-3.52,1.87-5.58.57-12.3,1.86-24.61,3.6-36.81a285.23,285.23,0,0,1,7-33.36l1.21-4.51.22,0c4.58-.6,78.76-10,177.66-.23C815.17,801,876.36,812,937.64,833.09l.45.14a189.21,189.21,0,0,1,28.76,11.86,179,179,0,0,1,21,12.75c4.75,3.38,11,10.71,15.92,2.9A9.88,9.88,0,0,0,1005.25,853.87ZM569,600.05c.89,16.6,7.43,22.46,7.43,22.46-24.41,29.42-46.55,33.14-46.55,33.14C546.5,618.73,569,600.05,569,600.05Z"/><path class="cls-2" d="M625.59,533.67c9.09,5.92,17.34,13.38,23.36,22.38a59.36,59.36,0,0,1,6.59,12.89,17.58,17.58,0,0,0,2,4.34c2.42,3.36,7.58,3.06,10.18.07,3.34-3.88,1.52-10.57-.51-14.61-6.25-12.43-2.75-28.94.88-41.74,2-5,3.66-9.07,4.84-12a6.7,6.7,0,0,0,.37-3.79,6.53,6.53,0,0,0-2.85-4.23c-9.1-5.92-17.35-13.38-23.37-22.38a60.26,60.26,0,0,1-6.59-12.89,17.55,17.55,0,0,0-2-4.34c-2.42-3.36-7.59-3.06-10.19-.07-3.34,3.88-1.52,10.57.51,14.61,6.23,12.37,2.8,28.78-.81,41.55,0,0,0,.06,0,.07-2,5.07-3.69,9.18-4.88,12.12a6.7,6.7,0,0,0-.36,3.79A6.45,6.45,0,0,0,625.59,533.67Z"/><path class="cls-2" d="M646.09,689.31c1.37,15.37,8.44,30.82,21.28,39.4a33.26,33.26,0,0,0,17.65,5.9c15.15.28,30.24-10.78,40.18-21.31,16.06-17,27.38-40.07,34-62.34a184.91,184.91,0,0,0,6.58-38.44c90.46-7.46,161.82-34.59,183.53-43.63a9.85,9.85,0,0,0,6.12-9.52c-1.34-26.59,15.76-47,26.13-56.88a16.26,16.26,0,0,0,4.22-16.88,5.59,5.59,0,0,0-8.35-2.94C878.67,547,810,574.67,765,586c-2.9-18.67-11.61-33.49-31.47-33.2-10.83.16-21.24,5.69-30.61,13.56-23.59,19.83-39.67,48.76-49.5,77.56C648.41,658.54,644.72,673.93,646.09,689.31Zm78.17-110.69c2-1,4.48-1.47,6.41-.34,2.15,1.27,2.92,4,3.32,6.45a55.76,55.76,0,0,1,.68,7.16,160.21,160.21,0,0,1-21.17,1.38c1.19-2.5,2.46-4.95,3.87-7.29C719.13,583.06,721.25,580.22,724.26,578.62Zm-45.92,109c5.41-22.11,15.29-42.65,23.4-63.83,1.19-3.11,2.32-6.3,3.46-9.51q13.45.38,26.56.08c-2.74,10.5-6.91,20.8-10.49,30.53-.25.69-.5,1.37-.76,2.06q-7.1,19.15-15.06,38c-3.1,7.32-10.35,32.52-23.12,25.67C674.29,706.25,676.6,694.69,678.34,687.57Z"/><path class="cls-2" d="M439.9,591a6.58,6.58,0,0,0-2.49-8c-1.76-1.14-3.48-2.35-5.18-3.63l-.27-.19c-.57-.43-1.15-.87-1.72-1.33-.78-.62-1.54-1.23-2.28-1.87s-1.49-1.28-2.22-2c-9.71-8.71-19.22-20.54-27.64-32.6l-5.58-8.25a453.71,453.71,0,0,1-25.34-44c-.05-.08-.08-.16-.13-.26a56.63,56.63,0,0,1-3.48-7.73,17.84,17.84,0,0,0-2-4.32c-2.41-3.36-7.59-3.06-10.17-.07-3.35,3.87-1.52,10.57.5,14.59a31.15,31.15,0,0,1,2.77,8.57c-117.6-3-216.6,34.44-242.88,45.38a9.84,9.84,0,0,0-6.13,9.51c1.35,26.6-15.76,47-26.13,56.89a16.25,16.25,0,0,0-4.21,16.88,5.59,5.59,0,0,0,8.35,2.94C243.4,527.63,324.42,519.26,354,521.16c-.85,4.42-2,8.69-3.08,12.61-.73,2.53-1.54,5.05-2.38,7.56-3.31,9.75-7,19.38-10.75,28.95-9.44,23.82-35.63,81-63.84,142.69-11.48,25.07-23.3,50.89-34.45,75.49-24.54,54.06-45.9,102.25-53.55,123.84-.92,2.58-1.84,5.3-1.45,8,1.11,7.62,11.41,13.37,16.37,18.52a152.17,152.17,0,0,1,16,20c2.82,4.14,5.51,8.37,8.14,12.63,2.25,3.64,4.14,7.76,7.35,10.64,7.21,6.46,10.06-4.65,10.12-10.21q.11-8.58.89-17.11c2.61-28.32,12.09-55.25,21-82.07,7.24-21.62,14.86-43.12,22.62-64.56q13.13-36.26,26.76-72.34c1.45-3.87,2.91-7.75,4.38-11.61A282,282,0,0,1,355.74,703c-12.67,32.88-25,65.88-36.81,99.11-.92,2.58-1.85,5.29-1.44,8,.9,6.16,7.41,8.88,11.51,12.65,5.18,4.77,14.45,17.58,18.48,23.33,3.48,5,6.6,12.78,11.11,16.86,3.52,3,7.43,1.56,9.29-2.55,2.08-4.59,1.13-11.57,1.52-16.58q.66-8.37,1.69-16.71c4.62-37.48,10.63-78.6,22.84-114.07,8.63-25.07,17.81-49.94,27.3-74.7Q430.37,614.61,439.9,591Zm-41.11-8.9c-.6,6.13-2.32,12.31-4,18.2-.73,2.54-1.52,5.05-2.38,7.56-3.31,9.76-7,19.39-10.75,28.95Q373.87,656.43,366.2,676c-11.71,3.52-23.08,7.39-34.08,11.5q4.59-12,9.24-24,8.14-21.13,16.38-42.23c2.66-6.82,5.11-13.75,8-20.45,2.56-6,4.59-12.18,7.12-18.17a63.93,63.93,0,0,1,7.24-13.2c1.84-2.48,5.12-6.78,8.56-6.82,3.81-.07,6.52,3.16,8.25,6.17C399.11,572.66,399.22,577.77,398.79,582.08Z"/><path class="cls-2" d="M625.06,838.7c-.23-3.05-2.23-4.62-5.75-4.35l-6.18.47L609.49,862l6.87-.53c4.12-.31,6.21-2.55,6.79-7L625,840.71A10.09,10.09,0,0,0,625.06,838.7Zm-4.31,1.83-1.92,14.12c-.28,1.86-1.16,2.85-2.65,3l-1.87.14,2.59-19.39,2.17-.17c1.07-.08,1.64.34,1.71,1.29A6.42,6.42,0,0,1,620.75,840.53Z"/><polygon class="cls-2" points="628.63 833.63 624.98 860.78 629.26 860.45 632.9 833.31 628.63 833.63"/><path class="cls-2" d="M641.21,844.61a8,8,0,0,1-2.71-4.79c-.15-1.94.5-3.53,2.22-3.66,1.26-.09,1.95.43,2,1.57a7.74,7.74,0,0,1,0,1.16l-.14,1.16,4-.31.08-.5a12.71,12.71,0,0,0,.12-2.43c-.25-3.28-2.28-4.78-6.1-4.48a6.4,6.4,0,0,0-4.94,2.56,7.89,7.89,0,0,0-1.45,5.64,10.89,10.89,0,0,0,3.71,6.93,8,8,0,0,1,2.72,4.9c.19,2.48-.59,3.81-2.31,3.94-1.33.1-2-.42-2.12-1.61a5.29,5.29,0,0,1,0-1l.18-1.67-4,.31-.12.93a10.09,10.09,0,0,0-.09,2.38c.26,3.32,2.29,4.82,6.15,4.52a6.51,6.51,0,0,0,5-2.57,8.6,8.6,0,0,0,1.47-5.87C644.75,849.29,643.5,846.93,641.21,844.61Z"/><polygon class="cls-2" points="657.91 846.17 658.42 842.29 652.77 842.72 653.72 835.55 660.86 835 661.4 831.12 649.96 832 646.31 859.15 657.76 858.27 658.27 854.39 651.14 854.94 652.26 846.6 657.91 846.17"/><polygon class="cls-2" points="672.89 830.24 670.68 846.5 668.62 830.57 663.54 830.96 659.9 858.11 663.72 857.82 666.38 838 668.95 857.42 673.07 857.1 676.71 829.95 672.89 830.24"/><path class="cls-2" d="M669.27,827a1.57,1.57,0,0,1,1,.42,3.25,3.25,0,0,0,2.21.75c1.26-.09,2.44-1.22,3.46-3.33l-2.1-1.38c-.56,1.16-1.13,1.74-1.7,1.78a1.53,1.53,0,0,1-1-.42,3.34,3.34,0,0,0-2.21-.75c-1.26.09-2.44,1.22-3.47,3.34l2.06,1.37C668,827.66,668.58,827.08,669.27,827Z"/><path class="cls-2" d="M684.77,829c-3.51.27-5.76,2.55-6.26,6.54l-1.93,14.36a8.77,8.77,0,0,0-.08,2c.26,3.47,2.78,5.2,6.59,4.91,3.63-.28,5.69-2.43,6.26-6.51l1.93-14.35a9.05,9.05,0,0,0,.08-2C691.1,830.39,688.59,828.66,684.77,829Zm2.3,6.54-2,14.85c-.22,1.6-.89,2.45-2.07,2.54-1.41.11-2.19-.48-2.28-1.74a4.34,4.34,0,0,1,0-.93l2-14.85c.22-1.63.93-2.49,2.11-2.58,1.41-.11,2.15.49,2.24,1.75A4,4,0,0,1,687.07,835.49Z"/><path class="cls-2" d="M713.92,835.78l4.05-.31.21-1.74a9.85,9.85,0,0,0,.07-2.08c-.26-3.36-2.46-5.07-6.47-4.77-3.55.28-5.57,2.43-6.14,6.5l-1.93,14.35a10.69,10.69,0,0,0-.07,2.16c.27,3.47,2.77,5,6.54,4.75q5.27-.4,6.07-6.53l1.3-9.58-6.18.48-.51,3.87,2.14-.16-.77,5.59c-.22,1.59-1,2.41-2.22,2.51s-2.07-.46-2.17-1.68a4.58,4.58,0,0,1,0-1l2-15c.23-1.6,1-2.46,2.19-2.55s2.07.45,2.17,1.71a4.64,4.64,0,0,1,0,1Z"/><path class="cls-2" d="M729.55,839.38v0c2.13-.74,3.15-2.47,3.55-5.72l.17-1.32a10,10,0,0,0,.07-2.08c-.23-3-2.18-4.44-5.5-4.18l-6.14.47-3.65,27.15,4.28-.33,1.56-11.64,1.53-.11c1.49-.12,2.05.19,2.14,1.37a7.05,7.05,0,0,1-.11,1.62l-.65,5a12.78,12.78,0,0,0-.16,2.47c0,.19.08.53.15,1l4.16-.32c-.06-.3-.11-.53-.13-.68a16.08,16.08,0,0,1,.2-2.43l.63-4.77a8.44,8.44,0,0,0,.1-2.24C731.62,840.76,730.88,839.7,729.55,839.38Zm-.53-7-.3,2.09c-.31,2-1.34,3.1-3.06,3.23l-1.26.1,1.06-7.76,1.91-.15c1.07-.08,1.64.34,1.71,1.25A4.78,4.78,0,0,1,729,832.4Z"/><path class="cls-2" d="M740.32,825.08l-8,27.48,4-.31,1.43-5.36,4.74-.37v5.26l4.28-.33-.71-26.81Zm-1.5,18.08,3.62-13.36,0,13.08Z"/><polygon class="cls-2" points="744.42 817.94 741.03 823.38 744.39 823.12 749.19 817.57 744.42 817.94"/><polygon class="cls-2" points="756.1 827.71 762.9 827.19 763.45 823.31 752.34 824.16 748.7 851.31 753.01 850.98 754.6 839.15 759.9 838.75 760.41 834.87 755.11 835.27 756.1 827.71"/><polygon class="cls-2" points="765.35 823.17 761.71 850.32 765.98 849.99 769.63 822.84 765.35 823.17"/><path class="cls-2" d="M784,826.54c-.25-3.24-2.42-5-6.35-4.7-3.47.27-5.6,2.55-6.11,6.38l-2,14.67a9.21,9.21,0,0,0-.08,2c.26,3.32,2.46,5,6.43,4.73,3.55-.28,5.57-2.39,6.07-6.38l.56-4.34-4,.3-.52,4.23c-.16,1.47-.9,2.26-2.16,2.35s-2.07-.45-2.17-1.67a3.59,3.59,0,0,1,0-.85l2.07-15.17c.23-1.51.89-2.33,2.08-2.42s2.06.45,2.15,1.64a3.34,3.34,0,0,1,0,.88l-.39,2.95,4-.31.29-2.25A9.42,9.42,0,0,0,784,826.54Z"/><path class="cls-2" d="M792.19,820.73c-3.51.27-5.76,2.55-6.26,6.54L784,841.62a8.88,8.88,0,0,0-.08,2c.26,3.47,2.78,5.2,6.59,4.9,3.63-.27,5.69-2.43,6.26-6.5l1.93-14.35a9.05,9.05,0,0,0,.08-2C798.52,822.16,796,820.44,792.19,820.73Zm2.3,6.54-2,14.85c-.22,1.59-.89,2.45-2.07,2.54-1.41.11-2.19-.48-2.28-1.74a3.77,3.77,0,0,1,0-.93l2-14.85c.22-1.63.93-2.49,2.11-2.58,1.41-.11,2.15.49,2.24,1.75A4,4,0,0,1,794.49,827.27Z"/><rect class="cls-3" x="-4.32" width="1084.13" height="1440"/></svg>