<?xml version="1.0" encoding="utf-8"?>
<!-- Generator: Adobe Illustrator 26.0.0, SVG Export Plug-In . SVG Version: 6.00 Build 0)  -->
<svg version="1.1" id="Capa_1" xmlns="http://www.w3.org/2000/svg" xmlns:xlink="http://www.w3.org/1999/xlink" x="0px" y="0px"
	 viewBox="0 0 1080 1440" style="enable-background:new 0 0 1080 1440;" xml:space="preserve">
<style type="text/css">
	.st0{fill:#0D1120;}
	.st1{fill:#36BAED;}
</style>
<g>
	<g>
		<path class="st0" d="M147.6,855.6c0-4.6,0.8-9.1,2.4-13.6c1.6-4.4,3.9-8.5,7-12.1c3.1-3.7,6.9-6.6,11.3-8.7
			c4.5-2.2,9.5-3.2,15.2-3.2c6.7,0,12.5,1.5,17.4,4.6c4.8,3.1,8.4,7,10.8,11.9l-7.6,4.9c-1.5-3.2-3.4-5.7-5.7-7.6
			c-2.3-1.9-4.8-3.2-7.5-4c-2.7-0.8-5.3-1.2-7.8-1.2c-4.2,0-7.9,0.9-11.1,2.6c-3.2,1.7-5.9,4-8.1,6.8c-2.2,2.8-3.9,6-5,9.5
			c-1.1,3.5-1.7,7-1.7,10.6c0,3.9,0.7,7.7,2,11.3c1.3,3.6,3.1,6.8,5.5,9.6c2.3,2.8,5.1,5,8.3,6.6c3.2,1.6,6.7,2.4,10.4,2.4
			c2.6,0,5.3-0.5,8.1-1.4c2.8-0.9,5.4-2.4,7.8-4.3c2.4-2,4.3-4.5,5.8-7.6l8,4.4c-1.6,3.8-4,7-7.2,9.6c-3.3,2.6-6.9,4.6-10.9,6
			c-4,1.4-8,2-11.9,2c-5.2,0-9.9-1.1-14.3-3.4c-4.3-2.2-8.1-5.2-11.2-8.9c-3.2-3.7-5.6-7.9-7.3-12.6
			C148.5,865.1,147.6,860.4,147.6,855.6z"/>
		<path class="st0" d="M219.3,878.1c0-3.5,1-6.6,3-9.2c2-2.6,4.8-4.6,8.4-6s7.7-2.1,12.4-2.1c2.5,0,5.1,0.2,7.9,0.6
			c2.8,0.4,5.2,1,7.3,1.8v-4c0-4.2-1.3-7.5-3.8-9.9s-6.2-3.6-10.9-3.6c-3.1,0-6,0.5-8.8,1.7c-2.8,1.1-5.8,2.7-8.9,4.7l-3.4-6.6
			c3.6-2.5,7.2-4.3,10.9-5.6c3.6-1.2,7.4-1.9,11.3-1.9c7.1,0,12.7,2,16.8,5.9c4.1,3.9,6.2,9.3,6.2,16.3v23.3c0,1.1,0.2,2,0.7,2.5
			c0.5,0.5,1.2,0.8,2.3,0.9v7.2c-0.9,0.1-1.7,0.2-2.4,0.3c-0.7,0.1-1.2,0.1-1.7,0.1c-2.2,0-3.9-0.6-5-1.8c-1.1-1.2-1.7-2.5-1.9-3.8
			l-0.2-3.5c-2.4,3.1-5.6,5.5-9.5,7.2c-3.9,1.7-7.8,2.6-11.6,2.6c-3.7,0-7-0.8-9.9-2.3c-2.9-1.5-5.2-3.6-6.8-6.1
			C220.1,884.1,219.3,881.3,219.3,878.1z M255.5,882c0.9-1,1.5-2,2-3c0.5-1,0.7-1.9,0.7-2.6v-6.9c-2.2-0.8-4.5-1.5-6.9-2
			c-2.4-0.5-4.8-0.7-7.1-0.7c-4.8,0-8.6,0.9-11.6,2.8c-2.9,1.9-4.4,4.4-4.4,7.6c0,1.8,0.5,3.5,1.4,5.1c1,1.7,2.4,3,4.3,4.1
			c1.9,1.1,4.2,1.6,7,1.6c2.9,0,5.7-0.6,8.3-1.7C251.9,885.2,254,883.7,255.5,882z"/>
		<path class="st0" d="M312.1,846.7c-4.7,0.1-8.8,1.3-12.4,3.6c-3.6,2.3-6.1,5.5-7.6,9.5v34.3h-9.4v-55.3h8.7v12.6
			c1.9-3.8,4.5-6.9,7.6-9.3c3.2-2.4,6.5-3.7,10-4c0.7,0,1.3,0,1.8,0c0.5,0,0.9,0,1.3,0.1V846.7z"/>
		<path class="st0" d="M321.6,816.3h9.4V880c0,3.1,0.4,5,1.3,5.7c0.9,0.7,1.9,1.1,3.1,1.1c1.5,0,2.9-0.2,4.3-0.5
			c1.3-0.3,2.5-0.7,3.4-1l1.5,7.7c-1.6,0.6-3.4,1.2-5.5,1.6c-2.1,0.4-4,0.6-5.6,0.6c-3.6,0-6.5-1-8.6-3.1c-2.1-2.1-3.1-5-3.1-8.7
			V816.3z"/>
		<path class="st0" d="M376.1,895.1c-4.2,0-8-0.8-11.4-2.3c-3.4-1.5-6.4-3.6-8.8-6.2c-2.5-2.6-4.4-5.7-5.7-9.1
			c-1.3-3.5-2-7.1-2-10.9c0-3.9,0.7-7.5,2-11c1.3-3.5,3.3-6.5,5.7-9.1c2.5-2.6,5.4-4.7,8.9-6.2c3.4-1.5,7.3-2.3,11.4-2.3
			c4.1,0,7.9,0.8,11.3,2.3c3.4,1.5,6.4,3.6,8.9,6.2c2.5,2.6,4.5,5.7,5.8,9.1c1.3,3.5,2,7.1,2,11c0,3.8-0.7,7.4-2,10.9
			c-1.3,3.5-3.3,6.5-5.8,9.1c-2.5,2.6-5.5,4.7-8.9,6.2C384.1,894.4,380.3,895.1,376.1,895.1z M357.7,866.7c0,3.8,0.8,7.2,2.5,10.3
			c1.7,3.1,3.9,5.5,6.7,7.3c2.8,1.8,5.9,2.7,9.3,2.7c3.4,0,6.5-0.9,9.3-2.7c2.8-1.8,5-4.3,6.7-7.4c1.7-3.1,2.5-6.6,2.5-10.4
			c0-3.8-0.8-7.2-2.5-10.3c-1.7-3.1-3.9-5.6-6.7-7.4c-2.8-1.8-5.9-2.7-9.3-2.7c-3.4,0-6.5,0.9-9.3,2.8c-2.8,1.9-5,4.3-6.7,7.4
			C358.5,859.3,357.7,862.8,357.7,866.7z"/>
		<path class="st0" d="M434.7,895.1c-4.6,0-8.9-0.8-13-2.3c-4-1.5-7.5-3.8-10.4-6.9l3.6-6.6c3.2,3,6.4,5.1,9.6,6.4
			c3.2,1.3,6.5,1.9,9.8,1.9c3.8,0,7-0.7,9.4-2.2c2.4-1.4,3.6-3.6,3.6-6.4c0-2-0.6-3.6-1.9-4.5c-1.2-1-3-1.8-5.3-2.5
			c-2.3-0.7-5-1.4-8.1-2.3c-3.8-1.1-7.1-2.3-9.7-3.6c-2.6-1.3-4.6-2.9-6-4.8c-1.3-1.9-2-4.3-2-7.2c0-3.5,0.9-6.5,2.8-8.9
			c1.8-2.4,4.4-4.3,7.6-5.5c3.2-1.3,6.9-1.9,11-1.9c4.1,0,7.8,0.6,11.2,1.9c3.3,1.3,6.2,3.2,8.6,5.6l-4.3,6.5
			c-2.2-2.3-4.6-4-7.2-5.1c-2.6-1.1-5.6-1.7-8.8-1.7c-1.9,0-3.8,0.2-5.6,0.7c-1.8,0.5-3.4,1.3-4.6,2.4c-1.2,1.2-1.8,2.8-1.8,4.9
			c0,1.8,0.5,3.1,1.4,4.2c1,1,2.4,1.9,4.3,2.6c1.9,0.7,4.2,1.5,6.9,2.3c4.2,1.2,7.8,2.4,10.9,3.6c3.1,1.2,5.5,2.7,7.2,4.6
			c1.7,1.9,2.6,4.5,2.6,7.9c0,5.2-2,9.3-6,12.2C446.5,893.7,441.2,895.1,434.7,895.1z"/>
		<path class="st0" d="M556.5,894.1v-49.6l-19.4,37h-8.2l-19.4-37v49.6h-14.7v-75.6h15.8l22.4,43l22.6-43h15.7v75.6H556.5z"/>
		<path class="st0" d="M581.1,877.8c0-3.6,1-6.7,3-9.4c2-2.7,4.8-4.8,8.5-6.3c3.6-1.5,7.8-2.2,12.5-2.2c2.3,0,4.7,0.2,7.1,0.5
			c2.4,0.4,4.5,0.9,6.3,1.7v-3c0-3.5-1-6.2-3.1-8.1c-2.1-1.9-5.2-2.8-9.3-2.8c-3.1,0-6,0.5-8.7,1.6c-2.8,1.1-5.7,2.6-8.7,4.7
			l-4.6-9.4c3.7-2.4,7.5-4.2,11.3-5.4c3.9-1.2,7.9-1.8,12.2-1.8c7.9,0,14.1,2,18.6,5.9c4.4,3.9,6.7,9.5,6.7,16.8v17.5
			c0,1.5,0.3,2.5,0.8,3.2c0.5,0.6,1.4,1,2.6,1.2v11.6c-1.3,0.2-2.4,0.4-3.5,0.5c-1,0.1-1.9,0.2-2.6,0.2c-2.8,0-5-0.6-6.4-1.9
			c-1.5-1.3-2.4-2.8-2.7-4.7l-0.3-2.9c-2.4,3.1-5.4,5.5-9.1,7.2c-3.6,1.7-7.3,2.6-11.1,2.6c-3.7,0-7-0.8-10-2.3
			c-2.9-1.5-5.3-3.6-6.9-6.2C581.9,884,581.1,881.1,581.1,877.8z M615.8,880.5c0.8-0.8,1.4-1.7,1.9-2.5c0.5-0.8,0.7-1.6,0.7-2.3
			v-5.5c-1.7-0.7-3.6-1.2-5.5-1.6c-2-0.4-3.9-0.6-5.6-0.6c-3.7,0-6.7,0.8-9.1,2.3c-2.4,1.6-3.6,3.6-3.6,6.2c0,1.4,0.4,2.7,1.2,3.9
			c0.8,1.2,1.9,2.3,3.4,3c1.5,0.8,3.3,1.1,5.3,1.1c2.1,0,4.2-0.4,6.3-1.2C612.9,882.7,614.6,881.7,615.8,880.5z"/>
		<path class="st0" d="M679.3,850.6c-4.3,0-8.2,0.8-11.6,2.5s-5.9,4.1-7.3,7.2v33.8h-14.3v-55.3h13.1v11.4c2-3.8,4.5-6.8,7.6-9.1
			c3.1-2.2,6.3-3.4,9.7-3.6c0.8,0,1.4,0,1.8,0s0.8,0,1.1,0.1V850.6z"/>
		<path class="st0" d="M712.5,895.1c-4.5,0-8.6-0.8-12.2-2.3c-3.6-1.5-6.7-3.6-9.3-6.3c-2.6-2.7-4.5-5.8-5.9-9.2
			c-1.4-3.4-2.1-7.1-2.1-10.9c0-5.2,1.2-10,3.6-14.3c2.4-4.3,5.8-7.8,10.2-10.4c4.4-2.6,9.6-3.9,15.7-3.9c6,0,11.2,1.3,15.6,3.9
			c4.3,2.6,7.6,6.1,9.7,10.3l-14,4.3c-1.2-2.1-2.8-3.6-4.8-4.7c-2-1.1-4.2-1.7-6.6-1.7c-2.7,0-5.2,0.7-7.4,2c-2.2,1.4-4,3.3-5.3,5.7
			c-1.3,2.5-1.9,5.3-1.9,8.6c0,3.2,0.7,6,2,8.5c1.3,2.5,3.1,4.4,5.3,5.8c2.2,1.4,4.6,2.1,7.3,2.1c1.7,0,3.3-0.3,4.8-0.9
			c1.5-0.6,2.9-1.3,4.1-2.3c1.2-1,2.1-2.1,2.7-3.4l14,4.3c-1.3,2.8-3.1,5.3-5.6,7.5c-2.4,2.2-5.3,3.9-8.6,5.2
			C720.4,894.5,716.7,895.1,712.5,895.1z"/>
		<path class="st0" d="M772,895.1c-4.5,0-8.5-0.8-12.1-2.3c-3.6-1.5-6.7-3.6-9.3-6.2c-2.6-2.6-4.5-5.7-5.9-9.1
			c-1.4-3.4-2.1-7-2.1-10.8c0-5.3,1.2-10.1,3.6-14.4c2.4-4.4,5.8-7.8,10.2-10.5c4.4-2.6,9.7-4,15.7-4c6.1,0,11.3,1.3,15.7,4
			c4.3,2.6,7.7,6.1,10,10.4c2.3,4.3,3.5,9,3.5,14c0,0.8,0,1.7-0.1,2.6c-0.1,0.9-0.1,1.6-0.2,2.2h-43.1c0.3,2.8,1.1,5.2,2.5,7.3
			c1.4,2.1,3.2,3.7,5.3,4.7c2.2,1.1,4.5,1.6,7,1.6c2.8,0,5.5-0.7,8-2.1c2.5-1.4,4.2-3.2,5.2-5.5l12.2,3.4c-1.3,2.8-3.3,5.4-5.8,7.6
			c-2.5,2.2-5.5,3.9-8.9,5.2S776.1,895.1,772,895.1z M757.4,862h29.2c-0.3-2.8-1.1-5.2-2.4-7.2c-1.3-2-3-3.6-5.2-4.8
			s-4.5-1.7-7.1-1.7c-2.6,0-4.9,0.6-7,1.7c-2.1,1.1-3.8,2.7-5.1,4.8C758.5,856.8,757.7,859.2,757.4,862z"/>
		<path class="st0" d="M809.8,816.3h14.3v60c0,2.6,0.4,4.3,1.3,5.2s2,1.3,3.5,1.3c1.1,0,2.3-0.1,3.5-0.4c1.2-0.3,2.3-0.6,3.2-1.1
			l1.9,10.9c-1.9,0.9-4.2,1.6-6.7,2.1c-2.6,0.5-4.9,0.7-6.9,0.7c-4.5,0-7.9-1.2-10.4-3.6c-2.4-2.4-3.7-5.8-3.7-10.2V816.3z"/>
		<path class="st0" d="M843.5,816.3h14.3v60c0,2.6,0.4,4.3,1.3,5.2c0.9,0.9,2,1.3,3.5,1.3c1.1,0,2.3-0.1,3.5-0.4
			c1.2-0.3,2.3-0.6,3.2-1.1l1.9,10.9c-1.9,0.9-4.2,1.6-6.7,2.1c-2.6,0.5-4.9,0.7-6.9,0.7c-4.5,0-7.9-1.2-10.4-3.6
			c-2.4-2.4-3.7-5.8-3.7-10.2V816.3z"/>
		<path class="st0" d="M903.2,895.1c-4.5,0-8.6-0.8-12.2-2.3c-3.6-1.5-6.7-3.6-9.2-6.3c-2.5-2.7-4.5-5.7-5.8-9.2
			c-1.4-3.4-2-7.1-2-10.8c0-3.9,0.7-7.5,2-11c1.3-3.4,3.3-6.5,5.8-9.2c2.5-2.7,5.6-4.8,9.2-6.3c3.6-1.5,7.7-2.3,12.2-2.3
			c4.5,0,8.6,0.8,12.2,2.3c3.6,1.5,6.7,3.6,9.2,6.3c2.6,2.7,4.5,5.7,5.8,9.2c1.3,3.4,2,7.1,2,11c0,3.8-0.7,7.4-2,10.8
			c-1.3,3.4-3.2,6.5-5.7,9.2c-2.5,2.7-5.6,4.8-9.2,6.3C911.8,894.4,907.7,895.1,903.2,895.1z M888.6,866.6c0,3.2,0.6,6,1.9,8.5
			c1.3,2.5,3,4.4,5.2,5.8c2.2,1.4,4.7,2.1,7.5,2.1c2.7,0,5.1-0.7,7.3-2.1c2.2-1.4,4-3.4,5.3-5.8c1.3-2.5,2-5.3,2-8.5
			c0-3.1-0.7-6-2-8.5c-1.3-2.5-3.1-4.5-5.3-5.9c-2.2-1.4-4.7-2.1-7.3-2.1c-2.8,0-5.3,0.7-7.5,2.1c-2.2,1.4-3.9,3.4-5.2,5.9
			C889.2,860.5,888.6,863.4,888.6,866.6z"/>
	</g>
	<g>
		<g>
			<path class="st1" d="M280.2,966.6v-37.4h13.3c4,0,7.4,0.8,10.1,2.5s4.7,3.9,6.1,6.7c1.4,2.8,2,6,2,9.4c0,3.8-0.7,7.1-2.2,9.9
				c-1.5,2.8-3.6,5-6.4,6.5c-2.7,1.5-6,2.3-9.6,2.3H280.2z M305.7,947.8c0-2.6-0.5-5-1.4-7c-1-2-2.4-3.6-4.2-4.7
				c-1.8-1.1-4-1.7-6.6-1.7h-7.4v27h7.4c2.6,0,4.9-0.6,6.7-1.8c1.8-1.2,3.2-2.8,4.1-4.9C305.2,952.7,305.7,950.4,305.7,947.8z"/>
		</g>
		<g>
			<path class="st1" d="M322.2,934.5v-6.4h5.8v6.4H322.2z M322.2,966.6V939h5.8v27.6H322.2z"/>
		</g>
		<g>
			<path class="st1" d="M349.7,967.1c-2.3,0-4.5-0.4-6.6-1.1c-2.1-0.8-3.8-1.9-5.3-3.4l2.2-3.9c1.6,1.4,3.2,2.4,4.8,3.1
				c1.6,0.6,3.2,0.9,4.8,0.9c1.6,0,2.9-0.3,4-0.9c1-0.6,1.5-1.5,1.5-2.7c0-0.9-0.3-1.5-0.8-1.9c-0.5-0.4-1.3-0.8-2.3-1.1
				c-1-0.3-2.2-0.7-3.6-1c-2-0.6-3.6-1.2-5-1.9c-1.3-0.6-2.3-1.4-3-2.4c-0.7-0.9-1-2.1-1-3.6c0-1.8,0.5-3.3,1.4-4.5
				c0.9-1.3,2.2-2.2,3.8-2.9c1.6-0.7,3.5-1,5.7-1c2,0,3.9,0.3,5.6,0.9c1.7,0.6,3.2,1.6,4.5,2.9l-2.5,3.8c-1.2-1.1-2.5-2-3.8-2.5
				c-1.3-0.5-2.7-0.8-4.1-0.8c-0.8,0-1.7,0.1-2.4,0.3c-0.8,0.2-1.4,0.5-1.9,1c-0.5,0.5-0.8,1.2-0.8,2.1c0,0.7,0.2,1.3,0.6,1.8
				c0.4,0.5,1.1,0.8,1.9,1.1c0.8,0.3,1.9,0.7,3.1,1c2.1,0.6,4,1.2,5.5,1.9c1.5,0.6,2.7,1.4,3.5,2.3c0.8,1,1.2,2.3,1.2,3.9
				c0,2.6-1,4.7-3,6.2C355.7,966.4,353,967.1,349.7,967.1z"/>
		</g>
		<g>
			<path class="st1" d="M383.3,967.1c-2.1,0-4.1-0.4-5.8-1.1c-1.7-0.8-3.2-1.8-4.5-3.1c-1.3-1.3-2.2-2.8-2.9-4.5s-1-3.5-1-5.4
				c0-2.6,0.6-4.9,1.8-7.1c1.2-2.1,2.9-3.9,5-5.2c2.1-1.3,4.7-2,7.5-2s5.4,0.7,7.5,2s3.7,3,4.9,5.1c1.2,2.1,1.7,4.4,1.7,6.8
				c0,0.4,0,0.8-0.1,1.2c0,0.4-0.1,0.7-0.1,0.9h-22.1c0.1,1.6,0.6,3,1.3,4.2c0.8,1.2,1.8,2.1,3,2.8c1.2,0.7,2.5,1,4,1
				c1.5,0,3-0.4,4.4-1.2c1.4-0.8,2.3-1.8,2.8-3.1l5,1.4c-0.6,1.3-1.5,2.5-2.7,3.6c-1.2,1.1-2.6,1.9-4.3,2.5
				C387,966.8,385.2,967.1,383.3,967.1z M375,951h16.7c-0.1-1.6-0.6-2.9-1.3-4.1c-0.8-1.2-1.8-2.1-3-2.8c-1.2-0.7-2.6-1-4-1
				c-1.4,0-2.8,0.3-4,1c-1.2,0.7-2.2,1.6-3,2.8C375.6,948,375.1,949.4,375,951z"/>
		</g>
		<g>
			<path class="st1" d="M431.9,966.6h-5.8v-15.3c0-2.5-0.4-4.4-1.2-5.6c-0.8-1.2-2-1.8-3.7-1.8c-1.1,0-2.2,0.3-3.3,0.8
				c-1.1,0.6-2.1,1.3-3,2.3c-0.9,1-1.5,2-1.9,3.3v16.2h-5.8v-27.4h5.3v5.5c0.7-1.2,1.6-2.3,2.8-3.2c1.1-0.9,2.4-1.6,3.9-2.1
				c1.4-0.5,3-0.7,4.6-0.7c1.7,0,3,0.3,4.1,0.9c1.1,0.6,1.9,1.4,2.5,2.4c0.6,1,1,2.2,1.3,3.6c0.2,1.3,0.3,2.8,0.3,4.3V966.6z
				 M423.4,934.1c-1.1,0-2-0.2-2.7-0.6c-0.8-0.4-1.4-0.8-2.1-1.1c-0.6-0.4-1.3-0.6-2.1-0.6c-0.8,0-1.3,0.2-1.7,0.6
				c-0.4,0.4-0.6,0.8-0.7,1.2c-0.1,0.4-0.2,0.7-0.2,0.7h-3.3c0-0.3,0.1-0.7,0.3-1.4c0.2-0.7,0.5-1.3,0.9-2.1c0.4-0.7,1-1.3,1.7-1.8
				c0.7-0.5,1.6-0.8,2.7-0.8c1.1,0,1.9,0.2,2.6,0.6c0.7,0.4,1.4,0.8,2,1.2c0.6,0.4,1.4,0.6,2.2,0.6c0.9,0,1.5-0.2,1.9-0.6
				s0.6-0.8,0.8-1.2c0.1-0.4,0.2-0.7,0.2-0.7h3.3c0,0.2-0.1,0.7-0.3,1.3c-0.2,0.6-0.5,1.3-1,2.1c-0.5,0.7-1.1,1.4-1.8,1.9
				C425.5,933.9,424.5,934.1,423.4,934.1z"/>
		</g>
		<g>
			<path class="st1" d="M441.7,958.6c0-1.7,0.5-3.3,1.5-4.6c1-1.3,2.4-2.3,4.1-3c1.8-0.7,3.8-1.1,6.1-1.1c1.2,0,2.5,0.1,3.8,0.3
				c1.3,0.2,2.4,0.5,3.4,0.8v-1.7c0-1.9-0.6-3.4-1.7-4.5c-1.2-1.1-2.8-1.6-5-1.6c-1.5,0-3,0.3-4.4,0.8c-1.4,0.5-2.8,1.3-4.4,2.3
				l-2-3.9c1.8-1.2,3.7-2.1,5.5-2.7c1.8-0.6,3.8-0.9,5.8-0.9c3.7,0,6.6,1,8.7,2.9c2.1,1.9,3.2,4.7,3.2,8.2v10.2
				c0,0.7,0.1,1.1,0.3,1.4c0.2,0.3,0.6,0.4,1.2,0.5v4.6c-0.5,0.1-1,0.2-1.4,0.2c-0.4,0-0.8,0.1-1.1,0.1c-1.2,0-2.2-0.3-2.8-0.9
				c-0.6-0.6-1-1.3-1.1-2.1l-0.2-1.6c-1.2,1.5-2.7,2.7-4.6,3.6c-1.9,0.8-3.7,1.3-5.6,1.3c-1.8,0-3.5-0.4-4.9-1.1
				c-1.4-0.7-2.6-1.8-3.4-3.1C442.1,961.6,441.7,960.2,441.7,958.6z M459.2,960.2c0.4-0.5,0.8-0.9,1-1.3c0.2-0.5,0.4-0.8,0.4-1.2
				v-3.1c-1-0.4-2-0.7-3.1-0.9c-1.1-0.2-2.2-0.3-3.2-0.3c-2.1,0-3.8,0.4-5.1,1.2c-1.3,0.8-2,2-2,3.4c0,0.8,0.2,1.6,0.7,2.3
				c0.4,0.7,1.1,1.3,1.9,1.8c0.8,0.5,1.9,0.7,3.1,0.7c1.3,0,2.5-0.2,3.6-0.7C457.6,961.6,458.5,961,459.2,960.2z"/>
		</g>
		<g>
			<path class="st1" d="M476.7,952.9c0-2.6,0.5-5,1.6-7.1c1.1-2.1,2.5-3.8,4.4-5.1c1.9-1.3,4-1.9,6.4-1.9c2.1,0,4,0.5,5.7,1.6
				c1.7,1.1,3,2.4,4,4.1v-16.4h5.8V960c0,0.7,0.1,1.1,0.4,1.4c0.2,0.3,0.6,0.4,1.2,0.5v4.6c-1.1,0.2-1.9,0.3-2.5,0.3
				c-1.1,0-2-0.3-2.8-0.9c-0.8-0.6-1.2-1.4-1.2-2.3l-0.1-2.1c-1.1,1.8-2.5,3.1-4.3,4.1c-1.8,1-3.7,1.4-5.6,1.4
				c-1.9,0-3.6-0.4-5.2-1.1c-1.6-0.7-3-1.8-4.2-3.1c-1.2-1.3-2.1-2.8-2.7-4.5C477,956.7,476.7,954.9,476.7,952.9z M498.8,956.7v-7.1
				c-0.4-1.1-1-2.1-1.9-3c-0.9-0.9-1.8-1.6-2.9-2.1c-1.1-0.5-2.1-0.8-3.2-0.8c-1.2,0-2.3,0.3-3.3,0.8c-1,0.5-1.9,1.2-2.6,2.1
				c-0.7,0.9-1.3,1.9-1.7,3s-0.6,2.3-0.6,3.5c0,1.2,0.2,2.4,0.6,3.5c0.4,1.1,1,2.1,1.8,2.9c0.8,0.8,1.7,1.5,2.7,2s2.2,0.7,3.4,0.7
				c0.8,0,1.6-0.1,2.3-0.4c0.8-0.3,1.5-0.7,2.3-1.1c0.7-0.5,1.3-1.1,1.8-1.7C498.2,958.2,498.6,957.5,498.8,956.7z"/>
		</g>
		<g>
			<path class="st1" d="M529.4,967.1c-2.2,0-4.1-0.4-5.9-1.1c-1.7-0.7-3.2-1.8-4.5-3.1c-1.2-1.3-2.2-2.8-2.9-4.5
				c-0.7-1.7-1-3.5-1-5.4s0.3-3.7,1-5.4s1.6-3.2,2.9-4.5s2.7-2.3,4.5-3.1c1.7-0.8,3.7-1.1,5.8-1.1c2.1,0,4.1,0.4,5.8,1.1
				c1.7,0.7,3.2,1.8,4.5,3.1s2.2,2.8,2.9,4.5c0.7,1.7,1,3.5,1,5.4s-0.3,3.7-1,5.4c-0.7,1.7-1.6,3.2-2.9,4.5
				c-1.2,1.3-2.7,2.4-4.5,3.1S531.5,967.1,529.4,967.1z M521.2,953c0,1.7,0.4,3.3,1.1,4.7c0.7,1.4,1.7,2.5,3,3.3
				c1.2,0.8,2.6,1.2,4.2,1.2c1.5,0,2.9-0.4,4.1-1.2c1.2-0.8,2.2-1.9,3-3.3c0.7-1.4,1.1-3,1.1-4.6c0-1.7-0.4-3.3-1.1-4.7
				c-0.7-1.4-1.7-2.5-3-3.3c-1.2-0.8-2.6-1.2-4.1-1.2c-1.5,0-2.9,0.4-4.2,1.2c-1.2,0.8-2.2,1.9-3,3.3
				C521.5,949.7,521.2,951.2,521.2,953z"/>
		</g>
		<g>
			<path class="st1" d="M569.2,944c-2.2,0-4.2,0.5-6,1.5c-1.7,1-3,2.4-3.7,4.2v16.9h-5.8v-27.4h5.4v6c0.9-1.9,2.2-3.4,3.7-4.6
				c1.5-1.1,3.2-1.8,4.9-1.9c0.4,0,0.6,0,0.9,0c0.2,0,0.4,0,0.6,0.1V944z"/>
		</g>
		<g>
			<path class="st1" d="M611.4,966.8c-2.5,0-4.8-0.5-6.9-1.5c-2.1-1-4-2.4-5.6-4.2c-1.6-1.8-2.8-3.8-3.7-6.1
				c-0.9-2.3-1.3-4.7-1.3-7.3c0-2.6,0.4-5,1.3-7.2c0.9-2.2,2.1-4.3,3.7-6c1.6-1.8,3.5-3.1,5.6-4.1c2.2-1,4.5-1.5,7.1-1.5
				c3.5,0,6.5,0.7,9,2.2c2.4,1.5,4.3,3.5,5.5,5.9l-4.5,3.3c-1-2-2.4-3.6-4.2-4.6c-1.8-1-3.8-1.5-5.9-1.5c-1.8,0-3.4,0.4-4.8,1.1
				c-1.4,0.7-2.7,1.8-3.7,3c-1,1.3-1.8,2.7-2.3,4.4c-0.5,1.6-0.8,3.3-0.8,5.1c0,1.9,0.3,3.7,0.9,5.3c0.6,1.7,1.4,3.1,2.5,4.3
				c1.1,1.2,2.4,2.2,3.8,2.9c1.5,0.7,3.1,1.1,4.8,1.1c2,0,4-0.5,5.8-1.6c1.8-1,3.6-2.6,5.2-4.7v6C619.6,965,615.7,966.8,611.4,966.8
				z M622.3,952h-7.9v-4.4h12.8v18.9h-5V952z"/>
		</g>
		<g>
			<path class="st1" d="M653.7,944c-2.2,0-4.2,0.5-6,1.5c-1.7,1-3,2.4-3.7,4.2v16.9h-5.8v-27.4h5.4v6c0.9-1.9,2.2-3.4,3.7-4.6
				c1.5-1.1,3.2-1.8,4.9-1.9c0.4,0,0.6,0,0.9,0c0.2,0,0.4,0,0.6,0.1V944z"/>
		</g>
		<g>
			<path class="st1" d="M660.9,958.6c0-1.7,0.5-3.3,1.5-4.6c1-1.3,2.4-2.3,4.1-3c1.8-0.7,3.8-1.1,6.1-1.1c1.2,0,2.5,0.1,3.8,0.3
				c1.3,0.2,2.4,0.5,3.4,0.8v-1.7c0-1.9-0.6-3.4-1.7-4.5c-1.2-1.1-2.8-1.6-5-1.6c-1.5,0-3,0.3-4.4,0.8c-1.4,0.5-2.8,1.3-4.4,2.3
				l-2-3.9c1.8-1.2,3.7-2.1,5.5-2.7c1.8-0.6,3.8-0.9,5.8-0.9c3.7,0,6.6,1,8.7,2.9c2.1,1.9,3.2,4.7,3.2,8.2v10.2
				c0,0.7,0.1,1.1,0.3,1.4c0.2,0.3,0.6,0.4,1.2,0.5v4.6c-0.5,0.1-1,0.2-1.4,0.2c-0.4,0-0.8,0.1-1.1,0.1c-1.2,0-2.2-0.3-2.8-0.9
				c-0.6-0.6-1-1.3-1.1-2.1l-0.2-1.6c-1.2,1.5-2.7,2.7-4.6,3.6c-1.9,0.8-3.7,1.3-5.6,1.3c-1.8,0-3.5-0.4-4.9-1.1
				c-1.4-0.7-2.6-1.8-3.4-3.1C661.3,961.6,660.9,960.2,660.9,958.6z M678.5,960.2c0.4-0.5,0.8-0.9,1-1.3c0.2-0.5,0.4-0.8,0.4-1.2
				v-3.1c-1-0.4-2-0.7-3.1-0.9c-1.1-0.2-2.2-0.3-3.2-0.3c-2.1,0-3.8,0.4-5.1,1.2c-1.3,0.8-2,2-2,3.4c0,0.8,0.2,1.6,0.7,2.3
				c0.4,0.7,1.1,1.3,1.9,1.8c0.8,0.5,1.9,0.7,3.1,0.7c1.3,0,2.5-0.2,3.6-0.7C676.8,961.6,677.8,961,678.5,960.2z M675.6,935
				l-3.8-1.2l3-5.8h5.5L675.6,935z"/>
		</g>
		<g>
			<path class="st1" d="M699.1,966.6v-22.4h-3.7v-4.5h3.7v-1.1c0-2.2,0.4-4.2,1.1-5.9c0.7-1.7,1.7-2.9,3.1-3.8s2.9-1.3,4.7-1.3
				c1.1,0,2.2,0.2,3.3,0.5c1.1,0.3,2.1,0.7,3.1,1.2l-1.3,4.3c-0.5-0.4-1.2-0.6-1.9-0.8c-0.7-0.2-1.4-0.3-2.1-0.3
				c-1.3,0-2.4,0.5-3.1,1.5c-0.7,1-1.1,2.5-1.1,4.4v1.3h7.1v4.5h-7.1v22.4H699.1z"/>
		</g>
		<g>
			<path class="st1" d="M721.3,934.5v-6.4h5.8v6.4H721.3z M721.3,966.6V939h5.8v27.6H721.3z"/>
		</g>
		<g>
			<path class="st1" d="M751.5,967.1c-2.1,0-4.1-0.4-5.8-1.1s-3.2-1.8-4.5-3.1c-1.3-1.3-2.2-2.8-2.9-4.5c-0.7-1.7-1-3.5-1-5.4
				c0-2.6,0.6-4.9,1.8-7.1s2.8-3.8,5-5.1c2.1-1.3,4.6-1.9,7.6-1.9c2.8,0,5.3,0.6,7.4,1.9c2.1,1.2,3.6,2.9,4.6,5l-5.6,1.8
				c-0.6-1.2-1.5-2.1-2.7-2.7c-1.1-0.7-2.4-1-3.8-1c-1.5,0-2.9,0.4-4.2,1.2s-2.2,1.9-3,3.2c-0.7,1.4-1.1,3-1.1,4.8
				c0,1.7,0.4,3.3,1.1,4.7c0.7,1.4,1.7,2.5,3,3.3c1.2,0.8,2.6,1.2,4.2,1.2c0.9,0,1.9-0.2,2.8-0.5c0.9-0.3,1.7-0.8,2.3-1.4
				c0.7-0.6,1.1-1.2,1.4-1.9l5.7,1.7c-0.6,1.4-1.5,2.6-2.7,3.6c-1.2,1.1-2.6,1.9-4.2,2.5C755.3,966.8,753.5,967.1,751.5,967.1z"/>
		</g>
		<g>
			<path class="st1" d="M785.6,967.1c-2.2,0-4.1-0.4-5.9-1.1c-1.7-0.7-3.2-1.8-4.5-3.1c-1.2-1.3-2.2-2.8-2.9-4.5
				c-0.7-1.7-1-3.5-1-5.4s0.3-3.7,1-5.4c0.7-1.7,1.6-3.2,2.9-4.5s2.7-2.3,4.5-3.1c1.7-0.8,3.7-1.1,5.8-1.1c2.1,0,4.1,0.4,5.8,1.1
				c1.7,0.7,3.2,1.8,4.5,3.1c1.2,1.3,2.2,2.8,2.9,4.5c0.7,1.7,1,3.5,1,5.4s-0.3,3.7-1,5.4c-0.7,1.7-1.6,3.2-2.9,4.5
				c-1.2,1.3-2.7,2.4-4.5,3.1S787.8,967.1,785.6,967.1z M777.4,953c0,1.7,0.4,3.3,1.1,4.7c0.7,1.4,1.7,2.5,3,3.3
				c1.2,0.8,2.6,1.2,4.2,1.2c1.5,0,2.9-0.4,4.1-1.2c1.2-0.8,2.2-1.9,3-3.3c0.7-1.4,1.1-3,1.1-4.6c0-1.7-0.4-3.3-1.1-4.7
				c-0.7-1.4-1.7-2.5-3-3.3c-1.2-0.8-2.6-1.2-4.1-1.2c-1.5,0-2.9,0.4-4.2,1.2c-1.2,0.8-2.2,1.9-3,3.3
				C777.8,949.7,777.4,951.2,777.4,953z"/>
		</g>
	</g>
	<g>
		<g>
			<g>
				<path class="st1" d="M579.2,663.3c0,4-1.5,8-4.6,11.1L485.9,763c-3.1,3.1-7.1,4.6-11.1,4.6c-4,0-8.1-1.5-11.1-4.6L330.7,630
					c-6.1-6.1-6.1-16,0-22.1L461,477.6c6.1-6.1,16.1-6.1,22.2,0c3.1,3,4.6,7.1,4.6,11.1c0,4-1.5,8-4.6,11.1L364,618.9l110.9,110.9
					l77.6-77.6c6.1-6.1,16.1-6.1,22.2,0C577.7,655.2,579.2,659.2,579.2,663.3z"/>
			</g>
		</g>
		<g>
			<g>
				<path class="st1" d="M747.4,603.2c8.7,8.7,8.7,22.7,0,31.4L630,752L618.9,763c-6.1,6.1-16,6.1-22.2,0l0,0
					c-6.1-6.1-6.1-16,0-22.2l11.1-11.1l22.2-22.2l79.5-79.5h-95.7c-3.8-0.1-7.7-1.6-10.6-4.6c-2.9-2.9-4.5-6.8-4.6-10.6v-95.7
					l-13,13L485.9,630c-6.1,6.1-16,6.1-22.2,0l0,0c-6.1-6.1-6.1-16,0-22.2l128.4-128.4c8.7-8.7,22.7-8.7,31.4,0l0,0
					c4.2,4.2,6.5,9.8,6.5,15.7v101.7h101.7C737.6,596.8,743.2,599.1,747.4,603.2L747.4,603.2z"/>
			</g>
		</g>
	</g>
</g>
</svg>
