<?xml version="1.0" encoding="utf-8"?>
<!-- Generator: Adobe Illustrator 28.0.0, SVG Export Plug-In . SVG Version: 6.00 Build 0)  -->
<svg version="1.1" id="Capa_1" xmlns="http://www.w3.org/2000/svg" xmlns:xlink="http://www.w3.org/1999/xlink" x="0px" y="0px"
	 viewBox="0 0 1080 1440" style="enable-background:new 0 0 1080 1440;" xml:space="preserve">
<g>
	<path d="M740.89,715.12c-1.71,3.66-3.18,7-4.82,10.27c-2.84,5.68-6.38,10.89-10.87,15.42c-8.58,8.66-18.82,10.19-30.18,7.11
		c-13.19-3.57-20.82-12.62-24.81-25.19c-3.69-11.64-3.86-23.62-3.07-35.66c0.7-10.65,3.16-20.83,8.48-30.17
		c5.45-9.58,13.02-16.69,23.9-19.73c4.4-1.23,8.89-1.62,13.4-1.05c5.35,0.67,9.53,3.6,13.13,7.44c3.63,3.88,6.3,8.42,8.93,13.64
		c0.34-2.95,0.48-5.38,1.04-7.75c2.38-9.95,11.3-15.21,21.2-12.43c4.4,1.24,7.25,4.16,8.97,8.32c2.42,5.86,2.53,12.03,2.43,18.22
		c-0.2,12.16-1.89,24.2-2.75,36.31c-0.59,8.23-1.38,16.47,0.21,24.69c0.32,1.65,0.85,3.22,1.85,4.59c1.64,2.27,4.14,2.66,6.35,0.94
		c2.01-1.56,3.42-3.65,4.62-5.84c5.96-10.88,9.66-22.58,11.59-34.75c0.67-4.2-0.53-8.68-0.85-13.04c-0.63-8.58-1.6-17.14-1.45-25.76
		c0.08-4.4,0.79-8.7,2.72-12.72c2.94-6.1,7.94-8.54,14.56-8.27c6.35,0.26,11.25,2.73,14.03,8.67c2.15,4.59,2.49,9.51,2.31,14.45
		c-0.2,5.4-0.71,10.8-1.07,16.19c-0.04,0.52,0,1.05,0,2.07c2.24-4.52,4.15-8.64,6.28-12.65c4.69-8.79,10.12-16.99,17.43-23.96
		c10.53-10.04,30.84-6.93,37.8,2.42c4.25,5.71,6.16,12.18,7.24,19.03c1.25,7.92,0.95,15.92,1.24,23.89
		c0.12,3.35-1.93,6.03-4.33,8.24c-6.32,5.8-18.32,6.38-25.21,1.25c-2.91-2.17-4.49-5.02-4.24-8.77c0.42-6.16,0.93-12.32,0.44-18.49
		c-0.23-2.92-0.68-5.8-1.83-8.51c-1.28-3-3.07-3.61-5.98-2.08c-2.26,1.19-3.97,3.02-5.52,4.99c-5.63,7.15-9.58,15.25-13.3,23.48
		c-6.17,13.66-11.51,27.63-15.73,42.02c-1.04,3.55-1.21,7.24-1.82,10.86c-0.53,3.15-1.52,6.05-3.84,8.36
		c-4.07,4.04-9.4,3.19-12.05-1.9c-1.34-2.58-1.69-5.41-2.04-8.23c-0.32-2.61-0.63-5.21-0.98-8.07c-0.87,0.82-1.12,1.75-1.52,2.58
		c-2.96,6.1-6.46,11.84-11.77,16.21c-5.99,4.92-12.74,7.07-20.37,4.66c-5.1-1.61-8.45-5.43-11.25-9.77c-3.79-5.9-6-12.46-7.88-19.15
		C741.33,716.83,741.16,716.16,740.89,715.12z M730.91,692.01c-0.39-8.13-2.23-15.22-4.75-22.15c-1.9-5.23-4.09-10.34-7.78-14.6
		c-3.94-4.54-8.46-4.62-12.72-0.39c-3.08,3.06-4.92,6.88-6.24,10.92c-5.28,16.22-6.08,32.76-3.16,49.5
		c0.75,4.32,2.03,8.51,4.54,12.19c2.87,4.22,6.77,5.28,11.44,3.17c2.93-1.32,5.21-3.46,7.07-6
		C726.55,714.72,729.76,703.37,730.91,692.01z"/>
	<path d="M332.49,757.93c-5.78-0.01-11.5-0.41-17.07-2.16c-18.7-5.85-22.34-23.12-15.21-37.1c3.05-5.98,7.57-10.59,13.62-13.58
		c3.97-1.96,12.65-0.33,15.64,2.89c1.94,2.08,2.1,4.98,0.4,8.13c-1.61,2.97-4,5.31-6.39,7.64c-1.96,1.92-3.54,4.09-4.46,6.7
		c-1.65,4.69,0.26,8.8,4.9,10.58c6.76,2.58,14.65,0.61,19.8-4.96c7.48-8.08,7.16-18.51-0.9-26.81c-5.8-5.98-13.11-9.46-20.76-12.33
		c-4.68-1.76-9.52-2.99-14.34-4.29c-1.3-0.35-1.63-0.05-1.94,1.14c-2.27,8.69-5.43,17.02-9.92,24.83
		c-3.97,6.93-8.81,13.13-15.15,18.08c-7.52,5.87-16.06,8.97-25.58,9.28c-7.4,0.24-14.69-0.57-21.8-2.74
		c-12.64-3.86-21.9-11.7-26.88-23.95c-6.18-15.2-7.73-30.99-3.12-46.86c6.19-21.27,25.52-35.83,47.58-36.57
		c14.08-0.47,24.41,6.74,27.65,19.46c1.63,6.39,0.62,12.71-1.33,18.85c-3.65,11.54-11.29,19.53-22.31,24.38
		c-5.46,2.4-10.93,4.77-16.42,7.1c-1.05,0.45-1.45,0.89-1.2,2.14c0.96,4.78,2.23,9.45,4.33,13.86c4.37,9.21,9.93,11.9,19.88,9.65
		c7.53-1.7,13.64-5.73,18.56-11.58c8.09-9.6,12.13-21.04,14.81-33.08c0.15-0.65,0.05-1.2-0.42-1.72
		c-6.03-6.68-7.26-14.79-6.71-23.32c0.8-12.31,6.99-21.71,16.83-28.58c15.55-10.85,32.6-12.43,50.19-6.08
		c12.71,4.59,19.84,16.09,19.46,29.57c-0.14,4.89-2.2,7.53-6.96,8.82c-3.17,0.86-6.32,0.75-9.4-0.42c-4.08-1.56-6.13-4.52-6.3-8.88
		c-0.25-6.28-2.04-11.9-7.32-15.86c-5.45-4.09-12.06-2.9-15.02,3.09c-3.54,7.15-5.59,14.8-5.27,22.88c0.3,7.53,3.86,13.3,9.95,17.63
		c5.77,4.1,12.36,6.55,18.78,9.32c4.59,1.98,9.15,4.01,13.33,6.78c7.44,4.92,11.74,11.69,12.03,20.72
		c0.29,9.06-1.5,17.56-7.66,24.61c-5.29,6.05-12.31,9.07-19.95,10.86C344.56,757.43,338.54,757.83,332.49,757.93z M235.78,689.56
		c6.15-2.7,12.33-4.75,17.46-8.73c7.37-5.72,9.86-16.87,5.97-25.27c-2.31-4.97-6.15-6.36-11.11-4c-2.26,1.07-3.99,2.74-5.37,4.8
		c-2.68,3.99-4.05,8.47-5.02,13.12C236.35,675.99,235.91,682.59,235.78,689.56z"/>
	<path d="M632.05,642.41c-0.13-17.14-1.25-34.22-3.83-51.19c-0.77-5.07,1.16-9.21,5.26-12.14c6.34-4.52,13.4-5.54,20.79-3.19
		c5.67,1.8,8.77,5.87,9.18,11.85c1.26,18.62,0.41,37.16-2.27,55.62c-2.58,17.83-6.71,35.26-13.47,52
		c-5.15,12.76-11.76,24.65-21.23,34.79c-2.85,3.05-5.94,5.82-9.22,8.41c-8.3,6.57-17.38,7.38-27.08,3.88
		c-9.29-3.36-15.89-9.96-21.31-17.91c-7.35-10.79-11.84-22.85-15.4-35.29c-4.33-15.1-6.99-30.53-8.85-46.11
		c-2.21-18.48-3.27-37.02-3.39-55.63c-0.05-8.38,3.79-14.27,10.82-18.04c8.71-4.67,17.81-5.11,26.75-0.56
		c5.41,2.75,7.89,7.32,7.28,13.52c-1.34,13.54-2.13,27.12-2.07,40.72c0.1,23.22,1.81,46.29,8.23,68.77
		c2.19,7.68,4.92,15.17,9.2,21.99c1.33,2.12,2.83,4.12,4.84,5.68c1.43,1.11,2.91,1.39,4.68,0.8c4.25-1.41,7.2-4.36,9.56-7.97
		c3.93-6.01,5.98-12.77,7.54-19.7c2.6-11.55,3.61-23.29,3.97-35.08C632.18,652.55,632.05,647.48,632.05,642.41z"/>
	<path d="M151.76,629.59c0-11.03,0.02-22.06-0.01-33.09c-0.02-6.17-0.18-12.35-0.16-18.52c0-1.42-0.49-1.73-1.79-1.72
		c-6.81,0.05-13.62,0.1-20.42,0c-7.74-0.11-12.52-6.76-9.88-13.57c1.41-3.63,4.93-6.18,8.84-6.18c18.2-0.03,36.4-0.02,54.6,0
		c3.38,0,5.55,1.89,6.88,4.85c1.31,2.91,1.6,6.03,1.55,9.16c-0.19,11.03-0.16,22.06-0.64,33.08c-0.59,13.58-1.55,27.14-2.56,40.7
		c-0.8,10.79-1.41,21.6-2.84,32.33c-2.31,17.35-5.37,34.53-12.52,50.69c-3.99,9.02-9.41,17.12-17.47,22.94
		c-13.3,9.61-27.78,12.76-43.03,5.13c-11.23-5.62-18.05-15.37-21.99-27.11c-5.1-15.18-4.29-30.47-0.34-45.73
		c2.78-10.73,7.18-20.81,12.66-30.43c2.88-5.05,8.72-6.71,13.61-3.95c4.75,2.68,6.38,8.58,3.62,13.55
		c-5.63,10.12-10.19,20.64-12.28,32.09c-2.01,11.05-1.92,21.96,3.1,32.36c1.7,3.53,3.9,6.73,6.86,9.33
		c7.25,6.36,15.59,5.58,21.57-2.01c4.17-5.28,6.46-11.45,8.23-17.82c3.47-12.5,4.87-25.3,5.53-38.21
		c0.73-14.22-0.35-28.43-0.45-42.64c-0.01-1.73,0-3.47,0-5.2C152.2,629.59,151.98,629.59,151.76,629.59z"/>
	<path d="M925.98,700.95c0.06,9.89-0.18,20.32,2.3,30.54c0.46,1.89,1.12,3.72,2.14,5.39c1.62,2.64,3.49,3.42,6.53,2.73
		c4.32-0.98,7.34-3.82,9.9-7.19c4.86-6.39,7.75-13.75,10.12-21.31c2.77-8.82,4.76-17.81,5.56-27.04c0.4-4.57,3.32-7.05,7.44-6.39
		c3.34,0.53,5.33,2.85,5,6.25c-1.24,12.75-3.8,25.22-8.24,37.26c-2.75,7.46-6.19,14.56-11.35,20.69
		c-7.88,9.36-17.7,13.71-29.95,10.84c-9.22-2.16-14.47-8.81-18.01-17.07c-3.12-7.3-4.5-15.01-4.9-22.87
		c-0.95-18.5-1.76-37-2.24-55.51c-0.13-4.92-0.31-9.85-0.4-14.77c-0.03-1.63-0.39-2.56-2.36-2.31c-1.71,0.21-3.47,0.08-5.2,0.04
		c-5.04-0.12-9.29-4.12-9.53-8.96c-0.29-5.68,3.18-10.07,8.56-10.66c2.06-0.22,4.16-0.2,6.24-0.14c1.43,0.04,2-0.4,1.89-1.88
		c-0.31-4.44-0.09-8.88,0.08-13.31c0.14-3.68,0.72-7.31,2.02-10.8c2.52-6.79,7.21-10.04,14.44-10.01
		c7.58,0.04,12.88,3.61,15.32,10.23c1.75,4.74,1.71,9.66,1.6,14.59c-0.06,2.98-0.17,5.97-0.43,8.94c-0.14,1.67,0.21,2.31,2.05,2.25
		c3.33-0.1,6.67-0.22,9.99,0.14c5.49,0.59,9.52,4.52,9.67,9.44c0.18,5.89-3.75,10.05-9.69,10.15c-4.03,0.07-8.06,0.06-12.09-0.01
		c-1.2-0.02-1.64,0.26-1.78,1.55c-1.98,18.9-4.25,37.78-4.53,56.82C926.11,699.2,926.05,699.82,925.98,700.95z"/>
	<path d="M423.74,758.22c-6.64,0.19-14.24-0.89-21.14-4.78c-9.65-5.44-15.21-13.53-14.58-24.92c0.42-7.63,4.26-13.37,11.16-16.86
		c3.41-1.73,11.12-0.24,13.73,2.5c1.38,1.45,1.63,3.15,1.07,5.02c-0.62,2.05-1.91,3.68-3.3,5.24c-0.51,0.57-1.07,1.09-1.61,1.63
		c-5.17,5.17-4.86,9.95,0.95,14.45c8.86,6.86,20.68,5.53,26.52-2.99c3.67-5.35,3.69-11.48-0.05-16.94
		c-3.62-5.28-8.87-8.5-14.53-11.14c-5.36-2.5-11-4.2-16.73-5.65c-16.79-4.26-24.23-18.86-17.77-35.06
		c4.4-11.03,12.98-17.7,23.93-21.27c12.1-3.94,24.3-3.89,35.85,1.94c9.38,4.73,13.95,12.79,13.88,23.33c-0.03,4.24-1.87,6.51-6,7.58
		c-2.97,0.77-5.94,0.68-8.78-0.56c-3.22-1.4-4.93-3.81-5.04-7.44c-0.15-5.22-1.82-9.82-6.17-13.07c-5.24-3.92-11.35-2.4-13.92,3.61
		c-2.66,6.22-4.62,12.64-3.8,19.57c0.62,5.19,3.21,9.22,7.27,12.39c4.6,3.59,9.99,5.67,15.31,7.87c3.78,1.57,7.56,3.11,11.19,5.03
		c8.62,4.56,13.78,11.26,13.46,21.4c-0.35,11.17-4.86,19.83-15.33,24.7C441.58,757.39,433.31,758.2,423.74,758.22z"/>
	<path d="M474.06,668.82c-0.07-6.78-0.79-13.6,1.05-20.28c2.68-9.71,12.57-14.73,22.04-11.17c5.53,2.08,7.96,6.65,9.18,12.01
		c1.37,6,1.31,12.1,1.02,18.21c-0.67,13.93-2.71,27.75-3.22,41.69c-0.2,5.41-0.36,10.82,0.99,16.12c0.63,2.46,1.48,4.96,4.33,5.6
		c2.96,0.66,4.59-1.51,6.09-3.51c4.04-5.4,6.44-11.63,8.6-17.93c2.91-8.47,5.23-17.08,6.1-26.05c0.5-5.12,4-7.62,8.38-6.25
		c2.7,0.84,4.21,2.74,4.03,5.56c-0.42,6.8-1.79,13.46-3.37,20.07c-2.28,9.61-5.29,18.96-10.29,27.55
		c-3.83,6.58-8.5,12.36-15.83,15.36c-8.36,3.42-16.33,1.51-22.18-5.39c-4.81-5.67-7.52-12.42-9.63-19.42
		c-4.02-13.29-5.69-26.97-6.68-40.75C474.4,676.44,474.26,672.63,474.06,668.82z"/>
	<path d="M344.11,864.22c-4.71,8.14-10.85,8.12-14.22,0.02c-0.74,1.28-1.36,2.57-2.19,3.72c-3.03,4.22-8.6,4.1-11.5-0.23
		c-1.39-2.07-2.06-4.37-2.06-6.87c0.01-4.44,0.05-8.89-0.04-13.33c-0.02-1.26,0.16-3.18-1.16-3.46c-1.43-0.3-1.83,1.63-2.36,2.75
		c-2.66,5.61-4.22,11.58-5.59,17.6c-0.26,1.14-0.56,2.31-1.05,3.36c-0.69,1.48-1.88,2.52-3.62,2.25c-1.85-0.28-2.68-1.65-2.78-3.4
		c-0.31-5.75-0.96-11.48-1.01-17.24c-0.02-2.43-0.2-4.85,0.06-7.27c0.35-3.32,1.94-4.95,4.79-4.84c2.79,0.1,4.38,1.92,4.47,5.18
		c0.04,1.3,0.01,2.6,0.01,4.34c0.97-1.81,1.66-3.28,2.51-4.66c1.43-2.35,3.43-3.81,6.35-3.54c2.95,0.27,4.82,1.95,5.91,4.59
		c1.13,2.74,1.39,5.64,1.3,8.57c-0.12,3.96-0.22,7.91,0.52,11.82c0.06,0.34,0.08,0.7,0.21,1.01c0.28,0.68,0.35,1.67,1.26,1.73
		c0.72,0.05,1.18-0.7,1.48-1.32c1.67-3.43,3.24-6.79,2.7-10.87c-0.47-3.55-0.94-7.17-0.3-10.78c0.52-2.91,2.09-4.26,4.77-4.22
		c2.44,0.04,3.8,1.28,4.29,4.21c0.65,3.88-0.06,7.75-0.4,11.61c-0.22,2.43-0.32,4.85-0.26,7.28c0.03,1.23-0.06,2.82,1.33,3.22
		c1.55,0.45,2.04-1.17,2.56-2.22c2.17-4.41,3.52-9.01,3.3-14.01c-0.12-2.76-0.34-5.55,0.32-8.29c0.61-2.55,1.93-3.67,4.31-3.67
		c2.52,0,3.96,1.17,4.56,3.68c0.58,2.41,0.13,4.82,0,7.59c1.11-2.24,1.66-4.33,2.78-6.17c1.43-2.34,3.2-4.04,6.18-3.77
		c3.1,0.28,4.8,2.23,5.8,4.96c0.93,2.55,1.08,5.23,1.37,7.98c0.56-1.61,1.11-3.22,1.67-4.83c0.69-1.97,1.52-3.88,2.79-5.56
		c2.8-3.7,7.87-3.45,10.25,0.56c1.84,3.1,2.03,6.58,1.99,10.07c-0.05,3.75-0.25,7.5,0.39,11.22c0.21,1.21,0.15,3.03,1.39,3.2
		c1.46,0.21,1.81-1.65,2.31-2.8c1.19-2.75,1.92-5.57,1.9-8.65c-0.02-4.3,0.98-8.4,3.78-11.86c1.53-1.89,3.47-3.12,5.88-3.68
		c3.2-0.75,5.74,0.14,7.68,2.78c0.53,0.72,1.01,1.47,1.61,2.34c0.2-0.76,0.34-1.36,0.52-1.95c0.69-2.21,2.37-3.34,4.74-3.23
		c2.16,0.1,3.46,1.24,3.99,3.56c0.86,3.74,0.08,7.46-0.18,11.19c-0.22,3.11-0.66,6.22-0.27,9.34c0.12,0.97,0.22,2.09,1.39,2.31
		c1.07,0.2,1.58-0.78,2-1.55c1.84-3.38,3.27-6.85,3-10.85c-0.25-3.73-0.34-7.48-0.4-11.23c-0.02-1.2-0.28-1.71-1.62-1.71
		c-2.16-0.01-3.16-0.99-3.11-2.76c0.06-2.02,1.28-2.84,3.15-2.73c1.32,0.08,1.45-0.61,1.44-1.66c-0.01-1.73-0.08-3.47,0.44-5.16
		c0.71-2.29,2.18-3.41,4.42-3.31c2.39,0.1,3.88,1.36,4.36,3.7c0.34,1.65,0.29,3.33,0.15,4.98c-0.1,1.15,0.24,1.52,1.33,1.44
		c0.69-0.05,1.4-0.05,2.08,0.05c1.67,0.24,2.69,1.23,2.63,2.93c-0.06,1.63-1.11,2.42-2.73,2.56c-3.95,0.32-3.91,0.34-4.3,4.32
		c-0.52,5.32-0.97,10.64-0.84,15.99c0.05,1.95,0.18,3.89,0.82,5.74c0.67,1.97,1.78,2.3,3.48,1.08c0.8-0.57,1.49-1.27,1.96-2.14
		c1.92-3.5,3.35-7,2.69-11.25c-0.54-3.52-0.96-7.17-0.27-10.77c0.53-2.77,2.07-4.09,4.68-4.08c2.41,0.01,3.76,1.17,4.29,3.94
		c0.77,4.02-0.02,8.02-0.35,12.02c-0.22,2.7-0.38,5.4-0.17,8.11c0.07,0.96,0.24,2.08,1.38,2.33c1.07,0.23,1.63-0.73,2-1.52
		c1.81-3.79,3.67-7.45,2.94-12.02c-1.07-6.66,3.78-14.09,9.62-15.52c7.34-1.8,14.07,1.56,16.68,8.83
		c2.64,7.33,2.71,14.61-2.52,21.07c-3.3,4.07-8.81,5.62-13.75,4.01c-4.23-1.37-6.65-4.35-7.33-8.87c-0.79,0.44-0.76,1.27-1.1,1.86
		c-0.52,0.9-0.89,1.89-1.46,2.75c-1.59,2.42-3.58,4.32-6.76,4.08c-2.93-0.22-4.17-2.43-5.3-4.72c-0.15-0.3-0.32-0.59-0.57-1.05
		c-0.78,1.27-1.44,2.47-2.23,3.58c-2.05,2.89-4.78,4.39-8.4,3.83c-3.31-0.51-4.91-2.85-5.96-5.73c-0.12-0.32-0.25-0.64-0.4-1.05
		c-0.96,1.15-1.79,2.35-2.83,3.33c-3.04,2.89-6.91,2.36-9.2-1.15c-1.06-1.63-1.54-3.52-2.41-5.5c-2.15,3.93-3.8,8.24-8.7,8.91
		c-4.75,0.64-8.37-1.39-10.59-5.88c-0.73,1.22-1.31,2.38-2.06,3.42c-2.92,4.05-8.76,3.71-11.25-0.65c-1.51-2.64-1.7-5.55-1.56-8.48
		c0.2-4.16,0.4-8.32,0-12.47c-0.09-0.94,0-2.34-0.95-2.56c-1.23-0.29-1.52,1.17-1.95,2.05c-2.89,5.98-4.38,12.39-5.79,18.83
		c-0.22,1.01-0.48,2.02-0.73,3.03c-0.33,1.36-0.87,2.54-2.51,2.62c-1.77,0.09-3.33-0.37-4.24-2.04c-0.82-1.51-0.96-3.17-0.89-4.85
		c0.24-5.68,0.67-11.36,0.04-17.05c-0.11-0.98,0.11-2.42-1.09-2.62c-1.06-0.17-1.38,1.21-1.78,2.04c-2.68,5.61-4.2,11.58-5.5,17.61
		c-0.15,0.68-0.28,1.36-0.45,2.03c-0.77,3-1.66,3.94-3.58,3.82c-3.16-0.21-3.65-0.7-4.21-4.23
		C344.23,864.99,344.18,864.66,344.11,864.22z M463.4,859.92c0.21,0.85,0.31,1.39,0.47,1.91c1.02,3.27,2.94,5.07,5.34,5.03
		c2.75-0.05,4.76-1.86,5.71-5.19c0.74-2.58,0.81-5.22,0.52-7.85c-0.46-4.1-1.37-8.09-4.1-11.38c-1.21-1.46-2.7-2.43-4.71-2.06
		c-3.76,0.7-7.19,6.83-5.89,10.63c0.66-1.74,1.25-3.43,1.94-5.08c0.58-1.36,1.59-2.24,3.12-1.55c1.6,0.72,1.09,2.04,0.55,3.2
		c-0.95,2.01-1.79,4.06-2.27,6.24c-0.49,2.21,0.48,3.23,2.75,2.92c1.63-0.22,2.75-1.19,3.76-2.39c0.51-0.61,1.2-1.03,2-0.43
		c0.78,0.58,0.88,1.33,0.48,2.21c-0.35,0.78-0.89,1.4-1.5,1.97C469.3,860.2,466.6,860.61,463.4,859.92z M399.18,856.07
		c0.08,2.69,0.23,5.19,1.23,7.52c1.11,2.57,3.05,2.93,5.02,0.92c0.67-0.68,1.21-1.52,1.67-2.36c3.05-5.47,2.59-10.89-0.36-16.23
		c-0.63-1.13-1.24-2.5-2.86-2.35c-1.48,0.13-2.19,1.35-2.77,2.56C399.61,849.34,399.32,852.79,399.18,856.07z"/>
	<path d="M968.55,647.78c0.69-4.99,1.35-9.87,2.03-14.74c2.16-15.52,4.32-31.04,6.48-46.56c1.16-8.38,2.29-16.76,3.49-25.14
		c0.56-3.86,2.47-5.86,5.65-6.18c4.17-0.43,7.56,2.86,7,7.01c-1.77,13.12-3.63,26.24-5.46,39.35c-2.16,15.52-4.33,31.04-6.49,46.56
		c-0.07,0.48-0.04,1.01-0.23,1.43c-2.51,5.25-5.04,10.49-7.58,15.73c-0.22,0.45-0.51,0.88-1.1,0.76c-0.47-0.09-0.63-0.47-0.71-0.91
		C970.6,659.29,969.56,653.49,968.55,647.78z"/>
	<path d="M492.21,601.23c1.05-3.4,2.41-6.15,4.68-8.4c1.21-1.19,2.59-1.77,4.27-1.84c7.53-0.3,12.67,6.14,10.77,13.88
		c-1.89,7.69-6.33,13.95-11.88,19.45c-2.42,2.4-5.13,4.45-8.12,6.11c-0.64,0.36-1.22,0.79-2.07,0.19
		c-5.89-4.2-11.68-8.48-16.08-14.34c-1.34-1.78-2.53-3.64-3.49-5.65c-3.69-7.67,0.86-16.85,9.23-18.58
		c3.51-0.73,6.21,0.77,8.56,3.17C489.67,596.88,490.84,598.85,492.21,601.23z"/>
	<path d="M621.49,825.73c1.11-1.46,1.8-2.48,2.59-3.41c5.27-6.24,13.38-6.24,18.71,0c3.83,4.49,5.56,9.86,6.32,15.57
		c1,7.48,0.51,14.8-2.63,21.8c-4.63,10.3-14.33,12.2-22.95,8.87c-6.89-2.66-9.61-11.74-5.76-18.08c2.5-4.12,8.85-5.57,12.9-2.91
		c1.36,0.89,2.05,2.12,1.28,3.73c-0.78,1.63-2.15,1.81-3.7,1.28c-3.55-1.2-5.99,0.77-5.54,4.5c0.31,2.65,1.83,4.57,4.1,5.24
		c2.73,0.8,4.95,0.01,6.63-2.21c2.95-3.89,4.18-8.49,4.53-13.21c0.51-6.9-0.37-13.71-2.73-20.26c-1.51-4.19-3.3-4.52-6.31-1.17
		c-3.08,3.43-4.67,7.68-6.06,11.97c-0.77,2.37-1.4,4.79-1.88,7.23c-0.4,2.02-1.59,3.06-3.47,3.31c-1.87,0.25-2.72-1.13-3.32-2.6
		c-1.65-4.08-1.53-8.44-1.84-12.7c-0.26-3.52-0.17-7.07-0.17-10.61c0-2.78,1.66-4.42,4.36-4.44c3.13-0.03,4.91,1.62,4.94,4.58
		C621.5,823.18,621.49,824.14,621.49,825.73z"/>
	<path d="M540.48,855.4c0.19-4.26,3.61-9.15,8.09-13.38c1.49-1.41,1.71-2.19,0.47-3.94c-3.68-5.2-3.54-12.28,0.02-16.92
		c3.59-4.67,10.39-6.69,16.14-4.79c5.22,1.72,7.43,6.22,5.55,11.36c-1.1,3-3.06,5.43-5.32,7.61c-1.19,1.15-2.52,2.17-3.86,3.17
		c-3.75,2.79-3.77,2.77-0.26,5.84c4.03,3.52,8.26,6.78,12.47,10.06c1.19,0.93,1.68,0.66,2.24-0.56c1.05-2.28,1.82-4.64,2.46-7.05
		c0.32-1.2,0.57-2.44,1.26-3.5c0.9-1.39,2.18-1.64,3.64-1.06c1.46,0.58,1.89,1.68,1.51,3.19c-1.03,4.06-2.56,7.92-4.88,11.42
		c-0.81,1.23-0.65,1.82,0.51,2.61c1.89,1.29,3.65,2.77,5.47,4.15c1.38,1.05,1.84,2.39,0.72,3.76c-1.13,1.39-2.52,1.1-3.85,0.05
		c-1.69-1.33-3.47-2.55-5.11-3.95c-1.24-1.06-2.02-1.19-3.39,0.08c-5.27,4.91-11.53,7.61-18.85,7.45c-3.39-0.07-6.59-0.96-9.42-2.88
		C542.43,865.62,540.39,862.19,540.48,855.4z M550.12,853.06c0,2.91,0.82,5.21,2.81,7.38c4.99,5.42,13.02,4.88,18.43-0.71
		c0.8-0.82-0.08-1.06-0.49-1.37c-5.57-4.24-11.07-8.56-16.09-13.47c-0.71-0.7-1.16-0.78-1.76,0.1
		C551.37,847.45,550.13,850.03,550.12,853.06z M551.31,830.21c-0.18,2.14,0.94,4.25,2.39,6.26c0.48,0.66,0.87,0.92,1.65,0.35
		c2.37-1.74,4.51-3.68,5.76-6.42c0.97-2.13,1.12-4.27-0.11-6.36c-1.65-2.79-4.33-3.23-6.77-1.11
		C552.14,824.74,551.32,827.08,551.31,830.21z"/>
	<path d="M739.74,861.57c-2.19,3.8-3.44,8.12-8.3,8.65c-4.43,0.48-7.79-1.43-9.95-5.64c-0.95,1.41-1.63,2.6-2.61,3.58
		c-3.31,3.27-7.42,2.81-9.73-1.21c-2.41-4.2-3.04-8.9-3.43-13.61c-0.27-3.3-0.82-6.63-0.2-9.95c0.54-2.9,2.09-4.26,4.77-4.22
		c2.44,0.04,3.8,1.27,4.3,4.2c0.65,3.88-0.06,7.75-0.4,11.61c-0.24,2.7-0.38,5.4-0.2,8.1c0.07,1.03,0.2,2.27,1.44,2.49
		c1.15,0.2,1.65-0.91,2.1-1.73c1.44-2.63,2.56-5.33,2.38-8.47c-0.19-3.45,0.63-6.72,2.22-9.82c3.08-5.98,11.46-9.41,17.32-2.64
		c0.78-1.21,1.46-2.46,3.07-2.75c3.53-0.64,5.95,1.5,6.06,5.53c0.15,5.76-0.26,11.51-0.64,17.25c-0.23,3.46-0.41,6.93-1.46,10.27
		c-1.77,5.59-4.75,10.09-10.97,11.32c-3.17,0.63-6.37,0.55-9.33-1.04c-2.04-1.1-3.24-2.81-3.41-5.13c-0.12-1.65,0.54-2.9,2.31-3.16
		c1.7-0.25,3.06,0.24,3.36,2.2c0.29,1.95,1.62,2.86,3.36,3.2c1.98,0.39,3.72-0.06,4.94-1.85c2.19-3.23,2.64-6.96,3.04-10.68
		C739.98,866.04,740.02,863.99,739.74,861.57z M728.19,855.59c0.12,2.47,0.26,4.88,1.16,7.18c0.46,1.17,0.99,2.39,2.46,2.52
		c1.5,0.13,2.21-1.02,2.8-2.12c2.06-3.85,2.82-8.06,3.25-12.35c0.18-1.82-0.34-3.42-1.34-4.89c-0.89-1.3-2.02-2.44-3.7-2.3
		c-1.64,0.13-2.4,1.51-2.99,2.87C728.56,849.41,728.34,852.51,728.19,855.59z"/>
	<path d="M652.29,854.37c-0.69-7.44,4.88-14.19,12.32-15.28c6.73-0.99,10.92,3.7,9.09,10.23c-0.91,3.27-2.9,5.63-5.94,7.1
		c-0.75,0.36-1.54,0.63-2.29,1c-1.5,0.76-3.77,0.77-2.66,3.69c1.43,3.77,2.92,5.19,5.75,4.69c2.61-0.45,4.61-1.82,6.19-3.88
		c1.98-2.59,2.99-5.61,3.71-8.74c0.13-0.54,0.07-1.05-0.18-1.6c-3.07-6.67,0.96-12.65,6.24-14.83c3.83-1.58,7.71-1.71,11.57-0.28
		c3.5,1.3,5.5,4.47,5.48,8.06c-0.01,1.95-1.06,2.75-2.8,2.92c-1.98,0.19-3.38-0.8-3.58-2.61c-0.16-1.48-0.43-2.89-1.49-4.01
		c-1.76-1.86-3.99-1.5-4.98,0.84c-0.43,1.01-0.77,2.09-0.98,3.17c-0.81,4.17,0.36,6.61,4.15,8.53c1.91,0.97,3.92,1.76,5.86,2.68
		c3.33,1.58,5.17,4.11,4.9,7.92c-0.28,3.96-2.13,6.87-5.97,8.21c-3.69,1.28-7.5,1.46-11.28,0.52c-3.44-0.86-5.22-3.14-5.26-6.34
		c-0.04-3.44,2.34-7.31,5.1-8.18c0.94-0.3,1.94-0.21,2.88,0.07c1.87,0.57,2.38,1.87,1.27,3.49c-0.66,0.97-1.57,1.76-2.28,2.69
		c-0.7,0.91-1.15,1.98-0.53,3.09c0.63,1.11,1.8,1.24,2.93,1.17c3.93-0.22,6.18-4.68,4.01-8c-1.69-2.59-4.39-3.73-7.17-4.7
		c-4.25-1.49-4.23-1.46-5.88,2.66c-1.88,4.71-4.49,8.85-9.59,10.59c-9.12,3.11-17.76-2.59-18.58-12.18
		C652.22,856.18,652.29,855.27,652.29,854.37z M661.91,853.82c1.61-0.36,2.83-1,4.02-1.68c2.03-1.16,3.02-2.99,3-5.3
		c-0.01-1.49-0.31-3.14-1.92-3.56c-1.69-0.44-2.8,0.8-3.52,2.25C662.23,848.07,662.12,850.82,661.91,853.82z"/>
	<path d="M278.36,858.46c-2.29,0-4.59,0.09-6.87-0.03c-1.53-0.08-2.15,0.29-1.88,1.93c0.31,1.84,0.35,3.73,0.67,5.57
		c0.28,1.6-0.39,2.5-1.73,3.13c-4.08,1.92-8.55-0.58-9.09-5.09c-0.08-0.69-0.23-1.38-0.25-2.07c-0.04-1.84,0.22-3.69-2.62-3.79
		c-1.26-0.04-1.76-1.4-1.69-2.73c0.08-1.49,0.98-2.47,2.31-2.51c1.6-0.05,1.54-0.88,1.52-1.99c-0.11-6.2,0.21-12.35,2.1-18.31
		c1.17-3.68,2.92-7.03,5.74-9.76c7.1-6.84,17.55-5.37,22.45,3.22c3.11,5.45,3.96,11.5,4.27,17.63c0.36,7.08,0.05,14.15-0.84,21.18
		c-0.41,3.22-1.4,4.49-3.4,4.28c-2.06-0.22-2.71-1.75-2.18-5.13c0.87-5.54,0.87-5.54-4.75-5.54
		C280.86,858.46,279.61,858.46,278.36,858.46z M278.61,852.77c2.5,0,5-0.08,7.49,0.03c1.41,0.06,1.78-0.49,1.8-1.78
		c0.05-4.66-0.16-9.29-1-13.87c-0.63-3.48-1.35-6.96-3.37-9.97c-2.46-3.67-6.55-3.91-9.47-0.59c-1.16,1.32-1.9,2.89-2.44,4.55
		c-2.2,6.62-2.3,13.48-2.29,20.35c0,1.01,0.41,1.31,1.37,1.3C273.33,852.74,275.97,852.76,278.61,852.77z"/>
	<path d="M496.41,846.32c1.14-1.61,1.86-3.4,3.04-4.94c3.15-4.11,8.92-3.64,11.31,0.97c1.54,2.98,1.79,6.22,1.7,9.51
		c-0.11,3.95-0.21,7.9,0.54,11.81c0.08,0.41,0.17,0.81,0.3,1.2c0.2,0.58,0.34,1.33,1.03,1.45c0.81,0.14,1.21-0.61,1.54-1.18
		c1.9-3.28,2.82-6.89,3.49-10.59c0.24-1.3-0.22-3.41,2.01-3.17c2.27,0.24,1.4,2.18,1.23,3.49c-0.52,4.14-1.48,8.18-3.57,11.86
		c-1.48,2.6-3.41,4.58-6.76,4.3c-3.18-0.27-5.16-2.12-6.43-4.9c-0.79-1.73-1.18-3.53-1.17-5.44c0.02-4.37,0.05-8.74-0.02-13.11
		c-0.02-1.27,0.13-3.2-1.13-3.49c-1.43-0.34-1.85,1.59-2.38,2.71c-2.7,5.66-4.26,11.7-5.64,17.79c-0.26,1.14-0.59,2.3-1.1,3.34
		c-0.72,1.47-1.93,2.44-3.68,2.1c-1.75-0.34-2.53-1.65-2.64-3.31c-0.36-5.6-0.68-11.21-0.99-16.81c-0.14-2.63-0.27-5.26,0.04-7.89
		c0.37-3.19,1.93-4.79,4.69-4.72c2.82,0.07,4.45,1.86,4.56,5.08C496.45,843.68,496.41,845,496.41,846.32z"/>
	<path d="M761.16,846.36c1.16-1.69,1.88-3.49,3.08-5.03c3.12-4.01,8.79-3.57,11.2,0.91c1.6,2.97,1.86,6.22,1.78,9.49
		c-0.1,3.95-0.21,7.9,0.51,11.81c0.04,0.2,0.03,0.42,0.1,0.62c0.29,0.83,0.32,2.04,1.33,2.16c0.99,0.12,1.43-0.98,1.83-1.76
		c1.56-3.05,2.49-6.3,3.06-9.66c0.12-0.68,0.22-1.37,0.32-2.06c0.15-1.07,0.75-1.63,1.84-1.51c1.01,0.11,1.47,0.83,1.37,1.76
		c-0.56,5.27-1.51,10.47-4.62,14.92c-2.97,4.24-8.6,4.03-11.48-0.3c-1.38-2.07-2.04-4.38-2.03-6.87c0.01-4.44,0.05-8.88-0.04-13.32
		c-0.03-1.24,0.18-3.17-1.18-3.43c-1.42-0.27-1.82,1.66-2.35,2.78c-2.65,5.61-4.21,11.57-5.58,17.59c-0.26,1.14-0.56,2.3-1.06,3.36
		c-0.69,1.48-1.88,2.51-3.62,2.24c-1.85-0.28-2.68-1.65-2.77-3.41c-0.31-5.74-0.96-11.47-1.01-17.23c-0.02-2.42-0.2-4.84,0.06-7.27
		c0.35-3.32,1.93-4.95,4.77-4.86c2.8,0.09,4.39,1.9,4.49,5.15C761.19,843.74,761.16,845.05,761.16,846.36z"/>
	<path d="M332.71,828.89c0.78-1.1,1.15-2.52,2.86-2.45c1.77,0.08,2.92,1.42,2.83,3.37c-0.04,0.93-0.42,1.74-0.83,2.53
		c-1.17,2.26-2.71,4.94-5.09,5.03c-2.22,0.08-3.99-2.41-5.34-4.45c-1.41-2.13-1.15-4.2,0.61-5.51
		C329.44,826.15,330.74,826.51,332.71,828.89z"/>
	<path d="M446.11,828.83c0.7-0.8,0.94-2.01,2.16-2.33c1.96-0.52,3.88,1.21,3.49,3.42c-0.58,3.31-2.61,5.7-5.41,7.48
		c-0.51,0.33-0.89,0.16-1.31-0.14c-1.63-1.18-3.21-2.39-4.35-4.09c-1.51-2.26-1.39-4.33,0.39-5.71
		C442.79,826.13,444.07,826.47,446.11,828.83z"/>
	<path d="M710.45,828.85c0.62-0.8,0.9-1.91,1.97-2.3c1.88-0.69,3.98,1.01,3.66,3.2c-0.49,3.42-2.58,5.85-5.44,7.67
		c-0.53,0.33-0.9,0.12-1.3-0.18c-1.57-1.14-3.1-2.3-4.22-3.93c-1.61-2.35-1.52-4.46,0.31-5.87
		C707.14,826.14,708.39,826.48,710.45,828.85z"/>
</g>
</svg>
