<?xml version="1.0" encoding="UTF-8"?>
<svg id="Capa_1" data-name="Capa 1" xmlns="http://www.w3.org/2000/svg" viewBox="0 0 1080 1440">
  <defs>
    <style>
      .cls-1 {
        letter-spacing: 0em;
      }

      .cls-2 {
        letter-spacing: -.02em;
      }

      .cls-3 {
        stroke-width: 0px;
      }

      .cls-4 {
        letter-spacing: 0em;
      }

      .cls-5 {
        font-family: Assistant-Bold, Assistant;
        font-size: 113.98px;
        font-weight: 700;
      }

      .cls-6 {
        letter-spacing: -.02em;
      }
    </style>
  </defs>
  <text class="cls-5" transform="translate(145.22 990.8) scale(.99 1)"><tspan x="0" y="0">N</tspan><tspan class="cls-6" x="75.45" y="0">a</tspan><tspan class="cls-2" x="133.24" y="0">t</tspan><tspan class="cls-4" x="173.82" y="0">alia Jimén</tspan><tspan class="cls-1" x="688.1" y="0">e</tspan><tspan x="746" y="0">z</tspan></text>
  <g>
    <path class="cls-3" d="m153.09,1081.08v-46.78h11.34c4.74,0,8.73.91,11.95,2.74,3.22,1.83,5.63,4.47,7.26,7.94,1.62,3.46,2.43,7.64,2.43,12.53s-.81,9.1-2.43,12.64c-1.62,3.54-4.03,6.24-7.23,8.12-3.19,1.87-7.11,2.81-11.77,2.81h-11.56Zm5.22-4.34h5.71c3.76,0,6.87-.78,9.34-2.35,2.47-1.57,4.31-3.77,5.53-6.62,1.22-2.85,1.83-6.27,1.83-10.25s-.61-7.38-1.83-10.18c-1.22-2.8-3.06-4.95-5.53-6.44-2.46-1.5-5.58-2.24-9.34-2.24h-5.71v38.09Z"/>
    <path class="cls-3" d="m212.49,1039.14c-.99,0-1.82-.33-2.5-1-.68-.66-1.02-1.54-1.02-2.63,0-1,.34-1.83,1.02-2.49.68-.66,1.51-1,2.5-1s1.88.33,2.54,1c.66.67.99,1.5.99,2.49,0,1.09-.33,1.97-.99,2.63-.66.67-1.5,1-2.54,1Zm-2.61,41.94v-34.53h5.07v34.53h-5.07Z"/>
    <path class="cls-3" d="m249.77,1081.94c-2.44,0-4.77-.46-6.97-1.39-2.21-.93-4.11-2.05-5.71-3.38l2.61-3.49c1.45,1.19,3,2.18,4.61,2.99,1.62.81,3.51,1.21,5.67,1.21,2.35,0,4.11-.57,5.28-1.71,1.17-1.14,1.76-2.49,1.76-4.06,0-1.23-.4-2.27-1.2-3.1-.8-.83-1.79-1.54-3-2.14-1.2-.59-2.45-1.13-3.77-1.6-1.6-.57-3.2-1.26-4.79-2.06-1.6-.81-2.92-1.83-3.98-3.06-1.06-1.23-1.58-2.82-1.58-4.77,0-2.7,1.02-4.99,3.06-6.87,2.04-1.87,4.89-2.81,8.56-2.81,2.07,0,3.99.38,5.78,1.14,1.78.76,3.31,1.66,4.58,2.71l-2.47,3.35c-1.17-.86-2.38-1.58-3.63-2.17-1.24-.59-2.67-.89-4.26-.89-2.25,0-3.92.53-5,1.6-1.08,1.07-1.62,2.29-1.62,3.67,0,1.14.36,2.08,1.09,2.81.73.73,1.68,1.36,2.85,1.89,1.17.52,2.42,1.04,3.74,1.57,1.69.62,3.34,1.32,4.96,2.1,1.62.78,2.97,1.81,4.06,3.1,1.08,1.28,1.62,3.04,1.62,5.27,0,1.81-.47,3.48-1.41,5.02-.94,1.54-2.33,2.78-4.16,3.7-1.83.93-4.06,1.39-6.69,1.39Z"/>
    <path class="cls-3" d="m297.97,1081.94c-3.01,0-5.73-.73-8.17-2.17-2.45-1.45-4.39-3.51-5.85-6.19-1.45-2.68-2.18-5.92-2.18-9.72s.73-6.92,2.18-9.65c1.45-2.73,3.35-4.83,5.67-6.3,2.32-1.47,4.8-2.21,7.43-2.21,2.82,0,5.24.67,7.26,1.99,2.02,1.33,3.56,3.19,4.61,5.59,1.06,2.4,1.59,5.26,1.59,8.58,0,.52-.02,1.07-.07,1.64-.05.57-.11,1.07-.21,1.5h-24.45l-.07-3.77h20.22c0-3.7-.78-6.52-2.32-8.44-1.55-1.92-3.72-2.88-6.49-2.88-1.69,0-3.33.49-4.93,1.46-1.6.97-2.91,2.49-3.95,4.56-1.03,2.07-1.55,4.71-1.55,7.94s.54,5.65,1.62,7.69c1.08,2.04,2.53,3.58,4.34,4.63,1.81,1.05,3.79,1.57,5.95,1.57,1.69,0,3.24-.26,4.65-.78,1.41-.52,2.75-1.18,4.01-1.99l1.9,3.42c-1.46.95-3.09,1.78-4.9,2.49-1.81.71-3.91,1.07-6.3,1.07Z"/>
    <path class="cls-3" d="m333.2,1081.08v-34.53h4.22l.42,5.13h.21c1.65-1.71,3.39-3.13,5.25-4.27,1.85-1.14,3.93-1.71,6.23-1.71,3.62,0,6.26,1.14,7.93,3.42,1.67,2.28,2.5,5.62,2.5,10.04v21.93h-5.14v-21.29c0-3.32-.53-5.74-1.58-7.26-1.06-1.52-2.78-2.28-5.18-2.28-1.83,0-3.47.46-4.9,1.39-1.43.93-3.06,2.31-4.89,4.16v25.28h-5.07Zm19.66-41.15c-1.27,0-2.36-.31-3.28-.93-.92-.61-1.75-1.33-2.5-2.13-.75-.81-1.47-1.52-2.15-2.14-.68-.62-1.47-.93-2.36-.93-1.08,0-1.89.53-2.43,1.6-.54,1.07-.86,2.48-.95,4.24l-3.52-.21c.1-1.8.38-3.41.85-4.81.47-1.4,1.2-2.53,2.18-3.38.99-.85,2.3-1.28,3.95-1.28,1.27,0,2.35.31,3.24.92.89.62,1.72,1.34,2.47,2.17.75.83,1.48,1.55,2.18,2.17.71.62,1.48.93,2.33.93,1.13,0,1.95-.56,2.47-1.67.51-1.11.82-2.53.91-4.24l3.52.29c-.09,1.71-.38,3.27-.84,4.7-.47,1.43-1.19,2.56-2.15,3.42-.96.85-2.27,1.28-3.91,1.28Z"/>
    <path class="cls-3" d="m393.29,1081.94c-1.88,0-3.57-.38-5.07-1.14-1.5-.76-2.7-1.86-3.59-3.31-.89-1.45-1.34-3.19-1.34-5.23,0-3.8,1.7-6.71,5.11-8.72,3.4-2.02,8.79-3.43,16.17-4.24,0-1.52-.2-3-.6-4.45-.4-1.45-1.13-2.61-2.18-3.49-1.06-.88-2.57-1.32-4.55-1.32s-3.98.4-5.74,1.21c-1.76.81-3.3,1.66-4.62,2.56l-2.04-3.56c.99-.66,2.16-1.35,3.52-2.06s2.86-1.31,4.51-1.78c1.64-.47,3.38-.71,5.22-.71,2.72,0,4.94.59,6.66,1.78,1.72,1.19,2.96,2.83,3.73,4.91.78,2.09,1.17,4.53,1.17,7.33v21.36h-4.23l-.42-4.2h-.21c-1.65,1.38-3.43,2.56-5.35,3.56-1.93,1-3.97,1.5-6.13,1.5Zm1.34-4.2c1.74,0,3.38-.41,4.93-1.24,1.55-.83,3.22-2.03,5-3.6v-10.11c-4.04.47-7.23,1.13-9.58,1.96-2.35.83-4.04,1.84-5.07,3.03-1.03,1.19-1.55,2.56-1.55,4.13,0,2.04.62,3.52,1.87,4.45,1.24.92,2.71,1.39,4.4,1.39Z"/>
    <path class="cls-3" d="m446.42,1081.94c-4.22,0-7.62-1.58-10.18-4.74-2.56-3.16-3.84-7.61-3.84-13.35,0-3.7.69-6.91,2.08-9.61,1.39-2.71,3.21-4.81,5.46-6.3,2.26-1.49,4.7-2.24,7.33-2.24,2.02,0,3.77.36,5.25,1.07,1.48.71,2.97,1.71,4.47,2.99l-.21-5.98v-13.53h5.07v50.84h-4.22l-.43-4.2h-.21c-1.32,1.38-2.88,2.56-4.68,3.56-1.81,1-3.77,1.5-5.89,1.5Zm1.13-4.42c1.64,0,3.22-.41,4.72-1.25,1.5-.83,3-2.05,4.51-3.67v-18.72c-1.55-1.38-3.02-2.35-4.4-2.92-1.39-.57-2.83-.85-4.33-.85-1.93,0-3.68.58-5.25,1.74-1.57,1.16-2.82,2.78-3.73,4.84-.92,2.07-1.37,4.45-1.37,7.16,0,4.23.85,7.56,2.57,10,1.72,2.45,4.15,3.67,7.29,3.67Z"/>
    <path class="cls-3" d="m500.96,1081.94c-2.77,0-5.35-.71-7.75-2.14-2.4-1.42-4.33-3.48-5.78-6.16-1.45-2.68-2.18-5.94-2.18-9.79s.73-7.06,2.18-9.79c1.45-2.73,3.38-4.81,5.78-6.23,2.39-1.42,4.98-2.14,7.75-2.14s5.34.71,7.72,2.14c2.37,1.42,4.3,3.5,5.78,6.23,1.48,2.73,2.22,5.99,2.22,9.79s-.74,7.11-2.22,9.79c-1.48,2.68-3.41,4.74-5.78,6.16-2.37,1.42-4.95,2.14-7.72,2.14Zm0-4.34c2.07,0,3.89-.57,5.46-1.71,1.57-1.14,2.79-2.74,3.66-4.81.87-2.06,1.3-4.47,1.3-7.23s-.43-5.1-1.3-7.19c-.87-2.09-2.09-3.71-3.66-4.88-1.58-1.16-3.39-1.75-5.46-1.75s-3.82.58-5.39,1.75c-1.57,1.16-2.79,2.79-3.67,4.88-.87,2.09-1.3,4.48-1.3,7.19s.44,5.16,1.3,7.23c.87,2.07,2.09,3.67,3.67,4.81,1.57,1.14,3.37,1.71,5.39,1.71Z"/>
    <path class="cls-3" d="m540.07,1081.08v-34.53h4.22l.42,6.34h.21c1.17-2.18,2.6-3.93,4.27-5.23,1.67-1.31,3.49-1.96,5.46-1.96.71,0,1.34.06,1.9.18.56.12,1.1.3,1.62.53l-.98,4.56c-.56-.19-1.07-.33-1.51-.43-.45-.1-1.02-.14-1.72-.14-1.46,0-2.99.61-4.58,1.82s-3,3.33-4.22,6.37v22.5h-5.07Z"/>
    <path class="cls-3" d="m584.24,1081.94c-1.88,0-3.57-.38-5.07-1.14-1.5-.76-2.7-1.86-3.59-3.31-.89-1.45-1.34-3.19-1.34-5.23,0-3.8,1.7-6.71,5.11-8.72,3.4-2.02,8.79-3.43,16.17-4.24,0-1.52-.2-3-.6-4.45-.4-1.45-1.13-2.61-2.18-3.49-1.06-.88-2.57-1.32-4.55-1.32s-3.98.4-5.74,1.21c-1.76.81-3.3,1.66-4.62,2.56l-2.04-3.56c.99-.66,2.16-1.35,3.52-2.06,1.36-.71,2.86-1.31,4.51-1.78,1.64-.47,3.38-.71,5.22-.71,2.72,0,4.94.59,6.66,1.78,1.72,1.19,2.96,2.83,3.73,4.91.78,2.09,1.17,4.53,1.17,7.33v21.36h-4.23l-.42-4.2h-.21c-1.65,1.38-3.43,2.56-5.35,3.56-1.93,1-3.97,1.5-6.13,1.5Zm1.34-4.2c1.74,0,3.38-.41,4.93-1.24,1.55-.83,3.22-2.03,5-3.6v-10.11c-4.04.47-7.23,1.13-9.58,1.96s-4.04,1.84-5.07,3.03c-1.03,1.19-1.55,2.56-1.55,4.13,0,2.04.62,3.52,1.87,4.45,1.24.92,2.71,1.39,4.4,1.39Z"/>
    <path class="cls-3" d="m672.39,1081.94c-4.04,0-7.61-.96-10.71-2.89-3.1-1.92-5.53-4.7-7.29-8.33-1.76-3.63-2.64-7.96-2.64-12.99,0-3.8.53-7.18,1.58-10.15,1.06-2.96,2.53-5.52,4.4-7.65,1.88-2.14,4.1-3.75,6.66-4.84,2.56-1.09,5.37-1.64,8.42-1.64s5.86.61,8,1.82c2.14,1.21,3.86,2.5,5.18,3.88l-2.89,3.49c-1.17-1.28-2.56-2.36-4.16-3.24-1.6-.88-3.6-1.32-5.99-1.32-3.24,0-6.04.79-8.39,2.38-2.35,1.59-4.17,3.85-5.46,6.77-1.29,2.92-1.94,6.37-1.94,10.36s.61,7.53,1.83,10.47c1.22,2.94,3,5.22,5.35,6.84,2.35,1.61,5.19,2.42,8.53,2.42,1.78,0,3.47-.26,5.07-.78,1.6-.52,2.86-1.26,3.8-2.21v-12.74h-10.15v-4.42h14.94v19.37c-1.46,1.57-3.39,2.86-5.82,3.88-2.42,1.02-5.2,1.53-8.35,1.53Z"/>
    <path class="cls-3" d="m711.42,1081.08v-34.53h4.22l.42,6.34h.21c1.17-2.18,2.6-3.93,4.27-5.23,1.67-1.31,3.49-1.96,5.46-1.96.71,0,1.34.06,1.9.18.56.12,1.1.3,1.62.53l-.99,4.56c-.56-.19-1.07-.33-1.51-.43-.45-.1-1.02-.14-1.72-.14-1.46,0-2.99.61-4.58,1.82-1.6,1.21-3,3.33-4.22,6.37v22.5h-5.07Z"/>
    <path class="cls-3" d="m755.6,1081.94c-1.88,0-3.57-.38-5.07-1.14-1.5-.76-2.7-1.86-3.59-3.31-.89-1.45-1.34-3.19-1.34-5.23,0-3.8,1.7-6.71,5.11-8.72,3.4-2.02,8.79-3.43,16.17-4.24,0-1.52-.2-3-.6-4.45-.4-1.45-1.13-2.61-2.18-3.49-1.06-.88-2.57-1.32-4.55-1.32s-3.98.4-5.74,1.21c-1.76.81-3.3,1.66-4.62,2.56l-2.04-3.56c.99-.66,2.16-1.35,3.52-2.06,1.36-.71,2.86-1.31,4.51-1.78,1.64-.47,3.38-.71,5.22-.71,2.72,0,4.94.59,6.66,1.78,1.72,1.19,2.96,2.83,3.73,4.91.78,2.09,1.17,4.53,1.17,7.33v21.36h-4.23l-.42-4.2h-.21c-1.65,1.38-3.43,2.56-5.35,3.56-1.93,1-3.97,1.5-6.13,1.5Zm1.34-4.2c1.74,0,3.38-.41,4.93-1.24,1.55-.83,3.22-2.03,5-3.6v-10.11c-4.04.47-7.23,1.13-9.58,1.96-2.35.83-4.04,1.84-5.07,3.03-1.03,1.19-1.55,2.56-1.55,4.13,0,2.04.62,3.52,1.87,4.45,1.24.92,2.71,1.39,4.4,1.39Zm2.61-37.45l-2.67-2.63,9.86-11.68,3.67,3.42-10.85,10.89Z"/>
    <path class="cls-3" d="m793.37,1050.82v-3.92l4.86-.35h12.33v4.27h-17.19Zm4.65,30.26v-40.51c0-2.32.35-4.32,1.06-5.98.71-1.66,1.77-2.94,3.21-3.84,1.43-.9,3.23-1.35,5.39-1.35.99,0,1.96.11,2.92.32.96.21,1.82.49,2.57.82l-1.13,3.99c-.66-.33-1.32-.56-1.97-.68-.66-.12-1.32-.18-1.97-.18-1.65,0-2.88.6-3.7,1.78-.83,1.19-1.23,2.92-1.23,5.2v40.44h-5.14Z"/>
    <path class="cls-3" d="m833.95,1039.14c-.99,0-1.82-.33-2.5-1-.68-.66-1.02-1.54-1.02-2.63,0-1,.34-1.83,1.02-2.49.68-.66,1.51-1,2.5-1s1.88.33,2.54,1c.66.67.99,1.5.99,2.49,0,1.09-.33,1.97-.99,2.63-.66.67-1.5,1-2.54,1Zm-2.61,41.94v-34.53h5.07v34.53h-5.07Z"/>
    <path class="cls-3" d="m875.73,1081.94c-3,0-5.71-.71-8.1-2.14-2.39-1.42-4.3-3.48-5.71-6.16-1.41-2.68-2.11-5.94-2.11-9.79s.76-7.06,2.29-9.79c1.53-2.73,3.51-4.81,5.95-6.23,2.44-1.42,5.12-2.14,8.03-2.14,2.26,0,4.18.42,5.78,1.25,1.6.83,2.98,1.79,4.16,2.88l-2.68,3.42c-.99-.95-2.06-1.72-3.21-2.31-1.15-.59-2.43-.89-3.84-.89-2.16,0-4.07.58-5.74,1.75-1.67,1.16-2.98,2.79-3.95,4.88-.96,2.09-1.45,4.48-1.45,7.19s.46,5.16,1.38,7.23c.91,2.07,2.19,3.67,3.84,4.81,1.64,1.14,3.57,1.71,5.78,1.71,1.65,0,3.17-.35,4.58-1.03,1.41-.69,2.65-1.53,3.73-2.53l2.25,3.49c-1.5,1.38-3.19,2.46-5.07,3.24-1.88.78-3.85,1.18-5.92,1.18Z"/>
    <path class="cls-3" d="m915.61,1081.94c-1.88,0-3.57-.38-5.07-1.14-1.5-.76-2.7-1.86-3.59-3.31-.89-1.45-1.34-3.19-1.34-5.23,0-3.8,1.7-6.71,5.11-8.72,3.4-2.02,8.79-3.43,16.17-4.24,0-1.52-.2-3-.6-4.45-.4-1.45-1.13-2.61-2.18-3.49-1.06-.88-2.57-1.32-4.55-1.32s-3.98.4-5.74,1.21c-1.76.81-3.3,1.66-4.62,2.56l-2.04-3.56c.99-.66,2.16-1.35,3.52-2.06,1.36-.71,2.86-1.31,4.51-1.78,1.64-.47,3.38-.71,5.22-.71,2.72,0,4.94.59,6.66,1.78,1.72,1.19,2.96,2.83,3.73,4.91.78,2.09,1.17,4.53,1.17,7.33v21.36h-4.23l-.42-4.2h-.21c-1.65,1.38-3.43,2.56-5.35,3.56-1.93,1-3.97,1.5-6.13,1.5Zm1.34-4.2c1.74,0,3.38-.41,4.93-1.24,1.55-.83,3.22-2.03,5-3.6v-10.11c-4.04.47-7.23,1.13-9.58,1.96-2.35.83-4.04,1.84-5.07,3.03s-1.55,2.56-1.55,4.13c0,2.04.62,3.52,1.87,4.45,1.24.92,2.71,1.39,4.4,1.39Z"/>
  </g>
  <g>
    <path class="cls-3" d="m689.78,649.51c10.45-27.88,16.21-58.11,16.21-89.76,0-49.36-14.01-95.44-38.31-134.28,31.8,32.27,51.35,76.71,51.35,125.72,0,36.36-10.76,70.14-29.26,98.33Z"/>
    <path class="cls-3" d="m397.43,548.09c-10.45,27.88-16.21,58.11-16.21,89.76,0,49.36,14.01,95.44,38.31,134.28-31.8-32.27-51.35-76.71-51.35-125.72,0-36.36,10.76-70.14,29.26-98.33Z"/>
    <path class="cls-3" d="m794.37,594.2c-1.63-46.56-15.81-92.68-40.95-131.75-31.45-48.87-79.83-86.37-134.69-104.39,59.35,34.48,104.11,93.69,121.42,160.62,10.22,39.52,10.48,83.91-10.66,118.73-21.14,34.82-67.97,55.22-104.19,37.08-22.76-11.4-37.14-34.78-47.34-58.29-13.65-31.45-21.95-65.05-35.43-96.58-13.48-31.53-33.32-61.97-63.1-78.51-38.35-21.29-92.37-16.16-126.73,11.12-33.68,26.74-51.84,69.31-57.75,111.31-.48,3.41-.88,6.84-1.2,10.27-5.35,57.31,9.21,116.33,40.56,164.4,31.35,48.07,79.28,84.86,133.52,102.48-59.35-34.57-104.05-93.95-121.17-160.98-10.14-39.71-10.2-84.34,11.37-119.08,21.56-34.74,69.11-54.5,104.99-35.35,21.05,11.23,34.52,32.95,44.21,54.92,23.58,53.47,32.3,116.6,74.18,157.04,35.6,34.38,93.19,44.01,136.8,20.89,45.53-24.13,69.71-77.28,75.01-128.95,1.19-11.62,1.57-23.32,1.16-35Zm-501.1-3.72s0-.04,0-.06c0,.02,0,.04,0,.06Zm.32-6.44s0-.06,0-.09c0,.03,0,.06,0,.09Zm.49-6.52c0-.11.02-.22.03-.33,0,.11-.02.22-.03.33Zm.67-6.64c.01-.13.03-.26.05-.39-.02.13-.03.26-.05.39Zm.85-6.69c.03-.24.07-.48.11-.72-.03.24-.08.48-.11.72Zm1.04-6.74c.06-.36.13-.73.2-1.09-.06.36-.14.73-.2,1.09Zm1.24-6.79c.09-.46.2-.92.29-1.38-.09.46-.2.92-.29,1.38Zm1.44-6.81c.12-.55.27-1.1.4-1.65-.13.55-.27,1.1-.4,1.65Zm1.65-6.8c.17-.67.37-1.33.55-2-.18.67-.37,1.33-.55,2Zm1.86-6.77c.24-.82.5-1.63.75-2.44-.25.81-.51,1.62-.75,2.44Zm2.08-6.74c.29-.9.62-1.8.93-2.7-.31.9-.63,1.79-.93,2.7Zm2.3-6.68c.36-1,.76-1.99,1.14-2.98-.38.99-.78,1.98-1.14,2.98Zm2.54-6.6c.45-1.11.94-2.21,1.41-3.31-.47,1.1-.96,2.2-1.41,3.31Zm2.77-6.49c.6-1.33,1.24-2.63,1.86-3.94-.63,1.31-1.27,2.61-1.86,3.94Z"/>
  </g>
</svg>