<?xml version="1.0" encoding="utf-8"?>
<!-- Generator: Adobe Illustrator 24.2.1, SVG Export Plug-In . SVG Version: 6.00 Build 0)  -->
<svg version="1.1" id="Capa_1" xmlns="http://www.w3.org/2000/svg" xmlns:xlink="http://www.w3.org/1999/xlink" x="0px" y="0px"
	 viewBox="0 0 1080 1400" style="enable-background:new 0 0 1080 1400;" xml:space="preserve">
<style type="text/css">
	.st0{fill:#5546FF;}
	.st1{fill:#B9EB00;}
	.st2{fill:#F03264;}
	.st3{fill:#3A2E26;}
	.st4{fill:#FFFFFF;}
	.st5{font-family:'Poppins-Medium';}
	.st6{font-size:75.6027px;}
</style>
<rect x="-13.89" y="-13.56" class="st0" width="1100" height="1427.78"/>
<g>
	<g>
		<g>
			<path class="st1" d="M285.6,1017l-0.32,0.37c-4.35,4.99-11.48,6.29-17.43,3.39c-0.27-0.13-0.55-0.26-0.83-0.39
				c-2.97-1.36-6.15-2.3-9.4-2.69c-9.35-1.15-17.08,1.63-23.2,8.34c-5.22,5.73-7.83,12.66-7.83,20.81c0,8.25,2.7,15.23,8.09,20.93
				c5.39,5.7,12.18,8.55,20.38,8.55c4.1,0,8.13-0.87,12.09-2.61c0.45-0.2,0.89-0.4,1.32-0.62c5.79-2.88,12.78-1.51,17.11,3.3h0
				c6.32,7.02,4.43,18.3-4.02,22.52c-7.85,3.92-17.33,5.88-28.43,5.88c-10.67,0-20.38-2.6-29.14-7.79
				c-8.76-5.19-15.61-12.21-20.55-21.06c-4.94-8.85-7.41-18.54-7.41-29.1c0-12.08,3.42-23.1,10.25-33.08
				c3.83-5.59,8.67-10.47,14.23-14.34c9.92-6.91,20.85-10.36,32.8-10.36c10.81,0,20.12,1.83,27.91,5.5
				C289.75,998.56,291.82,1009.87,285.6,1017z"/>
			<path class="st1" d="M338.6,1058.51v31.91c0,7.93-6.43,14.36-14.36,14.36h0c-7.93,0-14.36-6.43-14.36-14.36v-58.01
				c0-7.33,5.94-13.27,13.27-13.27h2.18c7.33,0,13.27,5.94,13.27,13.27l0,0c2.15-4.83,4.99-8.7,8.51-11.61
				c3.52-2.91,7.49-4.36,11.92-4.36c3.54,0,6.67,0.58,9.38,1.74c2.96,1.27,4.2,4.83,2.92,7.79l-7.1,16.36
				c-1.25,2.87-4.52,4.37-7.44,3.24c-2.07-0.8-4.38-1.2-6.93-1.2c-3.43,0-6.17,1.3-8.21,3.88
				C339.62,1050.84,338.6,1054.26,338.6,1058.51z"/>
			<path class="st1" d="M419.73,1104.78c-8.54,0-16.31-1.97-23.33-5.9c-7.02-3.93-12.48-9.24-16.39-15.92
				c-3.9-6.68-5.85-14.01-5.85-21.98c0-8.03,1.85-15.41,5.56-22.15c3.71-6.74,8.83-12.07,15.37-16.01c6.54-3.93,13.77-5.9,21.69-5.9
				c12.13,0,22.29,4.01,30.49,12.04c8.2,8.03,12.3,18.11,12.3,30.24c0,4.04-0.17,6.91-0.5,8.59h-56.1c1.18,3.88,3.32,6.95,6.4,9.22
				c3.09,2.27,6.88,3.41,11.37,3.41c3.38,0,6.56-0.71,9.53-2.13c5.09-2.43,11.2-0.8,14.6,3.71l0,0c4.57,6.07,2.45,14.76-4.37,18.13
				c-0.59,0.29-1.19,0.57-1.81,0.85C433.01,1103.52,426.69,1104.78,419.73,1104.78z M417.28,1040.25c-3.31,0-6.15,0.94-8.51,2.82
				c-2.36,1.88-4.13,4.5-5.31,7.88h27.63C428.91,1043.82,424.3,1040.25,417.28,1040.25z"/>
			<path class="st1" d="M536.29,1104.17c-4.28,0-7.75-5.97-7.75-10.25l0,0c-5.33,6.91-12.35,10.36-21.06,10.36
				c-7.02,0-13.49-1.78-19.42-5.35c-5.92-3.56-10.7-8.72-14.32-15.46c-3.62-6.74-5.43-14.41-5.43-23c0-12.69,3.7-23.21,11.12-31.55
				c7.41-8.34,16.76-12.51,28.05-12.51c9.04,0,16.06,3.17,21.06,9.52l0,0c0-3.81,3.09-9.4,6.91-9.4h13.98
				c3.81,0,6.91,3.09,6.91,6.91v70.47c0,4.28-3.47,10.25-7.75,10.25H536.29z M500.74,1073.12c3.09,3.37,6.96,5.05,11.63,5.05
				c4.66,0,8.52-1.69,11.58-5.05c3.06-3.37,4.59-7.58,4.59-12.64c0-5.11-1.53-9.38-4.59-12.8c-3.06-3.42-6.92-5.14-11.58-5.14
				c-4.66,0-8.54,1.71-11.63,5.14s-4.63,7.69-4.63,12.8C496.11,1065.54,497.66,1069.75,500.74,1073.12z"/>
			<path class="st1" d="M566.46,1004.68L566.46,1004.68c0-6.72,5.45-12.17,12.17-12.17h3.58v-5.29c0-7.68,6.22-13.9,13.9-13.9l0,0
				c7.68,0,13.9,6.22,13.9,13.9v5.29h8.8c6.72,0,12.17,5.45,12.17,12.17l0,0c0,6.72-5.45,12.17-12.17,12.17h-8.47v52.38
				c0,3.26,0.57,5.64,1.73,7.16c1.15,1.51,2.93,2.27,5.35,2.27c1.69,0,3.33-0.36,4.93-1.1l0.05-0.02c2.29-1.05,5.21-0.13,6.48,2.04
				l3.7,6.32c3.45,5.89,1.08,13.66-5.26,16.2c-0.04,0.02-0.09,0.03-0.13,0.05c-4.38,1.74-9.27,2.61-14.66,2.61
				c-9.38,0-16.81-2.99-22.28-8.97c-5.47-5.98-8.21-14.61-8.21-25.9v-53.05h-3.41C571.91,1016.85,566.46,1011.4,566.46,1004.68z"/>
			<path class="st1" d="M664.66,1016.84c-4.27,0-7.92-1.5-10.95-4.51c-3.04-3-4.55-6.67-4.55-10.99c0-4.33,1.51-8.03,4.55-11.12
				c3.03-3.09,6.68-4.63,10.95-4.63c4.27,0,7.96,1.55,11.08,4.63c3.12,3.09,4.68,6.79,4.68,11.12c0,4.27-1.55,7.92-4.63,10.95
				C672.68,1015.32,668.98,1016.84,664.66,1016.84z M678.64,1035.81v54.02c0,7.65-6.2,13.85-13.85,13.85l0,0
				c-7.65,0-13.85-6.2-13.85-13.85v-54.02c0-7.65,6.2-13.85,13.85-13.85l0,0C672.43,1021.95,678.64,1028.16,678.64,1035.81z"/>
			<path class="st1" d="M774.24,1016.92L774.24,1016.92c9.5,0,16.19,9.34,13.13,18.34l-17.32,50.86
				c-3.68,10.79-13.81,18.05-25.21,18.05h0c-11.37,0-21.48-7.21-25.18-17.96l-17.54-50.9c-3.1-9.01,3.59-18.39,13.11-18.39h2.38
				c6.19,0,11.64,4.11,13.34,10.06l12.63,44.25c0.59,2.06,3.5,2.08,4.11,0.02l13.26-44.44
				C762.71,1020.95,768.11,1016.92,774.24,1016.92z"/>
			<path class="st1" d="M854.42,1104.78c-7.92,0-15.26-1.95-22.02-5.85c-6.77-3.9-12.13-9.22-16.09-15.96
				c-3.96-6.74-5.94-14.07-5.94-21.98c0-7.97,1.98-15.34,5.94-22.11c3.96-6.77,9.32-12.11,16.09-16.05
				c6.76-3.93,14.11-5.9,22.02-5.9c7.92,0,15.26,1.97,22.03,5.9c6.77,3.93,12.12,9.28,16.05,16.05c3.93,6.77,5.9,14.14,5.9,22.11
				c0,5.95-1.17,11.62-3.5,17.01c-2.33,5.39-5.46,10.06-9.39,13.98c-3.93,3.93-8.61,7.05-14.03,9.35
				C866.06,1103.62,860.37,1104.78,854.42,1104.78z M842.8,1073.61c3.09,3.37,6.96,5.05,11.62,5.05c4.66,0,8.52-1.69,11.58-5.05
				c3.06-3.37,4.59-7.58,4.59-12.64c0-5.11-1.53-9.38-4.59-12.8c-3.06-3.42-6.92-5.14-11.58-5.14c-4.66,0-8.53,1.71-11.62,5.14
				c-3.09,3.42-4.63,7.69-4.63,12.8C838.16,1066.03,839.7,1070.24,842.8,1073.61z"/>
		</g>
		<g>
			<path class="st2" d="M816.68,354.25L816.68,354.25c-14.87,9.88-34.87,6.44-45.58-7.85l-89.18-118.89
				c-4.06-5.41-2.73-13.12,2.9-16.87l50.58-33.6c5.63-3.74,13.26-1.98,16.67,3.86l75.05,128.28
				C836.13,324.6,831.55,344.37,816.68,354.25z"/>
			<path class="st2" d="M871.88,377.99c12.74,2.57,22.71,9.28,29.91,20.11c7.2,10.84,9.48,22.56,6.82,35.18
				c-2.65,12.61-9.4,22.52-20.24,29.72c-10.84,7.2-22.53,9.53-35.05,7.01c-12.53-2.53-22.38-9.2-29.59-20.06
				c-7.2-10.83-9.59-22.58-7.14-35.23c2.44-12.65,9.08-22.58,19.92-29.78C847.35,377.74,859.15,375.42,871.88,377.99z"/>
			<path class="st3" d="M545.75,446.36c0,16.48-4.96,30.19-14.96,41.17c-9.93,10.99-22.51,16.48-37.73,16.48s-27.8-5.49-37.86-16.48
				c-4.43-4.83-7.81-10.13-10.26-16.02c-3.24-7.48-4.83-15.89-4.83-25.15c0-16.68,5.03-30.58,15.09-41.77
				c10.06-11.12,22.64-16.75,37.86-16.75s27.8,5.63,37.73,16.75c8.8,9.86,13.7,21.78,14.7,35.81
				C545.69,442.39,545.75,444.37,545.75,446.36z"/>
			<g>
				<path class="st1" d="M530.79,487.53c-9.93,10.99-22.51,16.48-37.73,16.48s-27.8-5.49-37.86-16.48
					c-4.43-4.83-7.81-10.13-10.26-16.02c-3.24-7.48-4.83-15.89-4.83-25.15c0-16.68,5.03-30.58,15.09-41.77
					c10.06-11.12,22.64-16.75,37.86-16.75s27.8,5.63,37.73,16.75c8.8,9.86,13.7,21.78,14.7,35.81c0.2,1.99,0.26,3.97,0.26,5.96
					C545.75,462.84,540.79,476.54,530.79,487.53z"/>
				<path class="st1" d="M815.66,602.89c0-89.62-30.29-164.05-90.88-223.38c-27.27-26.7-57.5-47.42-90.69-62.1v241.4
					c0,13.22-10.71,23.99-23.99,23.99h-38.16c-13.23,0-23.99-10.77-23.99-23.99c-8.25,10.71-17.89,18.77-28.78,24.06
					c-10.83,5.42-23.05,8.06-36.53,8.06c-21.79,0-41.88-5.54-60.21-16.63c-18.39-11.02-33.19-27.02-44.4-47.93
					c-11.27-20.85-16.88-44.65-16.88-71.29c0-39.36,11.52-71.98,34.51-97.8c38.4-43.14,110.68-55.02,152.66-9.59
					c-0.19-17.48-0.39-34.96-0.58-52.44c-0.05-4.45-59.45-4.58-65.19-4.35c-21.34,0.88-42.52,4.04-63.27,9.06
					c-35.3,8.53-68.99,23.78-99.07,44.07c-34.92,23.57-65.16,54.16-87.81,89.72c-42.74,67.11-57.02,150.24-41.78,228.1
					c14.48,73.99,56.21,141.14,115.14,187.97c64.05,50.91,146.87,74.58,228.14,71.93c31.69-1.03,63.06-6.03,93.33-15.44
					c24.04-7.48,48.52-16.24,68.24-32.4c19.18-15.71,29.57-41.83,29.57-66.29c0-18.52-5.73-37.35-17.95-53.53
					c-25.63-34.01-71.35-44.34-110.02-26.51c-21.29,9.82-44.08,14.74-68.27,14.74c-33.25,0-61.21-8.38-84.07-25.19
					c-22.8-16.81-38.54-39.49-47.3-68.14h414.51C814.4,636.59,815.66,632.8,815.66,602.89z"/>
			</g>
		</g>
	</g>
	<g>
		<text transform="matrix(1 0 0 1 201.239 1180.923)" class="st4 st5 st6">Diseñador gráfico</text>
		<circle class="st4" cx="899.56" cy="1163.62" r="8.91"/>
		<circle class="st4" cx="179.23" cy="1163.62" r="8.91"/>
	</g>
</g>
</svg>
