<?xml version="1.0" encoding="utf-8"?>
<!-- Generator: Adobe Illustrator 27.0.0, SVG Export Plug-In . SVG Version: 6.00 Build 0)  -->
<svg version="1.1" id="Capa_1" xmlns="http://www.w3.org/2000/svg" xmlns:xlink="http://www.w3.org/1999/xlink" x="0px" y="0px"
	 viewBox="0 0 1080 1440" style="enable-background:new 0 0 1080 1440;" xml:space="preserve">
<style type="text/css">
	.st0{fill:#735CA4;}
	.st1{fill:#442683;}
</style>
<g>
	<g>
		<g>
			<g>
				<path class="st0" d="M378.2,903.7c-0.5-1.8-1.3-3.3-2.4-4.7c-1.1-1.4-2.4-2.4-3.9-3.2c-1.6-0.8-3.3-1.1-5.4-1.1h-9.9
					c-0.8,0-1.3,0.3-1.8,0.8c-0.5,0.4-0.7,1.1-0.7,1.8v24.1c0,0.7,0.2,1.3,0.7,1.8c0.5,0.5,1.1,0.8,1.8,0.8h9.9c2.7,0,5-0.7,6.8-2
					c1.8-1.3,3.3-3.1,4.2-5.3c1-2.2,1.5-4.7,1.5-7.3C379.1,907.3,378.8,905.4,378.2,903.7z M372.9,914.1c-0.5,1.5-1.3,2.7-2.4,3.6
					c-1.1,0.9-2.6,1.3-4.3,1.3h-6.9v-19.6h6.9c1.3,0,2.4,0.3,3.3,0.8c0.9,0.6,1.7,1.3,2.3,2.1c0.6,0.9,1.1,2,1.4,3.2
					c0.3,1.2,0.4,2.4,0.4,3.7C373.7,911,373.4,912.6,372.9,914.1z"/>
				<path class="st0" d="M393.1,901.6c-0.7,0-1.3,0.2-1.8,0.7c-0.5,0.5-0.7,1.1-0.7,1.8v17.2c0,0.7,0.2,1.3,0.7,1.8
					c0.5,0.5,1.1,0.7,1.8,0.7s1.3-0.2,1.8-0.7c0.5-0.5,0.7-1.1,0.7-1.8v-17.2c0-0.7-0.2-1.3-0.7-1.8
					C394.5,901.8,393.9,901.6,393.1,901.6z"/>
				<path class="st0" d="M393.1,893.9c-0.9,0-1.5,0.1-2,0.4c-0.4,0.3-0.6,0.8-0.6,1.6v0.8c0,0.8,0.2,1.3,0.6,1.6
					c0.4,0.3,1.1,0.5,2,0.5c0.9,0,1.6-0.1,2-0.4c0.4-0.3,0.6-0.8,0.6-1.6V896c0-0.8-0.2-1.3-0.6-1.6
					C394.8,894.1,394.1,893.9,393.1,893.9z"/>
				<path class="st0" d="M421.8,912.6c-0.7-0.5-1.5-0.9-2.4-1.2c-0.9-0.3-1.7-0.6-2.5-0.8c-0.8-0.2-1.6-0.5-2.3-0.7
					c-0.7-0.2-1.3-0.5-1.7-0.9c-0.4-0.4-0.6-0.9-0.6-1.5c0-0.7,0.2-1.2,0.5-1.5c0.4-0.3,0.8-0.5,1.3-0.6c0.5-0.1,0.9-0.1,1.4-0.1
					c1,0,1.9,0.2,2.7,0.5c0.8,0.4,1.4,0.8,1.9,1.5c0.4,0.3,0.8,0.5,1.4,0.6c0.6,0,1-0.1,1.5-0.4c0.6-0.5,0.8-1,0.8-1.6
					c-0.1-0.6-0.2-1.1-0.5-1.5c-0.6-0.7-1.3-1.4-2.2-1.8c-0.9-0.5-1.8-0.8-2.7-1c-0.9-0.2-1.8-0.3-2.7-0.3c-1.4,0-2.7,0.3-3.9,0.8
					c-1.2,0.5-2.2,1.3-3,2.2s-1.2,2.2-1.2,3.5c0,1.2,0.2,2.2,0.7,3c0.5,0.8,1.1,1.5,1.8,1.9c0.7,0.5,1.6,0.9,2.5,1.2
					c0.9,0.3,1.8,0.6,2.6,0.8c0.8,0.2,1.6,0.5,2.3,0.7s1.2,0.6,1.6,0.9c0.4,0.4,0.6,0.8,0.6,1.5c0,0.7-0.2,1.3-0.6,1.6
					c-0.4,0.3-0.8,0.6-1.3,0.7c-0.5,0.1-1,0.2-1.4,0.2c-1.3,0-2.4-0.2-3.3-0.7c-0.9-0.4-1.7-1.1-2.5-1.9c-0.5-0.5-1-0.7-1.5-0.8
					c-0.5,0-1,0.1-1.4,0.4c-0.7,0.4-1.1,1-1.1,1.6c0,0.6,0.1,1.1,0.4,1.5c1.1,1.4,2.4,2.5,4.1,3c1.6,0.6,3.3,0.9,4.9,0.9
					c1.3,0,2.6-0.3,3.8-0.8c1.2-0.5,2.3-1.3,3.1-2.3c0.8-1,1.2-2.2,1.2-3.6c0-1.2-0.2-2.2-0.7-3
					C423.1,913.8,422.5,913.1,421.8,912.6z"/>
				<path class="st0" d="M455.3,913.8c0.5-0.4,0.8-0.9,0.8-1.6c0-1.5-0.3-2.9-0.8-4.2c-0.6-1.3-1.3-2.5-2.3-3.5
					c-0.9-1-2.1-1.8-3.3-2.4c-1.3-0.6-2.6-0.9-4-0.9c-1.8,0-3.5,0.5-5.2,1.5c-1.6,0.9-3,2.3-4,4c-1,1.8-1.5,3.9-1.5,6.4
					c0,2.1,0.4,4,1.4,5.7s2.3,3,4,4c1.8,1,3.8,1.5,6.2,1.5c1.4,0,2.7-0.2,4-0.7c1.3-0.4,2.3-0.9,3-1.6c0.8-0.6,1.1-1.3,1.1-2
					c0-0.6-0.2-1.1-0.6-1.5c-0.4-0.4-0.9-0.6-1.5-0.6c-0.4,0-0.9,0.1-1.5,0.4c-0.3,0.1-0.6,0.4-1,0.6c-0.4,0.3-0.9,0.4-1.5,0.6
					c-0.6,0.2-1.5,0.3-2.5,0.3c-1.1,0-2.2-0.3-3.2-0.8c-1-0.6-1.8-1.3-2.4-2.4c-0.4-0.6-0.6-1.3-0.8-2h13.7
					C454.2,914.5,454.7,914.3,455.3,913.8z M450.7,910.3h-10.9c0.1-0.3,0.1-0.7,0.2-0.9c0.3-0.9,0.7-1.6,1.3-2.1
					c0.5-0.5,1.1-0.9,1.8-1.1c0.8-0.2,1.5-0.3,2.3-0.3c0.9,0,1.7,0.2,2.5,0.6c0.8,0.4,1.4,0.9,1.9,1.5c0.6,0.6,0.8,1.3,0.9,2.1
					V910.3z"/>
				<path class="st0" d="M484.5,902.4c-1.1-0.9-2.6-1.3-4.7-1.3c-0.9,0-1.8,0.1-2.6,0.4c-0.8,0.3-1.5,0.7-2.2,1.1
					c-0.6,0.5-1.2,1-1.7,1.5c-0.2,0.2-0.3,0.4-0.5,0.6v-0.8c0-0.7-0.2-1.3-0.7-1.8c-0.5-0.5-1.1-0.7-1.8-0.7c-0.7,0-1.3,0.2-1.8,0.7
					c-0.5,0.5-0.7,1.1-0.7,1.8v17.2c0,0.7,0.2,1.3,0.7,1.8c0.5,0.5,1.1,0.7,1.8,0.7c0.7,0,1.3-0.2,1.8-0.7c0.5-0.5,0.7-1.1,0.7-1.8
					v-10.7c0-0.9,0.2-1.7,0.6-2.5c0.4-0.7,1-1.3,1.7-1.8c0.8-0.4,1.7-0.7,2.8-0.7c1.1,0,2,0.2,2.6,0.7c0.6,0.4,1,1,1.3,1.8
					c0.2,0.7,0.4,1.6,0.4,2.5v10.7c0,0.7,0.2,1.3,0.7,1.8c0.5,0.5,1.1,0.7,1.8,0.7c0.7,0,1.3-0.2,1.8-0.7c0.5-0.5,0.7-1.1,0.7-1.8
					v-10.7c0-1.7-0.2-3.3-0.6-4.8C486.3,904.5,485.6,903.3,484.5,902.4z"/>
				<path class="st0" d="M472.6,899.3c0.5,0,0.9-0.2,1.2-0.6c0.3-0.4,0.4-0.9,0.2-1.5c-0.1-0.3,0-0.5,0.1-0.6
					c0.2-0.2,0.4-0.2,0.7-0.2c0.4,0,0.8,0.1,1.3,0.4c0.5,0.3,1,0.6,1.6,0.9c0.6,0.3,1.2,0.7,1.8,0.9c0.6,0.3,1.2,0.4,1.8,0.4
					c1.2,0,2.1-0.2,2.8-0.6c0.7-0.4,1.2-0.9,1.5-1.5c0.3-0.6,0.5-1.1,0.5-1.6c0-0.9-0.2-1.5-0.7-2c-0.4-0.5-1-0.7-1.6-0.7
					c-0.5,0-0.9,0.2-1.2,0.5c-0.3,0.4-0.4,0.9-0.2,1.5c0.1,0.3,0,0.5-0.1,0.6s-0.4,0.2-0.7,0.2c-0.4,0-0.8-0.1-1.2-0.4
					s-0.9-0.6-1.4-0.9c-0.5-0.3-1-0.7-1.6-0.9c-0.6-0.3-1.2-0.4-2-0.4c-1.7,0-3,0.4-3.9,1.2c-0.8,0.8-1.2,1.6-1.2,2.5
					c0,0.9,0.2,1.6,0.7,2.1C471.5,899,472,899.3,472.6,899.3z"/>
				<path class="st0" d="M520.3,901.8c-0.5-0.4-1.1-0.7-1.8-0.7c-0.7,0-1.3,0.3-1.8,0.8c-0.5,0.4-0.7,1.1-0.7,1.8v0.1
					c-0.3-0.2-0.5-0.5-0.8-0.7c-0.8-0.6-1.6-1-2.6-1.4c-1-0.4-2.1-0.6-3.3-0.6c-1.8,0-3.5,0.5-5.1,1.5c-1.5,0.9-2.8,2.3-3.7,4
					c-0.9,1.8-1.3,3.8-1.3,6.1c0,2.2,0.4,4.2,1.3,5.9c0.9,1.8,2.1,3.1,3.7,4.1c1.5,1,3.3,1.5,5.2,1.5c1.1,0,2-0.1,2.9-0.5
					c0.9-0.3,1.7-0.8,2.4-1.3c0.5-0.4,0.9-0.8,1.3-1.1c0,0.7,0.2,1.3,0.7,1.8c0.4,0.5,1.1,0.8,1.8,0.8c0.8,0,1.3-0.3,1.8-0.8
					c0.4-0.4,0.7-1.1,0.7-1.8v-17.7C521,903,520.7,902.3,520.3,901.8z M515.4,916.3c-0.5,1.1-1.3,1.9-2.1,2.5
					c-0.9,0.6-2,0.9-3.2,0.9c-1.2,0-2.3-0.3-3.2-0.9c-0.9-0.6-1.6-1.4-2.1-2.5c-0.5-1.1-0.8-2.3-0.8-3.5c0-1.3,0.3-2.5,0.8-3.6
					c0.5-1.1,1.2-1.9,2.1-2.5c0.9-0.6,2-0.9,3.2-0.9c1.2,0,2.3,0.3,3.2,0.9c0.9,0.6,1.6,1.5,2.1,2.5c0.5,1.1,0.8,2.3,0.8,3.6
					C516.2,914,515.9,915.2,515.4,916.3z"/>
				<path class="st0" d="M553.9,893.7c-0.5-0.5-1.1-0.7-1.8-0.7c-0.7,0-1.3,0.2-1.8,0.7c-0.5,0.5-0.7,1.1-0.7,1.8v8.2
					c-0.3-0.2-0.5-0.5-0.8-0.7c-0.8-0.6-1.6-1-2.7-1.4c-0.9-0.4-2.1-0.6-3.3-0.6c-1.8,0-3.5,0.5-5.1,1.5c-1.5,0.9-2.7,2.3-3.7,4
					c-0.9,1.8-1.3,3.8-1.3,6.1c0,2.2,0.4,4.2,1.3,5.9c0.9,1.8,2.1,3.1,3.7,4.1c1.5,1,3.3,1.5,5.2,1.5c1.1,0,2-0.1,3-0.5
					c0.9-0.3,1.6-0.8,2.3-1.3c0.5-0.4,0.9-0.8,1.3-1.1c0,0.7,0.2,1.3,0.7,1.8c0.4,0.5,1.1,0.8,1.8,0.8c0.8,0,1.3-0.3,1.8-0.8
					c0.4-0.4,0.7-1.1,0.7-1.8v-25.8C554.6,894.8,554.4,894.2,553.9,893.7z M549.1,916.3c-0.5,1.1-1.3,1.9-2.1,2.5
					c-0.9,0.6-2,0.9-3.2,0.9s-2.3-0.3-3.2-0.9c-0.9-0.6-1.6-1.4-2.1-2.5c-0.5-1.1-0.8-2.3-0.8-3.5c0-1.3,0.3-2.5,0.8-3.6
					c0.5-1.1,1.2-1.9,2.1-2.5c0.9-0.6,2-0.9,3.2-0.9s2.3,0.3,3.2,0.9c0.9,0.6,1.6,1.5,2.1,2.5c0.5,1.1,0.8,2.3,0.8,3.6
					C549.8,914,549.6,915.2,549.1,916.3z"/>
				<path class="st0" d="M587.6,906.7c-1-1.7-2.3-3.1-4-4c-1.7-1-3.6-1.5-5.7-1.5c-2.1,0-4,0.5-5.7,1.5c-1.8,0.9-3.1,2.3-4.1,4
					c-1,1.8-1.5,3.8-1.5,6.1c0,2.3,0.5,4.3,1.5,6c1,1.7,2.3,3.1,4.1,4c1.7,1,3.6,1.5,5.7,1.5c2.1,0,4-0.4,5.7-1.5c1.7-0.9,3-2.3,4-4
					c1.1-1.7,1.6-3.7,1.6-6C589.1,910.5,588.6,908.5,587.6,906.7z M583.3,916.3c-0.6,1.1-1.3,1.9-2.3,2.5c-0.9,0.6-2,0.9-3.2,0.9
					c-1.1,0-2.2-0.3-3.2-0.9c-1-0.6-1.7-1.4-2.3-2.5c-0.6-1-0.8-2.2-0.8-3.6c0-1.5,0.3-2.7,0.8-3.7c0.6-1,1.3-1.8,2.3-2.4
					c0.9-0.6,2-0.9,3.2-0.9c1.2,0,2.3,0.3,3.2,0.9c0.9,0.6,1.7,1.4,2.3,2.4c0.6,1.1,0.8,2.3,0.8,3.7
					C584.1,914.1,583.8,915.3,583.3,916.3z"/>
				<path class="st0" d="M612.6,901.2c-0.7,0-1.4,0.1-2.1,0.2s-1.3,0.4-2,0.8c-0.6,0.3-1.2,0.8-1.6,1.3c-0.4,0.4-0.6,0.9-0.9,1.3
					v-0.7c0-0.7-0.2-1.3-0.7-1.8c-0.5-0.5-1.1-0.7-1.8-0.7s-1.3,0.2-1.8,0.7c-0.5,0.5-0.7,1.1-0.7,1.8v17.2c0,0.7,0.2,1.3,0.7,1.8
					c0.5,0.5,1.1,0.7,1.8,0.7s1.3-0.2,1.8-0.7c0.5-0.5,0.7-1.1,0.7-1.8v-9.9c0-1,0.1-1.9,0.4-2.6c0.3-0.7,0.6-1.4,1-1.9
					s0.9-0.9,1.4-1.1c0.5-0.2,1-0.4,1.5-0.4c0.6,0,1,0.1,1.5,0.3c0.4,0.2,0.9,0.3,1.4,0.3c0.6,0,1.1-0.2,1.5-0.6
					c0.5-0.4,0.7-1.1,0.7-2c0-0.6-0.3-1.2-0.9-1.7C614.1,901.4,613.4,901.2,612.6,901.2z"/>
				<path class="st0" d="M646.1,901.8c-0.4-0.4-1.1-0.7-1.8-0.7c-0.8,0-1.3,0.3-1.8,0.8c-0.4,0.4-0.7,1.1-0.7,1.8v0.1
					c-0.3-0.2-0.5-0.5-0.8-0.7c-0.7-0.6-1.6-1-2.6-1.4c-1-0.4-2.1-0.6-3.3-0.6c-1.9,0-3.5,0.5-5.1,1.5c-1.5,0.9-2.7,2.3-3.6,4
					c-0.9,1.8-1.4,3.8-1.4,6.1c0,2.2,0.4,4.2,1.4,5.9c0.9,1.8,2.1,3.1,3.7,4.1c1.6,1,3.3,1.5,5.2,1.5c1,0,2-0.1,2.9-0.5
					c0.9-0.3,1.7-0.8,2.3-1.3c0.5-0.4,0.9-0.8,1.3-1.1c0,0.7,0.3,1.3,0.7,1.8c0.5,0.5,1.1,0.8,1.8,0.8c0.7,0,1.3-0.3,1.8-0.8
					c0.5-0.4,0.7-1.1,0.7-1.8v-17.7C646.8,903,646.6,902.3,646.1,901.8z M641.2,916.3c-0.5,1.1-1.2,1.9-2.1,2.5
					c-0.9,0.6-2,0.9-3.2,0.9s-2.3-0.3-3.2-0.9c-0.9-0.6-1.6-1.4-2.1-2.5c-0.5-1.1-0.8-2.3-0.8-3.5c0-1.3,0.3-2.5,0.8-3.6
					c0.5-1.1,1.3-1.9,2.1-2.5c0.9-0.6,2-0.9,3.2-0.9s2.3,0.3,3.2,0.9c0.9,0.6,1.6,1.5,2.1,2.5c0.5,1.1,0.8,2.3,0.8,3.6
					C642,914,641.7,915.2,641.2,916.3z"/>
				<path class="st0" d="M700.8,908.1h-6.8c-0.7,0-1.3,0.2-1.8,0.7c-0.5,0.5-0.7,1.1-0.7,1.8c0,0.7,0.2,1.3,0.7,1.8
					c0.5,0.5,1.1,0.7,1.8,0.7h3.9v5.4c-0.6,0.2-1.3,0.4-2.1,0.5c-1,0.2-1.9,0.2-2.8,0.2c-1.8,0-3.4-0.4-4.9-1.4
					c-1.5-0.9-2.7-2.1-3.5-3.6c-0.9-1.5-1.3-3.2-1.3-5c0-1.8,0.4-3.5,1.3-5c0.9-1.5,2.1-2.7,3.5-3.6c1.5-0.9,3.1-1.4,4.9-1.4
					c0.9,0,1.7,0.1,2.5,0.2c0.8,0.2,1.5,0.4,2.2,0.7c0.2,0.1,0.4,0.2,0.7,0.2c0.2,0.1,0.5,0.1,0.7,0.1c0.7,0,1.3-0.3,1.7-0.8
					c0.4-0.5,0.7-1.1,0.7-1.8c0-0.4-0.1-0.8-0.3-1.1s-0.5-0.7-0.9-0.9c-1-0.6-2.2-1-3.4-1.2c-1.2-0.3-2.5-0.4-3.8-0.4
					c-2.1,0-4.1,0.4-5.9,1.2c-1.8,0.8-3.4,1.9-4.8,3.2c-1.4,1.4-2.5,3-3.3,4.8c-0.8,1.8-1.2,3.7-1.2,5.8c0,2.1,0.4,4,1.2,5.8
					c0.8,1.8,1.9,3.4,3.3,4.8c1.4,1.4,3,2.5,4.8,3.2s3.8,1.2,5.9,1.2c1.7,0,3.3-0.2,4.8-0.7c1.5-0.5,2.9-1.1,4.2-1.9
					c0.3-0.2,0.6-0.5,0.9-0.9c0.3-0.4,0.4-0.8,0.4-1.4v-8.8c0-0.7-0.2-1.3-0.7-1.8C702.1,908.4,701.5,908.1,700.8,908.1z"/>
				<path class="st0" d="M726.9,901.2c-0.7,0-1.4,0.1-2.1,0.2s-1.3,0.4-2,0.8c-0.6,0.3-1.2,0.8-1.6,1.3c-0.4,0.4-0.6,0.9-0.9,1.3
					v-0.7c0-0.7-0.2-1.3-0.7-1.8c-0.5-0.5-1.1-0.7-1.8-0.7c-0.7,0-1.3,0.2-1.8,0.7c-0.5,0.5-0.7,1.1-0.7,1.8v17.2
					c0,0.7,0.2,1.3,0.7,1.8c0.5,0.5,1.1,0.7,1.8,0.7c0.7,0,1.3-0.2,1.8-0.7c0.5-0.5,0.7-1.1,0.7-1.8v-9.9c0-1,0.1-1.9,0.4-2.6
					c0.3-0.7,0.6-1.4,1-1.9s0.9-0.9,1.4-1.1c0.5-0.2,1-0.4,1.5-0.4c0.6,0,1,0.1,1.5,0.3c0.4,0.2,0.9,0.3,1.4,0.3
					c0.6,0,1.1-0.2,1.5-0.6c0.5-0.4,0.7-1.1,0.7-2c0-0.6-0.3-1.2-0.9-1.7C728.4,901.4,727.7,901.2,726.9,901.2z"/>
				<path class="st0" d="M760.5,901.8c-0.5-0.4-1.1-0.7-1.8-0.7c-0.7,0-1.3,0.3-1.8,0.8c-0.5,0.4-0.7,1.1-0.7,1.8v0.1
					c-0.3-0.2-0.5-0.5-0.8-0.7c-0.8-0.6-1.6-1-2.7-1.4c-0.9-0.4-2.1-0.6-3.3-0.6c-1.8,0-3.5,0.5-5.1,1.5c-1.5,0.9-2.7,2.3-3.7,4
					c-0.9,1.8-1.3,3.8-1.3,6.1c0,2.2,0.4,4.2,1.3,5.9c0.9,1.8,2.1,3.1,3.7,4.1c1.5,1,3.3,1.5,5.2,1.5c1.1,0,2-0.1,3-0.5
					c0.9-0.3,1.6-0.8,2.3-1.3c0.5-0.4,0.9-0.8,1.3-1.1c0,0.7,0.2,1.3,0.7,1.8c0.4,0.5,1.1,0.8,1.8,0.8c0.8,0,1.3-0.3,1.8-0.8
					c0.4-0.4,0.7-1.1,0.7-1.8v-17.7C761.2,903,760.9,902.3,760.5,901.8z M755.6,916.3c-0.5,1.1-1.3,1.9-2.1,2.5
					c-0.9,0.6-2,0.9-3.2,0.9s-2.3-0.3-3.2-0.9c-0.9-0.6-1.6-1.4-2.1-2.5c-0.5-1.1-0.8-2.3-0.8-3.5c0-1.3,0.3-2.5,0.8-3.6
					c0.5-1.1,1.2-1.9,2.1-2.5c0.9-0.6,2-0.9,3.2-0.9s2.3,0.3,3.2,0.9c0.9,0.6,1.6,1.5,2.1,2.5c0.5,1.1,0.8,2.3,0.8,3.6
					C756.4,914,756.1,915.2,755.6,916.3z"/>
				<path class="st0" d="M750.7,900.2c0.3,0,0.6,0,1-0.1c0.3-0.1,0.6-0.3,0.9-0.6l3.2-3.5c0.3-0.3,0.4-0.6,0.6-0.9
					c0.1-0.3,0.2-0.6,0.2-0.9c0-0.6-0.1-1.1-0.5-1.5c-0.4-0.4-0.9-0.6-1.7-0.6c-0.5,0-0.9,0.2-1.3,0.5c-0.4,0.3-0.7,0.7-1,1.2
					l-2.4,4.2c-0.2,0.3-0.3,0.5-0.3,0.8c0,0.4,0.1,0.8,0.5,1C750.2,900,750.5,900.2,750.7,900.2z"/>
				<path class="st0" d="M802.2,901.7c-0.7,0-1.3,0.2-1.8,0.7s-0.7,1.1-0.7,1.8v17.2c0,0.7,0.2,1.3,0.7,1.8c0.5,0.5,1.1,0.7,1.8,0.7
					c0.7,0,1.3-0.2,1.8-0.7c0.5-0.5,0.7-1.1,0.7-1.8v-17.2c0-0.7-0.2-1.3-0.7-1.8C803.5,902,802.9,901.7,802.2,901.7z"/>
				<path class="st0" d="M787.3,893.3c-0.6-0.2-1.2-0.3-1.8-0.3c-2.8,0-4.9,0.7-6.2,2s-2.1,3-2.1,5v1.9h-2.2c-0.7,0-1.2,0.2-1.7,0.6
					c-0.4,0.4-0.7,1-0.7,1.6s0.2,1.2,0.7,1.6c0.4,0.4,1,0.6,1.7,0.6h2.2v14.7c0,0.7,0.2,1.3,0.7,1.8c0.5,0.5,1.1,0.7,1.8,0.7
					c0.7,0,1.3-0.2,1.8-0.7c0.5-0.5,0.7-1.1,0.7-1.8v-14.7h3.8c0.7,0,1.2-0.2,1.7-0.6s0.7-1,0.7-1.6s-0.2-1.2-0.7-1.6
					c-0.4-0.4-1-0.6-1.7-0.6h-3.8v-2c0-0.3,0.1-0.7,0.2-1.1c0.1-0.4,0.4-0.8,0.8-1.1c0.4-0.3,0.9-0.5,1.6-0.5c0.5,0,1,0.1,1.5,0.2
					c0.5,0.1,0.9,0.2,1.1,0.2c0.5,0,1-0.2,1.4-0.6c0.4-0.4,0.6-1,0.6-1.6c0-0.6-0.2-1.1-0.6-1.5
					C788.4,893.7,787.9,893.4,787.3,893.3z"/>
				<path class="st0" d="M802.2,894.1c-0.9,0-1.5,0.1-2,0.4c-0.4,0.3-0.6,0.8-0.6,1.6v0.8c0,0.8,0.2,1.3,0.6,1.6
					c0.4,0.3,1.1,0.5,2,0.5c0.9,0,1.6-0.1,2-0.4c0.4-0.3,0.6-0.8,0.6-1.6v-0.8c0-0.8-0.2-1.3-0.6-1.6
					C803.8,894.2,803.1,894.1,802.2,894.1z"/>
				<path class="st0" d="M833.1,918.3c-0.6,0-1.1,0.1-1.4,0.4c-0.3,0.2-0.7,0.5-1,0.7c-0.3,0.2-0.8,0.3-1.2,0.4
					c-0.5,0.1-1.1,0.1-1.8,0.1c-1.2,0-2.4-0.3-3.3-0.9c-1-0.6-1.7-1.4-2.2-2.5c-0.5-1-0.8-2.2-0.8-3.6c0-1.4,0.3-2.6,0.8-3.6
					c0.5-1,1.3-1.9,2.3-2.5c1-0.6,2.2-0.9,3.6-0.9c0.3,0,0.7,0,1.3,0.1c0.6,0.1,1,0.2,1.3,0.4c0.3,0.2,0.6,0.3,0.8,0.5
					c0.2,0.2,0.5,0.4,0.8,0.5c0.3,0.1,0.7,0.2,1.1,0.2c0.6,0,1.1-0.2,1.5-0.7s0.5-1,0.5-1.6c0-0.8-0.3-1.5-1-2.1s-1.6-1.1-2.7-1.4
					c-1.2-0.3-2.6-0.5-4.1-0.5c-2.1,0-4,0.5-5.7,1.5c-1.7,1-2.9,2.3-3.9,4.1c-0.9,1.7-1.4,3.7-1.4,6c0,2.2,0.4,4.1,1.3,5.9
					c0.9,1.7,2.1,3.1,3.7,4.1c1.6,1,3.5,1.5,5.7,1.5c1.5,0,2.8-0.2,4.1-0.5c1.3-0.3,2.3-0.8,3.1-1.4c0.8-0.6,1.2-1.2,1.2-1.9
					c0-0.7-0.2-1.2-0.6-1.7C834.3,918.5,833.8,918.3,833.1,918.3z"/>
				<path class="st0" d="M866.5,902c-0.4-0.5-1.1-0.7-1.8-0.7c-0.8,0-1.3,0.3-1.8,0.7c-0.4,0.5-0.7,1.1-0.7,1.8v0.1
					c-0.3-0.3-0.5-0.4-0.8-0.7c-0.7-0.6-1.6-1-2.6-1.4c-1-0.3-2.1-0.5-3.3-0.5c-1.9,0-3.5,0.5-5.1,1.5c-1.6,1-2.8,2.3-3.7,4.1
					c-0.9,1.7-1.4,3.7-1.4,6c0,2.3,0.4,4.2,1.4,6c0.9,1.7,2.1,3.1,3.7,4.1c1.6,0.9,3.3,1.5,5.2,1.5c1,0,2-0.2,2.9-0.5
					c0.9-0.4,1.7-0.8,2.3-1.3c0.5-0.4,0.9-0.8,1.3-1.2c0,0.8,0.3,1.3,0.7,1.8c0.5,0.4,1.1,0.7,1.8,0.7c0.7,0,1.3-0.3,1.8-0.7
					c0.5-0.5,0.7-1.1,0.7-1.8v-17.6C867.2,903.1,867,902.5,866.5,902z M861.6,916.4c-0.5,1.1-1.2,1.9-2.1,2.5
					c-0.9,0.6-2,0.9-3.2,0.9c-1.1,0-2.2-0.3-3.2-0.9c-0.9-0.6-1.6-1.5-2.1-2.5c-0.5-1.1-0.8-2.2-0.8-3.5c0-1.3,0.3-2.5,0.8-3.6
					c0.5-1,1.3-1.8,2.1-2.5c0.9-0.6,2-0.9,3.2-0.9c1.3,0,2.3,0.3,3.2,0.9c0.9,0.6,1.6,1.5,2.1,2.5c0.5,1.1,0.8,2.3,0.8,3.6
					C862.4,914.2,862.1,915.3,861.6,916.4z"/>
			</g>
			<path class="st1" d="M883.1,791.7c-0.1-0.5-0.4-0.9-0.9-1.2c-0.5-0.4-1.1-0.5-1.8-0.6c-3.2-0.1-4.5,6-5.4,8.3
				c-3.5,9.7-6.1,18.8-10,28.3c-3.5,8.2-12.4,26.1-23.9,22.7c-14.3-4.1-13.8-25.7-13.3-37.2c0.6-14.5,1.6-29,3.2-43.5
				c1.5-13.5,4.8-27,5.2-40.6c0.1-3.4-0.1-7-1.7-10.1c-4.2-8.6-25.3-14.4-33.1-8.3c-3,2.3-3.7,6.3-4.1,9.8
				c-1.3,10-3.4,19.8-5.1,29.7c-5.3,29.4-12,60-26.8,86.2c-3.4,6.1-7.8,14.5-15.9,14.3c-13-0.3-13.6-18.3-13.6-27.7
				c0-23.7,6.1-46.9,5.7-70.5c-0.3-18.4-7.7-33.8-25.8-40.3c-3.3-1.1-6.7-1.7-10.2-1.8c-4,0-8,0.6-11.7,2.1
				c-3.4,1.5-6.5,3.7-9.3,6.2c-5.7,5.3-9.6,12.3-12.8,19.3c-1.8,3.9-3.5,7.9-5,11.9c-0.8,1.9-1.5,3.8-2,5.8
				c-0.6,1.8-0.8,3.8-1.6,5.5c0.5-4.5,1-9.1,1-13.7c0-4.5-0.1-9.3-1.5-13.6c-2.1-6.8-6.3-12.8-11.9-17.2c-2.7-2.1-5.7-3.9-8.9-5.1
				c-3.9-1.5-8-1.9-12.1-1.5c-7.4,0.8-14.3,4.4-19.8,9.4c-3.3,3-6,6.4-8.3,10.2c-1.3,2.1-2.5,4.4-3.5,6.6c-0.9,1.8-1.6,3.7-2.4,5.6
				c-0.6-4.3,1.6-9.7,1.2-14.4c-1-12.5-15.2-17.9-26-18.1c-2.3-0.1-4.5,0.1-6.8,0.7c-2.9,0.7-5.3,3-6.2,5.9c-1.1,3.3-1.4,7-2,10.5
				c-6.4,33.8-11.9,68.2-25.1,100.2c-4.6,11.2-17,34.8-31.1,18.9c-4-4.6-5.6-10.5-6.4-16.5c-0.6-5-0.6-10-0.3-15
				c1.5-24.7,3.6-49.4,7-73.9c0.8-5.2,1.5-10.6-0.3-15.6c-3.3-9.3-14.5-13.4-23.4-14.3c-3.8-0.4-9.8-1.3-12.8,1.8
				c-1.6,1.8-2.3,4.4-2.7,6.7c-0.6,3.4-1.1,6.9-1.7,10.4c-0.2,0.9-0.3,3.7-1.3,4c-1.3,0.4-1.8-1.7-2.3-2.5c-2.8-5-6.4-9.7-11-13.1
				c-17.4-13.1-41.2-5.5-55.2,8.7c-18.4,18.7-21.9,43.8-29.4,67.7c-2.1,6.8-4.8,13.3-7.6,19.8c-7.8,17.5-16,35.3-28.8,49.8
				c-1.2,1.4-2.5,2.7-3.8,4c-8,8.1-18.2,15.1-29.7,16.3c-11.6,1.1-22.2-4.4-30.2-12.2c-7.9-7.6-13.7-17-18.1-27
				c-26.2-59.3-17.7-129.3-5.3-191c2.5-12.6,5.6-25.2,9.6-37.4c3.9-12.2,8.7-24.1,14.7-35.4c5.7-10.8,12.5-21,20.3-30.5
				c6.4-7.8,15.3-15.9,26.3-14.5c4.9,0.6,9.4,3.3,12.5,7.2c3.8,4.6,5.6,10.5,6.8,16.3c2.8,13.2,2.7,26.8,1.9,40.1
				c-0.9,13.4-2.5,26.8-5.1,40c-2.2,11.2-5.2,22.2-8.8,33.1c-1.4,4.2-3.3,9.3-1.6,13.6c1.5,4.3,6.2,5.9,10.2,7.4
				c6.2,2.3,14.5,4.2,20.5,0.3c4.8-3.1,6-9,7.4-14.1c3.7-12.9,6.2-26.2,7.4-39.6c1.2-12.7,1.3-25.5,0.8-38.2
				c-0.6-11.2-1.8-22.4-4.8-33.3c-3-10.8-7.6-21.1-14.6-29.9c-6.2-7.8-14.3-14.1-23.5-17.9c-8.8-3.6-18.6-4.9-28-3.8
				c-10.2,1.2-19.8,5.1-28.3,10.7c-9.6,6.4-17.6,14.8-24.4,24.1c-7.4,10-13.4,20.9-18.6,32.1c-5.4,11.9-10,24.1-14,36.5
				c-4.1,12.8-7.6,25.6-10.7,38.7c-3,13.1-5.6,26.3-7.3,39.6c-1.8,13.3-2.8,26.6-3,40c-0.3,12.8,0.3,25.6,1.8,38.2
				c1.5,12.8,4,25.4,7.5,37.7c3.5,12.4,8.1,24.5,14.1,35.9c3,5.6,6.2,11,9.8,16.3c3.3,4.9,6.8,9.6,10.8,13.9
				c8.1,8.8,18.7,15.1,30.1,18.7c12.2,3.7,25.6,4.4,38,0.9c11.4-3.2,21.5-9.8,30.1-18c8.5-8.1,15.7-17.5,21.8-27.4
				c3-4.7,5.8-9.6,8.5-14.5c1.5-2.7,2.8-5.2,4.2-7.9c1-2,2-4,3-6.1c0.1-0.4,2.2-4.3,2.2-4.7c0.9,1.5,1.1,3.4,1.6,5
				c0.8,2.1,1.6,4.2,2.5,6.2c2.3,5,5.3,9.7,8.9,13.8c5.7,6.4,13.1,11.6,21.5,13.6c24.1,5.7,44.8-14.1,54.5-34
				c0.6-1.3,1.2-2.5,1.8-3.8c0.5-1.3,0.9-2.9,1.7-4c0.4,0.9,0.1,2.3,0.2,3.2c0.1,1.3,0.2,2.5,0.4,3.8c0.3,2.4,0.8,4.8,1.5,7.1
				c1.3,4.9,3.3,9.6,5.7,14.1c4.8,8.6,11.8,16.5,20.8,20.9c9.4,4.5,20.1,4.5,29.2-0.9c9.4-5.7,16-15.1,21-24.7c1.6-3,3-6,4.3-9
				c1.5-3.5,2.8-7,4-10.5c0.6-1.8,1.3-3.7,1.8-5.6c0.6-1.9,1.5-5.1,1.8-6c0,0.6-0.4,3.9-0.6,5.2c-1.1,7.9-1.5,15.2-2,23.2
				c-0.3,5.1-1.4,13.1,2.3,17.4c0.8,0.9,2,1.7,3.2,2.2c1.5,0.6,3.1,1.1,4.7,1.5c7.6,1.9,20.2,2.4,25.6-4.6c2.5-3.2,3-7.6,3.5-11.6
				c0.8-5.3,1.4-10.6,1.9-15.9c2.7-27.3,5.2-55.1,16.3-80.6c3.5-8,10.7-18.7,20.9-13.1c7,3.8,5.7,12.9,5.5,19.5
				c-0.6,15.6-3.3,31.1-5.1,46.6c-1.3,11.7-2.3,23.4-3.6,35c-0.8,7.4-2.5,17.7,4.7,22.5c4.6,3,10.4,2.5,15.6,2.5
				c4.2,0,8.7,0.1,12.4-2c3.7-2.1,5-5.9,5.5-10c3.8-31.1,6.9-62.4,17-92.3c2.8-8.2,6.3-18.5,14.9-22.2c5.2-2.3,10.8,0.2,13.3,5.1
				c2.5,4.9,0.9,10.7,0.6,15.8c-2.2,31.8-21.1,95.9,19.8,113c11.7,4.9,26.1,3.2,35.9-5c4-3.3,7.3-7.5,10.2-11.7
				c8.5-12.5,13.9-26.8,18-41.2c1-3.5,2-6.9,2.8-10.5c0.8-3.2,1.3-6.3,2.1-9.4c-0.2,7.1-1.4,14-1.4,21.1
				c0.1,15.7,3.1,32.7,13.1,45.3c7.6,9.6,21,15.2,33.1,13.8c8-0.9,14.6-6.1,19.6-12.1c4-4.8,7.3-10.3,10.1-15.8
				c4-8.1,7.4-16.5,10.4-25c1.8-4.9,3.3-9.9,4.5-15c0.3-1.5,0.6-2.8,0.8-4.3C883.2,795.4,883.5,793.4,883.1,791.7z M449.8,802.5
				c-4.5,13.6-9.3,27.7-19.9,37.8c-7.4,7.1-17,8.8-25.2,1.4c-6.8-6.1-9-16-9.7-24.8c-1.3-17.5,3-37.6,11.5-54.6
				c3.8-8,8.5-15.1,14-21.2c2.7-3.1,5.9-6,9.6-7.6c18.4-7.9,23.5,15.8,24.2,28.5c0.1,2.3,0.1,4.7,0.1,7.1
				C454.4,780.3,453.2,792.2,449.8,802.5z"/>
		</g>
	</g>
	<g>
		<g>
			<path class="st0" d="M867.2,588.5c-2.1,3.6-5.4,6.2-8.7,8.7c-2.6,2-5.4,4.2-8.7,5.1c-0.8,0.2-1.6,0.4-2.4,0.3
				c-0.4,0-0.8-0.1-1.2-0.2c-0.3-0.1-0.3-0.1-0.2-0.3c0.1-0.3,0.7-0.6,0.9-0.8c0.4-0.3,0.7-0.7,1-1.1c0.7-0.8,1.3-1.6,1.9-2.4
				c1.2-1.7,2.1-3.6,2.9-5.5c1.6-3.7,2.6-7.6,3.3-11.5c0.4-2.1,1.8-10.2-2.4-9.8c-0.7,0.1-1.5,0.5-1.9,1c-0.5,0.6-0.8,1.4-0.7,2.2
				c-0.1,2.3,1,4.6,1.1,6.9c0.1,2.2-0.2,4.2-0.7,6.3c-0.9,3.6-2.5,7.1-4.4,10.2c-0.6,0.9-1.2,1.9-1.8,2.8c-0.2,0.3-0.5,1-0.9,1
				c-0.3,0-0.7-0.4-1-0.6c-0.7-0.6-1.2-1.4-1.6-2.3c-0.8-1.7-1-3.7-1.1-5.6c-0.2-2.4,0-4.8-0.5-7.2c-0.5-2.5-1.4-5-2.1-7.4
				c-0.7-2.4-1.3-4.8-1.2-7.3c0.1-2.6,0.7-5.2,1.8-7.5c0.7-1.3,1.5-2.5,2.4-3.6c1.9-2,4.1-3.5,6.7-4.2c4.3-1.1,8.8,0,12.2,2.7
				c5.7,4.5,9.2,11.9,9.6,19.2C869.8,581.4,869.2,585.2,867.2,588.5z"/>
		</g>
		<g>
			<path class="st0" d="M871.3,627.8c-4.1-0.8-7.7-3-11.1-5.3c-2.8-1.8-5.8-3.7-7.7-6.5c-0.5-0.7-0.9-1.4-1.1-2.2
				c-0.1-0.4-0.2-0.8-0.2-1.2c0-0.3,0-0.4,0.2-0.3c0.4,0,0.7,0.4,1.1,0.6c0.4,0.2,0.9,0.4,1.4,0.6c0.9,0.4,1.9,0.7,2.9,0.9
				c2,0.5,4.1,0.8,6.1,0.9c4,0.3,8-0.1,11.9-0.7c2.1-0.3,10.2-1.7,8.4-5.5c-0.3-0.7-0.9-1.2-1.6-1.5c-0.7-0.3-1.6-0.2-2.4,0.1
				c-2.2,0.7-4,2.4-6.2,3.3c-2,0.8-4.1,1.2-6.1,1.5c-3.7,0.4-7.5,0-11.1-0.7c-1.1-0.2-2.2-0.5-3.2-0.8c-0.3-0.1-1.1-0.1-1.2-0.5
				c-0.1-0.3,0.2-0.8,0.3-1.1c0.4-0.9,1-1.6,1.7-2.2c1.4-1.3,3.1-2.2,4.9-2.9c2.2-0.9,4.6-1.7,6.6-2.9c2.2-1.3,4.2-2.9,6.3-4.5
				c2-1.5,4.1-2.8,6.5-3.6c2.5-0.8,5.1-1.1,7.6-0.8c1.4,0.2,2.9,0.6,4.2,1.1c2.5,1.1,4.6,2.7,6.2,4.9c2.5,3.7,2.9,8.3,1.5,12.4
				c-2.3,6.9-8.2,12.7-14.9,15.5C878.8,627.9,875.1,628.6,871.3,627.8z"/>
		</g>
		<g>
			<path class="st0" d="M835.6,644.8c-0.6-4.1,0.3-8.3,1.3-12.2c0.8-3.2,1.6-6.7,3.5-9.4c0.5-0.7,1-1.3,1.7-1.8
				c0.3-0.2,0.7-0.5,1.1-0.6c0.3-0.1,0.3-0.2,0.4,0.1c0.1,0.3-0.2,0.8-0.2,1.2c-0.1,0.5-0.1,1-0.1,1.5c0,1,0,2,0.1,3
				c0.2,2.1,0.6,4.1,1.2,6.1c1.1,3.8,2.7,7.5,4.7,11c1,1.8,5,9.1,8,6.1c0.5-0.5,0.8-1.3,0.8-2c0-0.8-0.3-1.6-0.8-2.2
				c-1.3-1.8-3.6-2.9-5.2-4.7c-1.4-1.6-2.5-3.4-3.4-5.3c-1.6-3.3-2.5-7-3-10.7c-0.2-1.1-0.3-2.2-0.3-3.3c0-0.4-0.2-1.1,0.1-1.3
				c0.3-0.2,0.9-0.1,1.2-0.1c0.9,0.1,1.8,0.4,2.7,0.8c1.7,0.9,3.1,2.2,4.4,3.6c1.6,1.8,3.1,3.7,4.9,5.3c2,1.6,4.2,3,6.3,4.4
				c2.1,1.4,4,2.9,5.6,4.9c1.5,2.1,2.7,4.5,3.3,7c0.3,1.4,0.4,2.9,0.3,4.3c-0.2,2.7-1,5.3-2.6,7.5c-2.7,3.6-6.8,5.5-11.2,5.6
				c-7.3,0.1-14.7-3.5-19.5-8.8C838,651.9,836.1,648.6,835.6,644.8z"/>
		</g>
		<g>
			<path class="st0" d="M807.7,616.8c3.7-1.9,7.9-2.5,12-2.8c3.3-0.4,6.8-0.8,10.1,0.2c0.8,0.2,1.6,0.5,2.2,1
				c0.3,0.2,0.7,0.5,0.9,0.8c0.2,0.2,0.3,0.2,0,0.4c-0.3,0.2-0.8,0.1-1.2,0.2c-0.5,0.1-1,0.2-1.4,0.4c-1,0.3-1.9,0.7-2.8,1.1
				c-1.9,0.9-3.7,1.9-5.4,3.1c-3.3,2.3-6.2,5.1-8.8,8.1c-1.4,1.6-6.9,7.7-3.1,9.6c0.7,0.3,1.5,0.4,2.2,0.1c0.8-0.2,1.4-0.8,1.8-1.5
				c1.3-1.9,1.5-4.4,2.7-6.4c1.1-1.9,2.4-3.5,3.9-5c2.6-2.6,5.8-4.7,9.1-6.4c1-0.5,2-1,3-1.4c0.3-0.1,0.9-0.6,1.3-0.3
				c0.3,0.2,0.4,0.8,0.5,1.1c0.2,0.9,0.3,1.9,0.1,2.8c-0.3,1.9-1.1,3.7-2,5.3c-1.1,2.1-2.5,4.1-3.4,6.4c-0.9,2.4-1.4,4.9-2.1,7.4
				c-0.6,2.4-1.4,4.8-2.8,6.9c-1.4,2.1-3.3,4-5.5,5.4c-1.2,0.8-2.6,1.4-3.9,1.8c-2.6,0.7-5.3,0.8-7.9,0c-4.3-1.3-7.5-4.6-9-8.7
				c-2.6-6.8-1.6-15,1.8-21.4C801.8,621.5,804.3,618.6,807.7,616.8z"/>
		</g>
		<g>
			<path class="st0" d="M824.7,581.2c3.1,2.8,5,6.6,6.7,10.3c1.4,3,3,6.2,3.2,9.5c0,0.8,0,1.6-0.2,2.4c-0.1,0.4-0.2,0.8-0.4,1.1
				c-0.1,0.2-0.1,0.3-0.4,0.2c-0.3-0.2-0.4-0.8-0.6-1.1c-0.3-0.4-0.5-0.8-0.8-1.2c-0.6-0.8-1.3-1.6-2-2.3c-1.4-1.5-3-2.8-4.7-4
				c-3.3-2.3-6.9-4.1-10.5-5.6c-1.9-0.8-9.6-3.9-10.1,0.3c-0.1,0.7,0.2,1.5,0.6,2.1c0.5,0.6,1.2,1,2,1.2c2.2,0.6,4.7,0,7,0.4
				c2.1,0.4,4.1,1.1,6,2c3.3,1.6,6.4,3.9,9.1,6.4c0.8,0.8,1.6,1.6,2.3,2.4c0.2,0.3,0.8,0.7,0.8,1.1c-0.1,0.3-0.6,0.6-0.8,0.8
				c-0.8,0.5-1.7,0.9-2.6,1.1c-1.9,0.4-3.8,0.2-5.7-0.1c-2.4-0.3-4.7-1-7.1-1c-2.6,0-5.1,0.3-7.7,0.5c-2.5,0.2-5,0.2-7.4-0.3
				c-2.5-0.6-4.9-1.8-6.9-3.4c-1.1-0.9-2.2-2-3-3.1c-1.6-2.2-2.5-4.7-2.7-7.4c-0.2-4.5,1.8-8.6,5.2-11.4c5.6-4.7,13.6-6.5,20.8-5.4
				C818.4,577.1,822,578.5,824.7,581.2z"/>
		</g>
	</g>
</g>
</svg>
