<?xml version="1.0" encoding="utf-8"?>
<!-- Generator: Adobe Illustrator 26.0.0, SVG Export Plug-In . SVG Version: 6.00 Build 0)  -->
<svg version="1.1" id="Capa_1" xmlns="http://www.w3.org/2000/svg" xmlns:xlink="http://www.w3.org/1999/xlink" x="0px" y="0px"
	 viewBox="0 0 1080 1440" style="enable-background:new 0 0 1080 1440;" xml:space="preserve">
<style type="text/css">
	.st0{fill:#07344C;}
</style>
<g>
	<g>
		<path class="st0" d="M207.26,832.98c0.12-0.39,0.24-0.75,0.36-1.07c0.13-0.33,0.25-0.63,0.36-0.9l14.1-34.04
			c0.08-0.19,0.18-0.35,0.3-0.51c0.12-0.15,0.31-0.23,0.58-0.23h0.1l0.83,0h0.1c0.29,0,0.49,0.07,0.61,0.23
			c0.12,0.15,0.23,0.3,0.33,0.45l14.92,35.68c0.02,0.03,0.03,0.11,0.05,0.24c0.02,0.13,0.03,0.21,0.03,0.26
			c0,0.4-0.27,0.64-0.81,0.71l-1.34,0c-0.03,0-0.07,0-0.1,0.01c-0.03,0.01-0.07,0.01-0.1,0.01c-0.42,0-0.72-0.23-0.91-0.71
			l-3.56-8.58l-19.15,0.05c-0.65,1.62-1.28,3.16-1.87,4.63c-0.59,1.47-1.13,2.81-1.62,4.02c-0.18,0.42-0.48,0.63-0.88,0.63
			c-0.1,0-0.18-0.01-0.23-0.02l-1.34,0c-0.54-0.05-0.81-0.27-0.81-0.65c0-0.03,0-0.07,0-0.11
			C207.23,833.05,207.24,833.01,207.26,832.98z M215.28,821.44l16.54-0.04l-8.29-20.16L215.28,821.44z"/>
	</g>
	<g>
		<path class="st0" d="M246.1,802.79c0-0.3,0.09-0.54,0.26-0.7c0.17-0.16,0.4-0.24,0.69-0.24l1.03,0c0.3,0,0.53,0.09,0.69,0.26
			c0.16,0.18,0.24,0.4,0.24,0.67l0.01,3.71c0.72-1.1,1.54-2,2.44-2.7c0.91-0.7,1.84-1.25,2.8-1.65c0.96-0.4,1.9-0.67,2.84-0.82
			c0.93-0.15,1.8-0.22,2.59-0.22c1.94-0.01,3.71,0.34,5.31,1.05c1.6,0.7,2.97,1.67,4.1,2.89c1.13,1.23,2.01,2.66,2.64,4.29
			c0.63,1.63,0.94,3.37,0.95,5.23l0.05,18.04c0,0.37-0.09,0.65-0.27,0.83c-0.18,0.19-0.43,0.28-0.73,0.28l-0.93,0
			c-0.38,0-0.64-0.08-0.78-0.25c-0.13-0.17-0.2-0.45-0.2-0.83l-0.05-18.14c-0.05-1.31-0.32-2.6-0.79-3.85
			c-0.48-1.25-1.15-2.37-2.01-3.34c-0.86-0.97-1.92-1.76-3.17-2.35c-1.25-0.59-2.67-0.89-4.28-0.88c-1.3,0-2.57,0.25-3.8,0.73
			c-1.24,0.48-2.34,1.16-3.32,2.03c-0.98,0.87-1.77,1.91-2.38,3.13c-0.61,1.21-0.94,2.55-0.99,4.02l0.05,18.99
			c0,0.54-0.25,0.81-0.75,0.81l-1.33,0c-0.53,0-0.8-0.27-0.8-0.81l-0.02-7c-0.02-0.05-0.03-0.14-0.03-0.28L246.1,802.79z"/>
	</g>
	<g>
		<path class="st0" d="M311.98,832.79c0,0.54-0.27,0.81-0.81,0.81l-1.31,0c-0.54,0-0.81-0.27-0.81-0.81l-0.01-4.24l-0.11-1.87
			c-0.34,0.56-0.7,1.12-1.08,1.7c-0.39,0.57-0.8,1.06-1.23,1.47c-1.5,1.42-3.18,2.51-5.06,3.27c-1.88,0.76-3.87,1.15-5.97,1.15
			c-1.52,0-2.98-0.19-4.38-0.58c-1.41-0.39-2.73-0.95-3.96-1.67c-1.23-0.72-2.35-1.59-3.37-2.59c-1.01-1.01-1.88-2.12-2.61-3.34
			c-0.73-1.22-1.29-2.54-1.69-3.95c-0.4-1.41-0.6-2.88-0.61-4.39c0-1.52,0.19-2.98,0.58-4.4c0.39-1.42,0.95-2.74,1.67-3.97
			c0.72-1.23,1.59-2.35,2.59-3.37c1.01-1.01,2.12-1.88,3.35-2.61c1.23-0.73,2.54-1.29,3.95-1.69c1.4-0.4,2.87-0.6,4.38-0.61
			c1.06,0,2.1,0.1,3.11,0.32c1.01,0.22,1.99,0.52,2.93,0.91c0.94,0.39,1.84,0.87,2.69,1.42c0.85,0.55,1.64,1.17,2.37,1.84
			c0.46,0.47,0.85,0.95,1.19,1.42c0.34,0.48,0.74,1.03,1.19,1.65l-0.04-16.24c0-0.12,0.04-0.22,0.12-0.3
			c0.08-0.08,0.19-0.13,0.33-0.13l1.79-0.03c0.45,0,0.68,0.23,0.68,0.68L311.98,832.79z M282.09,817.74c0,1.85,0.36,3.61,1.06,5.26
			c0.7,1.66,1.66,3.11,2.88,4.36c1.22,1.25,2.64,2.25,4.26,2.98c1.63,0.74,3.37,1.1,5.22,1.1c1.87-0.01,3.64-0.37,5.3-1.09
			c1.66-0.72,3.12-1.7,4.37-2.94c1.25-1.24,2.24-2.7,2.96-4.37c0.72-1.67,1.08-3.45,1.07-5.33c-0.01-1.85-0.36-3.62-1.08-5.29
			c-0.71-1.67-1.68-3.14-2.92-4.4c-1.23-1.26-2.68-2.26-4.33-3.01c-1.65-0.74-3.41-1.12-5.28-1.11s-3.63,0.38-5.28,1.11
			c-1.65,0.74-3.08,1.74-4.3,3.01s-2.18,2.73-2.89,4.4C282.43,814.11,282.08,815.87,282.09,817.74z"/>
	</g>
	<g>
		<path class="st0" d="M339.29,806.8c-0.08,0.08-0.18,0.13-0.28,0.13c-0.12,0-0.26-0.03-0.42-0.1c-0.16-0.07-0.37-0.19-0.62-0.38
			c-0.35-0.25-0.77-0.51-1.25-0.77c-0.48-0.26-0.99-0.5-1.52-0.73c-0.53-0.23-1.07-0.41-1.62-0.55c-0.55-0.14-1.08-0.21-1.6-0.21
			c-1.3,0-2.52,0.23-3.66,0.69c-1.14,0.46-2.14,1.1-3,1.94c-0.86,0.84-1.53,1.86-2.03,3.06c-0.49,1.21-0.74,2.55-0.73,4.03
			l0.05,18.87c0,0.52-0.27,0.78-0.81,0.79l-1.34,0c-0.56,0-0.83-0.26-0.84-0.78l-0.08-30.34c0-0.45,0.23-0.68,0.71-0.68
			c0.05,0,0.09,0.01,0.13,0.02c0.03-0.02,0.09-0.03,0.18-0.03l1.04,0c0.3,0,0.54,0.09,0.7,0.26c0.16,0.18,0.24,0.4,0.24,0.67
			l0.01,4.12c0.35-0.66,0.81-1.31,1.38-1.95c0.57-0.64,1.24-1.22,2.02-1.74s1.64-0.93,2.59-1.26c0.95-0.32,1.97-0.49,3.07-0.49
			c0.88,0,1.69,0.05,2.44,0.17c0.75,0.12,1.46,0.29,2.14,0.53c0.67,0.23,1.32,0.53,1.95,0.89c0.62,0.36,1.25,0.78,1.87,1.27
			c0.17,0.14,0.32,0.28,0.46,0.43c0.13,0.15,0.2,0.33,0.2,0.53c0,0.15-0.14,0.38-0.43,0.7C339.94,806.22,339.63,806.52,339.29,806.8
			z"/>
	</g>
	<g>
		<path class="st0" d="M347.56,818.63c0.05,0.29,0.09,0.67,0.12,1.15c0.03,0.48,0.1,0.93,0.22,1.35c0.42,1.5,1.05,2.87,1.87,4.11
			c0.82,1.24,1.79,2.31,2.93,3.2c1.13,0.89,2.39,1.58,3.78,2.09c1.39,0.5,2.86,0.75,4.41,0.75c0.89,0,1.73-0.07,2.5-0.21
			c0.77-0.14,1.49-0.33,2.16-0.57c0.66-0.25,1.29-0.54,1.89-0.88c0.6-0.34,1.16-0.71,1.7-1.12c0.17-0.1,0.34-0.22,0.52-0.37
			c0.18-0.14,0.35-0.28,0.52-0.41c0.17-0.13,0.32-0.24,0.47-0.33c0.14-0.09,0.27-0.14,0.39-0.14c0.13,0,0.29,0.11,0.46,0.33
			c0.29,0.4,0.49,0.71,0.62,0.93c0.13,0.22,0.19,0.39,0.19,0.5c0,0.07-0.03,0.14-0.1,0.2c0.08,0.08,0.13,0.17,0.13,0.25
			c-0.18,0.24-0.41,0.48-0.68,0.73s-0.59,0.51-0.96,0.76c-1.36,0.96-2.83,1.73-4.41,2.29c-1.58,0.56-3.31,0.84-5.18,0.85
			c-2.27,0.01-4.42-0.42-6.43-1.28c-2.01-0.86-3.78-2.04-5.29-3.55c-1.51-1.5-2.71-3.26-3.6-5.26c-0.89-2-1.34-4.14-1.34-6.41
			c0-1.53,0.19-3.01,0.57-4.42c0.38-1.42,0.93-2.74,1.63-3.97c0.7-1.23,1.56-2.35,2.55-3.37c1-1.01,2.12-1.88,3.35-2.61
			c1.24-0.73,2.56-1.29,3.99-1.69c1.42-0.4,2.92-0.6,4.48-0.61c1.47,0,2.88,0.17,4.26,0.52c1.37,0.35,2.67,0.86,3.88,1.53
			c1.21,0.67,2.32,1.49,3.33,2.47c1.01,0.97,1.87,2.07,2.6,3.3c0.73,1.23,1.3,2.58,1.73,4.06c0.42,1.48,0.66,3.06,0.72,4.75v-0.03
			c0,0.02,0,0.04,0.01,0.06c0.01,0.02,0.01,0.05,0.01,0.09c0,0.57-0.27,0.86-0.8,0.86L347.56,818.63z M357.43,804.33
			c-1.28,0.34-2.47,0.87-3.58,1.6c-1.11,0.73-2.09,1.59-2.95,2.58c-0.86,1-1.57,2.1-2.15,3.31c-0.58,1.21-0.97,2.49-1.19,3.82
			l27.03-0.07c-0.21-1.68-0.71-3.24-1.52-4.68c-0.8-1.44-1.81-2.68-3.03-3.73c-1.22-1.05-2.59-1.87-4.14-2.46
			c-1.54-0.59-3.16-0.89-4.84-0.88c-0.57,0-1.13,0.03-1.67,0.09C358.86,803.97,358.2,804.11,357.43,804.33z M362.87,789.31
			c0.25-0.61,0.69-0.91,1.31-0.91l1.06,0c0.61,0,0.78,0.3,0.53,0.91l-2.51,5.92c-0.17,0.39-0.36,0.65-0.58,0.77
			c-0.22,0.13-0.47,0.19-0.76,0.19l-1.04,0c-0.62,0-0.8-0.32-0.53-0.96L362.87,789.31z"/>
	</g>
	<g>
		<path class="st0" d="M382.44,826.74c-0.03-0.08-0.06-0.16-0.08-0.24c-0.02-0.08-0.03-0.15-0.03-0.21c0-0.22,0.06-0.38,0.18-0.48
			c0.12-0.1,0.27-0.19,0.45-0.28l0.98-0.43c0.03-0.02,0.1-0.03,0.19-0.04c0.09-0.01,0.16-0.01,0.19-0.01c0.13,0,0.25,0.07,0.35,0.23
			c0.1,0.15,0.19,0.33,0.28,0.54c0.09,0.21,0.17,0.44,0.24,0.68c0.08,0.24,0.17,0.46,0.27,0.64c0.32,0.69,0.79,1.29,1.39,1.8
			c0.61,0.51,1.27,0.93,1.97,1.26c0.71,0.33,1.43,0.57,2.16,0.73c0.73,0.16,1.4,0.24,2.01,0.23c0.76,0,1.61-0.12,2.56-0.35
			c0.95-0.23,1.84-0.59,2.67-1.08c0.83-0.49,1.53-1.13,2.1-1.93c0.57-0.79,0.85-1.76,0.85-2.91c0-1.03-0.26-1.92-0.77-2.66
			c-0.51-0.75-1.16-1.38-1.95-1.9c-0.79-0.52-1.69-0.95-2.68-1.28c-0.99-0.33-1.98-0.61-2.96-0.83c-1.25-0.3-2.45-0.7-3.62-1.2
			c-1.16-0.5-2.19-1.11-3.09-1.82c-0.89-0.71-1.61-1.54-2.15-2.47c-0.54-0.93-0.81-1.98-0.82-3.14c0-1.33,0.23-2.54,0.71-3.61
			c0.48-1.08,1.15-2,2.03-2.77c0.87-0.77,1.92-1.36,3.15-1.78c1.23-0.42,2.59-0.63,4.09-0.63c1.23,0,2.36,0.15,3.39,0.46
			c1.03,0.31,1.96,0.75,2.78,1.32c0.83,0.57,1.54,1.26,2.15,2.08c0.61,0.82,1.12,1.72,1.52,2.71l-0.03-0.03
			c0.1,0.15,0.15,0.28,0.15,0.38c0,0.15-0.07,0.3-0.2,0.44c-0.13,0.14-0.29,0.27-0.48,0.39c-0.19,0.12-0.37,0.21-0.54,0.28
			c-0.18,0.07-0.32,0.1-0.42,0.1c-0.19,0-0.33-0.03-0.43-0.1c-0.1-0.07-0.19-0.16-0.27-0.28c-0.08-0.12-0.15-0.26-0.23-0.44
			c-0.08-0.18-0.17-0.36-0.29-0.57c-0.69-1.13-1.64-2.05-2.84-2.78c-1.2-0.73-2.63-1.09-4.3-1.09c-0.91,0-1.78,0.12-2.61,0.36
			c-0.83,0.24-1.57,0.6-2.22,1.08c-0.65,0.48-1.16,1.09-1.54,1.82c-0.38,0.73-0.56,1.59-0.56,2.57c0,0.84,0.26,1.59,0.76,2.25
			c0.51,0.66,1.14,1.22,1.89,1.7c0.75,0.48,1.56,0.87,2.42,1.18c0.86,0.31,1.64,0.55,2.35,0.71c0.13,0.03,0.22,0.05,0.25,0.06
			c0.03,0.01,0.06,0.01,0.08,0.01c1.53,0.35,2.93,0.8,4.2,1.37c1.26,0.56,2.34,1.23,3.24,2c0.89,0.77,1.59,1.66,2.08,2.66
			c0.49,1,0.74,2.13,0.74,3.4c0,1.45-0.3,2.74-0.9,3.88c-0.6,1.14-1.42,2.1-2.46,2.89c-1.03,0.79-2.23,1.39-3.58,1.8
			c-1.36,0.42-2.77,0.63-4.25,0.63c-1.25,0-2.44-0.15-3.59-0.47c-1.15-0.32-2.19-0.79-3.12-1.41c-0.94-0.62-1.74-1.39-2.42-2.29
			C383.21,828.96,382.73,827.92,382.44,826.74z"/>
	</g>
	<g>
		<path class="st0" d="M444.34,798.26c-1.53,0-3.01,0.21-4.41,0.62c-1.41,0.41-2.71,0.97-3.92,1.69c-1.2,0.72-2.3,1.58-3.28,2.59
			c-0.98,1.01-1.82,2.12-2.51,3.33c-0.69,1.22-1.22,2.51-1.6,3.88c-0.38,1.38-0.56,2.79-0.56,4.24c0,1.5,0.21,2.95,0.61,4.33
			c0.4,1.39,0.96,2.69,1.67,3.89c0.71,1.2,1.57,2.3,2.56,3.28c1,0.98,2.1,1.83,3.32,2.53c1.22,0.71,2.51,1.25,3.89,1.63
			c1.37,0.38,2.8,0.57,4.29,0.57c1.92-0.01,3.7-0.31,5.33-0.91c1.63-0.6,3.03-1.34,4.19-2.22l-0.03-10.15
			c0-0.62,0.31-0.94,0.92-0.94l1.05,0c0.28,0,0.51,0.08,0.68,0.24c0.17,0.16,0.25,0.39,0.25,0.69l0.03,11.24
			c0,0.19-0.05,0.35-0.16,0.49c-0.11,0.14-0.26,0.29-0.47,0.44c-1.68,1.2-3.5,2.16-5.47,2.89c-1.97,0.73-4.09,1.1-6.36,1.11
			c-1.77,0.01-3.47-0.22-5.11-0.67c-1.64-0.45-3.17-1.09-4.59-1.92c-1.42-0.83-2.71-1.82-3.88-2.98c-1.17-1.16-2.17-2.45-3-3.87
			c-0.83-1.42-1.47-2.95-1.93-4.59c-0.46-1.64-0.69-3.34-0.69-5.11c-0.01-1.75,0.22-3.45,0.67-5.09c0.45-1.64,1.09-3.18,1.92-4.6
			c0.83-1.43,1.82-2.72,2.98-3.9c1.16-1.17,2.45-2.18,3.87-3.03c1.42-0.85,2.95-1.5,4.59-1.97c1.64-0.47,3.34-0.7,5.11-0.71
			c2.59-0.01,5.07,0.49,7.42,1.5c0.4,0.18,0.89,0.42,1.45,0.7c0.56,0.28,1.1,0.59,1.62,0.9s0.95,0.63,1.32,0.94s0.54,0.58,0.55,0.82
			c0,0.19-0.07,0.36-0.2,0.53l-0.67,0.86c-0.12,0.13-0.23,0.24-0.34,0.33c-0.11,0.08-0.23,0.13-0.36,0.13c-0.25,0-0.58-0.15-1-0.45
			c-1.47-1.06-3.02-1.87-4.65-2.44C447.81,798.54,446.11,798.25,444.34,798.26z"/>
	</g>
	<g>
		<path class="st0" d="M462.64,817.25c0-1.52,0.19-2.98,0.58-4.4c0.39-1.42,0.95-2.74,1.67-3.97c0.72-1.23,1.59-2.35,2.59-3.37
			c1.01-1.01,2.12-1.88,3.35-2.61c1.23-0.73,2.54-1.29,3.95-1.69c1.4-0.4,2.87-0.6,4.38-0.61c1.52,0,2.98,0.19,4.38,0.58
			c1.41,0.39,2.73,0.95,3.96,1.67c1.23,0.72,2.36,1.58,3.38,2.59c1.02,1.01,1.9,2.13,2.62,3.35c0.73,1.23,1.29,2.55,1.69,3.96
			c0.4,1.41,0.6,2.88,0.61,4.39c0,1.52-0.19,2.98-0.58,4.4c-0.39,1.42-0.95,2.74-1.67,3.97c-0.72,1.23-1.59,2.35-2.61,3.37
			c-1.02,1.01-2.14,1.88-3.36,2.61c-1.23,0.73-2.54,1.29-3.95,1.69c-1.41,0.4-2.87,0.6-4.38,0.61c-1.52,0-2.98-0.19-4.38-0.58
			c-1.41-0.39-2.73-0.95-3.96-1.67c-1.23-0.72-2.35-1.58-3.37-2.59c-1.01-1.01-1.88-2.12-2.61-3.35c-0.73-1.23-1.29-2.55-1.69-3.96
			C462.85,820.23,462.64,818.77,462.64,817.25z M465.67,817.23c0,1.23,0.17,2.42,0.49,3.57c0.32,1.15,0.78,2.24,1.36,3.25
			c0.58,1.02,1.28,1.95,2.1,2.8c0.82,0.85,1.73,1.57,2.73,2.18c1,0.6,2.07,1.07,3.21,1.4c1.14,0.33,2.33,0.5,3.57,0.5
			c1.87,0,3.63-0.37,5.29-1.09c1.66-0.72,3.11-1.7,4.35-2.94c1.24-1.24,2.22-2.69,2.94-4.35c0.72-1.66,1.08-3.44,1.07-5.34
			c-0.01-1.85-0.36-3.61-1.07-5.28c-0.71-1.67-1.68-3.14-2.9-4.4c-1.23-1.26-2.66-2.26-4.3-3s-3.4-1.11-5.27-1.11
			c-1.87,0.01-3.63,0.38-5.29,1.11c-1.66,0.74-3.1,1.74-4.32,3c-1.23,1.26-2.2,2.73-2.91,4.4
			C466.02,813.6,465.67,815.37,465.67,817.23z M480.85,788.86c0.25-0.61,0.69-0.91,1.31-0.91l1.06,0c0.61,0,0.78,0.3,0.53,0.91
			l-2.51,5.92c-0.17,0.39-0.36,0.65-0.58,0.77c-0.22,0.13-0.47,0.19-0.76,0.19l-1.04,0c-0.62,0-0.8-0.32-0.53-0.96L480.85,788.86z"
			/>
	</g>
	<g>
		<path class="st0" d="M514.26,803.6c-1.16,0-2.28,0.21-3.36,0.62c-1.08,0.41-2.04,0.98-2.87,1.73c-0.84,0.74-1.53,1.63-2.06,2.67
			c-0.54,1.04-0.84,2.19-0.9,3.45l0.04,12.88c0,0.05,0,0.1-0.01,0.15c-0.01,0.05-0.01,0.09-0.01,0.13l0.02,7.05
			c0,0.54-0.26,0.81-0.78,0.81l-1.31,0c-0.56,0-0.83-0.27-0.83-0.81l-0.08-30.31c0-0.29,0.09-0.5,0.29-0.64
			c0.19-0.14,0.43-0.22,0.69-0.22l1.04,0c0.3,0,0.53,0.09,0.7,0.26c0.16,0.18,0.24,0.4,0.24,0.67l0.01,3.84
			c0.59-0.81,1.21-1.54,1.86-2.18c0.66-0.64,1.36-1.19,2.13-1.65c0.76-0.46,1.59-0.8,2.47-1.04c0.88-0.24,1.86-0.36,2.92-0.36
			c2.53-0.01,4.68,0.59,6.47,1.78c1.79,1.19,3.18,2.83,4.18,4.91c0.47-1.13,1.07-2.12,1.81-2.96c0.74-0.84,1.57-1.55,2.49-2.1
			s1.92-0.98,3-1.26c1.08-0.28,2.19-0.42,3.33-0.43c1.61,0,3.1,0.27,4.46,0.81c1.36,0.54,2.54,1.29,3.56,2.23
			c1.02,0.94,1.85,2.05,2.49,3.33c0.64,1.28,1.07,2.66,1.27,4.14c0.09,0.57,0.14,1.15,0.16,1.74c0.02,0.59,0.03,1.18,0.03,1.77
			l0.05,17.23c0,0.39-0.09,0.67-0.27,0.86c-0.18,0.19-0.43,0.28-0.73,0.28l-0.95,0c-0.38,0-0.64-0.08-0.76-0.25
			c-0.13-0.17-0.19-0.45-0.19-0.83l-0.05-18.97c-0.05-1.18-0.29-2.33-0.72-3.47c-0.42-1.14-1.02-2.14-1.8-3.01
			c-0.78-0.87-1.73-1.58-2.85-2.11c-1.12-0.54-2.4-0.8-3.83-0.8c-1.16,0-2.24,0.19-3.24,0.56c-1,0.37-1.89,0.89-2.67,1.55
			c-0.78,0.66-1.43,1.44-1.95,2.34c-0.52,0.9-0.86,1.88-1.03,2.95c-0.2,1.16-0.3,2.38-0.29,3.66l0.05,17.33
			c0,0.37-0.09,0.65-0.28,0.83c-0.18,0.19-0.43,0.28-0.73,0.28l-0.96,0c-0.39,0-0.65-0.08-0.78-0.25c-0.14-0.17-0.2-0.45-0.2-0.83
			l-0.05-17.35c0-0.54-0.01-1.09-0.04-1.66c-0.03-0.56-0.08-1.12-0.17-1.68c-0.15-1.04-0.48-2.03-0.97-2.95
			c-0.49-0.92-1.12-1.74-1.9-2.43c-0.78-0.7-1.68-1.25-2.71-1.66C516.62,803.8,515.49,803.6,514.26,803.6z"/>
	</g>
	<g>
		<path class="st0" d="M556.43,818.06c0.05,0.29,0.09,0.67,0.12,1.15c0.03,0.48,0.1,0.93,0.22,1.35c0.42,1.5,1.05,2.87,1.87,4.11
			c0.82,1.24,1.79,2.31,2.93,3.2c1.13,0.89,2.39,1.58,3.78,2.09c1.39,0.5,2.86,0.75,4.41,0.75c0.89,0,1.73-0.07,2.5-0.21
			c0.77-0.14,1.49-0.33,2.16-0.57c0.66-0.25,1.29-0.54,1.89-0.88c0.6-0.34,1.16-0.71,1.7-1.12c0.17-0.1,0.34-0.22,0.52-0.37
			c0.18-0.14,0.35-0.28,0.52-0.41c0.17-0.13,0.32-0.24,0.47-0.33c0.14-0.09,0.27-0.14,0.39-0.14c0.13,0,0.29,0.11,0.46,0.33
			c0.29,0.4,0.49,0.71,0.62,0.93c0.13,0.22,0.19,0.39,0.19,0.5c0,0.07-0.03,0.14-0.1,0.2c0.08,0.08,0.13,0.17,0.13,0.25
			c-0.18,0.24-0.41,0.48-0.68,0.73s-0.59,0.51-0.96,0.76c-1.36,0.96-2.83,1.73-4.41,2.29c-1.58,0.56-3.31,0.84-5.18,0.85
			c-2.27,0.01-4.42-0.42-6.43-1.28c-2.01-0.86-3.78-2.04-5.29-3.55c-1.51-1.5-2.71-3.25-3.6-5.26c-0.89-2-1.34-4.14-1.34-6.41
			c0-1.53,0.19-3.01,0.57-4.42c0.38-1.42,0.93-2.74,1.63-3.97c0.7-1.23,1.56-2.35,2.55-3.37c1-1.01,2.12-1.88,3.35-2.61
			c1.24-0.73,2.56-1.29,3.99-1.69c1.42-0.4,2.92-0.6,4.48-0.61c1.47,0,2.88,0.17,4.26,0.52c1.37,0.35,2.67,0.86,3.88,1.53
			c1.21,0.67,2.32,1.49,3.33,2.47c1.01,0.97,1.87,2.07,2.6,3.3c0.73,1.23,1.3,2.58,1.73,4.06c0.42,1.48,0.66,3.06,0.72,4.75v-0.03
			c0,0.02,0,0.04,0.01,0.06c0.01,0.03,0.01,0.06,0.01,0.09c0,0.57-0.27,0.86-0.8,0.86L556.43,818.06z M566.29,803.76
			c-1.28,0.34-2.47,0.87-3.58,1.6c-1.11,0.73-2.09,1.59-2.95,2.58c-0.86,1-1.57,2.1-2.15,3.31c-0.58,1.21-0.97,2.49-1.19,3.82
			l27.03-0.07c-0.21-1.68-0.71-3.24-1.52-4.68s-1.81-2.68-3.03-3.73c-1.22-1.05-2.59-1.87-4.14-2.46c-1.54-0.59-3.16-0.89-4.84-0.88
			c-0.57,0-1.13,0.03-1.67,0.09C567.72,803.4,567.07,803.54,566.29,803.76z"/>
	</g>
	<g>
		<path class="st0" d="M615.75,830.02c0.29,0,0.51,0.07,0.67,0.21c0.16,0.14,0.24,0.36,0.24,0.64l0,0.93c0,0.27-0.08,0.5-0.24,0.68
			c-0.16,0.19-0.38,0.28-0.67,0.28l-22.83,0.06c-0.25,0-0.46-0.08-0.62-0.25c-0.16-0.17-0.25-0.37-0.27-0.61v-0.15
			c0-0.25,0-0.53,0.01-0.82c0.01-0.29,0.06-0.51,0.16-0.64c0.91-1.22,1.91-2.54,3.02-3.97c1.11-1.43,2.27-2.93,3.49-4.49
			c1.22-1.56,2.46-3.15,3.73-4.77c1.27-1.62,2.51-3.22,3.74-4.78c1.23-1.57,2.4-3.09,3.52-4.56c1.12-1.47,2.16-2.83,3.1-4.07
			l-19.88,0.05c-0.61,0-0.91-0.33-0.91-0.98l0-0.91c0-0.64,0.3-0.96,0.91-0.96c3.76-0.01,7.49-0.02,11.22-0.03
			c3.72-0.01,7.47-0.03,11.24-0.06l0.13,0c0.39,0,0.66,0.09,0.81,0.26c0.15,0.18,0.23,0.49,0.23,0.95c0,0.08,0,0.16,0,0.23
			c0,0.07-0.01,0.14-0.02,0.23l0,0.56c0,0.2-0.04,0.39-0.12,0.57c-0.08,0.18-0.19,0.35-0.31,0.51c-0.13,0.16-0.26,0.32-0.4,0.48
			c-0.14,0.16-0.27,0.32-0.39,0.47l-19.31,25.01L615.75,830.02z"/>
	</g>
</g>
<g>
	<path class="st0" d="M618.28,497.04l0.04,218.08h-46.65c-3.64,0-7.12-1.68-9.63-4.66l-77.81-113.52v96.36
		c0,12.48-0.08,21.82-11.12,21.82h-40.92V477.08h46.89c3.68,0,7.19,1.72,9.71,4.75l78.17,117.43V477.08h41.49
		C619.47,477.08,618.28,486.02,618.28,497.04z"/>
</g>
<g>
	<path class="st0" d="M686.57,759.57c17.88,16.4,29.96,19.99,29.96,19.99c70.7,38.19,126.26-5.03,142.23-19.85
		c2.61-2.42,6.71-2.18,9.01,0.54l16.31,19.28c3.23,3.54,4.93,5.63,1.53,9.02c-23.66,23.56-113.05,98.2-228.5,1.76
		c-3.82-3.19-1.37-4.29,1.85-8.08l18.65-22.07C679.89,757.46,683.97,757.19,686.57,759.57z"/>
</g>
<g>
	<path class="st0" d="M363.23,477.08l-97.97,229.19c-2.34,5.47-7.43,8.84-13.37,8.85h-46.25l99.87-228.95
		c2.35-5.39,7.66-8.89,13.54-8.93C334.5,477.13,363.01,476.87,363.23,477.08z"/>
</g>
<g>
	<polygon class="st0" points="363.23,634.7 329.57,674.37 363.23,714.04 396.89,674.37 	"/>
</g>
<g>
	<path class="st0" d="M763.85,477.08c-14.04,0-28.01,2.35-41.18,7.22c-3.77,1.4-7.53,3.01-10.96,4.85
		c-36.89,21.39-61.47,61.65-60.45,107.59c1.45,65.17,54.86,117.82,120.04,118.37c67.38,0.57,122.18-53.88,122.18-121.12
		c0-22.82-6.32-44.17-17.3-62.39h2.89h15c8.44,0,15.28-6.84,15.28-15.28v-39.24H763.85z M772.63,658.68
		c-34.39,0-62.27-27.88-62.27-62.27s27.88-62.27,62.27-62.27c34.39,0,62.27,27.88,62.27,62.27S807.03,658.68,772.63,658.68z"/>
</g>
<g>
	<path class="st0" d="M271.22,873.62v-22.64h9.54c2.41,0,4.54,0.47,6.39,1.42c1.84,0.95,3.28,2.28,4.3,3.98
		c1.02,1.7,1.54,3.68,1.54,5.92s-0.51,4.22-1.54,5.92c-1.02,1.7-2.46,3.03-4.3,3.98c-1.84,0.95-3.97,1.42-6.39,1.42H271.22z
		 M274.45,870.81h6.11c1.88,0,3.5-0.36,4.87-1.07c1.37-0.71,2.43-1.71,3.19-2.99c0.75-1.28,1.13-2.77,1.13-4.45
		c0-1.7-0.38-3.19-1.13-4.46c-0.76-1.27-1.82-2.26-3.19-2.98c-1.37-0.71-2.99-1.07-4.87-1.07h-6.11V870.81z"/>
	<path class="st0" d="M299.03,853.19c-0.6,0-1.11-0.19-1.5-0.58c-0.4-0.39-0.6-0.86-0.6-1.42c0-0.58,0.2-1.07,0.6-1.46
		c0.4-0.39,0.9-0.58,1.5-0.58c0.6,0,1.1,0.19,1.5,0.57s0.6,0.85,0.6,1.41c0,0.58-0.19,1.07-0.58,1.47
		C300.17,852.99,299.66,853.19,299.03,853.19z M297.48,873.62v-17.14h3.1v17.14H297.48z"/>
	<path class="st0" d="M311.42,873.82c-1.42,0-2.78-0.19-4.06-0.58c-1.28-0.39-2.29-0.86-3.02-1.42l1.29-2.46
		c0.73,0.5,1.64,0.92,2.72,1.26c1.08,0.35,2.18,0.52,3.3,0.52c1.44,0,2.48-0.21,3.12-0.61c0.64-0.41,0.95-0.98,0.95-1.71
		c0-0.54-0.19-0.96-0.58-1.26s-0.9-0.53-1.54-0.68c-0.64-0.15-1.34-0.29-2.12-0.4c-0.78-0.12-1.55-0.27-2.33-0.45
		c-0.78-0.18-1.49-0.44-2.13-0.78c-0.65-0.33-1.16-0.8-1.55-1.39c-0.39-0.59-0.58-1.38-0.58-2.38c0-1.04,0.29-1.94,0.87-2.72
		s1.41-1.37,2.47-1.79c1.07-0.42,2.33-0.63,3.8-0.63c1.12,0,2.26,0.14,3.41,0.4c1.15,0.27,2.1,0.65,2.83,1.15l-1.33,2.46
		c-0.78-0.52-1.58-0.87-2.43-1.07s-1.68-0.29-2.52-0.29c-1.36,0-2.37,0.22-3.04,0.66c-0.67,0.44-1,1.01-1,1.7
		c0,0.58,0.2,1.03,0.6,1.34s0.92,0.56,1.55,0.73c0.64,0.17,1.34,0.32,2.12,0.44c0.78,0.12,1.55,0.27,2.33,0.45
		c0.78,0.18,1.48,0.44,2.12,0.76c0.64,0.32,1.15,0.78,1.55,1.36s0.6,1.36,0.6,2.33c0,1.04-0.3,1.93-0.91,2.68
		c-0.6,0.75-1.46,1.34-2.56,1.76C314.27,873.61,312.95,873.82,311.42,873.82z"/>
	<path class="st0" d="M330.34,873.82c-1.83,0-3.44-0.38-4.83-1.13c-1.39-0.75-2.47-1.79-3.23-3.11c-0.77-1.31-1.15-2.82-1.15-4.53
		s0.37-3.21,1.12-4.53s1.77-2.34,3.07-3.09c1.3-0.74,2.78-1.12,4.41-1.12c1.66,0,3.13,0.37,4.4,1.1c1.27,0.73,2.27,1.76,2.99,3.09
		c0.72,1.33,1.08,2.87,1.08,4.64c0,0.13-0.01,0.28-0.02,0.45c-0.01,0.17-0.03,0.33-0.05,0.49h-14.59v-2.23h12.97l-1.26,0.78
		c0.02-1.1-0.21-2.08-0.68-2.94c-0.47-0.86-1.13-1.54-1.96-2.02c-0.83-0.49-1.79-0.73-2.89-0.73c-1.08,0-2.04,0.24-2.88,0.73
		s-1.5,1.16-1.97,2.04c-0.47,0.87-0.71,1.87-0.71,2.99v0.52c0,1.14,0.26,2.16,0.79,3.06c0.53,0.9,1.27,1.59,2.22,2.09
		c0.95,0.5,2.04,0.74,3.27,0.74c1.01,0,1.94-0.17,2.77-0.52s1.56-0.86,2.18-1.55l1.71,2.01c-0.78,0.91-1.74,1.6-2.89,2.07
		C333.05,873.58,331.76,873.82,330.34,873.82z"/>
	<path class="st0" d="M351.65,856.32c1.4,0,2.64,0.27,3.7,0.81c1.07,0.54,1.9,1.36,2.51,2.46c0.6,1.1,0.91,2.49,0.91,4.17v9.86h-3.1
		v-9.51c0-1.66-0.4-2.91-1.21-3.75s-1.95-1.26-3.41-1.26c-1.1,0-2.06,0.22-2.88,0.65s-1.45,1.07-1.89,1.91
		c-0.44,0.84-0.66,1.89-0.66,3.14v8.83h-3.1v-17.14h2.98v4.62l-0.49-1.23c0.56-1.12,1.42-1.99,2.59-2.62
		C348.74,856.64,350.1,856.32,351.65,856.32z M352.91,853.9c-0.52,0-0.98-0.11-1.37-0.32c-0.4-0.21-0.76-0.47-1.08-0.76
		s-0.64-0.54-0.94-0.76c-0.3-0.22-0.6-0.32-0.91-0.32c-0.47,0-0.86,0.18-1.15,0.53s-0.46,0.85-0.5,1.47h-1.75
		c0.04-1.21,0.34-2.17,0.91-2.88c0.56-0.71,1.31-1.07,2.26-1.07c0.52,0,0.98,0.11,1.39,0.34c0.41,0.23,0.78,0.49,1.1,0.78
		s0.63,0.54,0.92,0.76c0.29,0.22,0.59,0.32,0.89,0.32c0.47,0,0.86-0.17,1.16-0.52c0.3-0.34,0.46-0.82,0.48-1.42h1.75
		c-0.02,1.14-0.32,2.07-0.89,2.78C354.62,853.54,353.86,853.9,352.91,853.9z"/>
	<path class="st0" d="M369.54,873.82c-1.27,0-2.39-0.22-3.35-0.65c-0.96-0.43-1.7-1.03-2.22-1.79c-0.52-0.76-0.78-1.63-0.78-2.6
		c0-0.93,0.22-1.77,0.66-2.52c0.44-0.75,1.16-1.36,2.17-1.81c1-0.45,2.36-0.68,4.06-0.68h5.43v2.23h-5.3c-1.55,0-2.6,0.26-3.14,0.78
		c-0.54,0.52-0.81,1.14-0.81,1.88c0,0.84,0.33,1.51,1,2.02c0.67,0.51,1.6,0.76,2.78,0.76c1.16,0,2.18-0.26,3.06-0.78
		c0.87-0.52,1.5-1.27,1.89-2.26l0.61,2.13c-0.41,1.01-1.13,1.82-2.17,2.41C372.41,873.52,371.11,873.82,369.54,873.82z
		 M375.16,873.62V870l-0.16-0.68v-6.18c0-1.31-0.38-2.33-1.15-3.06c-0.77-0.72-1.91-1.08-3.44-1.08c-1.01,0-2.01,0.17-2.98,0.5
		c-0.97,0.33-1.79,0.78-2.46,1.34l-1.29-2.33c0.88-0.71,1.95-1.26,3.19-1.63s2.54-0.57,3.9-0.57c2.35,0,4.16,0.57,5.43,1.71
		c1.27,1.14,1.91,2.89,1.91,5.24v10.35H375.16z"/>
	<path class="st0" d="M390.94,873.82c-1.66,0-3.14-0.37-4.45-1.1c-1.3-0.73-2.33-1.76-3.09-3.07c-0.75-1.32-1.13-2.85-1.13-4.59
		s0.38-3.27,1.13-4.58c0.75-1.3,1.78-2.32,3.09-3.06c1.3-0.73,2.79-1.1,4.45-1.1c1.44,0,2.75,0.32,3.91,0.97s2.1,1.62,2.8,2.91
		c0.7,1.29,1.05,2.91,1.05,4.85s-0.34,3.56-1.02,4.85c-0.68,1.29-1.6,2.27-2.77,2.93C393.76,873.49,392.43,873.82,390.94,873.82z
		 M391.2,871.1c1.08,0,2.05-0.25,2.93-0.74c0.87-0.5,1.56-1.2,2.07-2.12c0.51-0.92,0.76-1.98,0.76-3.19c0-1.23-0.25-2.29-0.76-3.19
		c-0.51-0.89-1.2-1.59-2.07-2.09c-0.87-0.5-1.85-0.74-2.93-0.74c-1.1,0-2.08,0.25-2.94,0.74s-1.55,1.19-2.07,2.09
		s-0.78,1.96-0.78,3.19c0,1.21,0.26,2.27,0.78,3.19c0.52,0.92,1.21,1.62,2.07,2.12C389.12,870.85,390.1,871.1,391.2,871.1z
		 M397.06,873.62V869l0.19-3.98l-0.32-3.98v-11.42h3.1v24H397.06z"/>
	<path class="st0" d="M413.26,873.82c-1.7,0-3.23-0.38-4.58-1.13c-1.35-0.75-2.41-1.79-3.19-3.12c-0.78-1.33-1.16-2.83-1.16-4.51
		c0-1.7,0.39-3.21,1.16-4.51c0.78-1.3,1.83-2.33,3.17-3.09c1.34-0.75,2.87-1.13,4.59-1.13c1.7,0,3.23,0.37,4.58,1.12
		c1.35,0.74,2.4,1.77,3.17,3.09c0.76,1.32,1.15,2.82,1.15,4.53s-0.38,3.21-1.15,4.53c-0.77,1.32-1.82,2.35-3.17,3.11
		C416.49,873.44,414.96,873.82,413.26,873.82z M413.26,871.1c1.1,0,2.09-0.25,2.96-0.74c0.87-0.5,1.56-1.2,2.05-2.12
		c0.5-0.92,0.74-1.98,0.74-3.19c0-1.23-0.25-2.29-0.74-3.19c-0.5-0.89-1.18-1.59-2.05-2.09s-1.86-0.74-2.96-0.74
		c-1.1,0-2.08,0.25-2.94,0.74s-1.55,1.19-2.07,2.09s-0.78,1.96-0.78,3.19c0,1.21,0.26,2.27,0.78,3.19c0.52,0.92,1.21,1.62,2.07,2.12
		C411.18,870.85,412.16,871.1,413.26,871.1z"/>
	<path class="st0" d="M426.45,873.62v-17.14h2.98v4.66l-0.29-1.16c0.47-1.19,1.27-2.09,2.39-2.72s2.5-0.94,4.14-0.94v3.01
		c-0.13-0.02-0.25-0.03-0.37-0.03s-0.23,0-0.34,0c-1.66,0-2.98,0.5-3.95,1.49c-0.97,0.99-1.46,2.42-1.46,4.3v8.54H426.45z"/>
	<path class="st0" d="M459.09,873.88c-1.75,0-3.35-0.29-4.82-0.86c-1.47-0.57-2.74-1.38-3.82-2.42s-1.92-2.27-2.52-3.67
		c-0.6-1.4-0.91-2.94-0.91-4.62s0.3-3.22,0.91-4.62c0.6-1.4,1.45-2.62,2.54-3.67c1.09-1.04,2.37-1.85,3.83-2.42
		c1.47-0.57,3.08-0.86,4.85-0.86c1.79,0,3.43,0.29,4.92,0.87c1.49,0.58,2.75,1.46,3.78,2.62l-2,2c-0.93-0.91-1.94-1.57-3.02-1.99
		c-1.09-0.42-2.27-0.63-3.54-0.63c-1.29,0-2.5,0.21-3.61,0.65c-1.11,0.43-2.07,1.04-2.88,1.81c-0.81,0.78-1.43,1.7-1.88,2.77
		s-0.66,2.23-0.66,3.48c0,1.23,0.22,2.38,0.66,3.44s1.07,1.99,1.88,2.78s1.76,1.4,2.86,1.83c1.1,0.43,2.3,0.65,3.59,0.65
		c1.21,0,2.37-0.19,3.48-0.57c1.11-0.38,2.14-1.01,3.09-1.89l1.84,2.46c-1.12,0.95-2.43,1.67-3.93,2.15S460.68,873.88,459.09,873.88
		z M464.55,870.58v-8.41h3.1v8.83L464.55,870.58z"/>
	<path class="st0" d="M473.38,873.62v-17.14h2.98v4.66l-0.29-1.16c0.47-1.19,1.27-2.09,2.39-2.72s2.5-0.94,4.14-0.94v3.01
		c-0.13-0.02-0.25-0.03-0.37-0.03s-0.23,0-0.34,0c-1.66,0-2.98,0.5-3.95,1.49c-0.97,0.99-1.46,2.42-1.46,4.3v8.54H473.38z"/>
	<path class="st0" d="M490.17,873.82c-1.27,0-2.39-0.22-3.35-0.65c-0.96-0.43-1.7-1.03-2.22-1.79c-0.52-0.76-0.78-1.63-0.78-2.6
		c0-0.93,0.22-1.77,0.66-2.52c0.44-0.75,1.16-1.36,2.17-1.81c1-0.45,2.36-0.68,4.06-0.68h5.43v2.23h-5.3c-1.55,0-2.6,0.26-3.14,0.78
		c-0.54,0.52-0.81,1.14-0.81,1.88c0,0.84,0.33,1.51,1,2.02c0.67,0.51,1.6,0.76,2.78,0.76c1.16,0,2.18-0.26,3.06-0.78
		c0.87-0.52,1.5-1.27,1.89-2.26l0.61,2.13c-0.41,1.01-1.13,1.82-2.17,2.41C493.04,873.52,491.74,873.82,490.17,873.82z
		 M495.79,873.62V870l-0.16-0.68v-6.18c0-1.31-0.38-2.33-1.15-3.06c-0.77-0.72-1.91-1.08-3.44-1.08c-1.01,0-2.01,0.17-2.98,0.5
		c-0.97,0.33-1.79,0.78-2.46,1.34l-1.29-2.33c0.88-0.71,1.95-1.26,3.19-1.63s2.54-0.57,3.9-0.57c2.35,0,4.16,0.57,5.43,1.71
		c1.27,1.14,1.91,2.89,1.91,5.24v10.35H495.79z M489.2,853.99l4.4-4.2h3.95l-5.43,4.2H489.2z"/>
	<path class="st0" d="M502.03,859.04v-2.55h10.93v2.55H502.03z M504.95,873.62v-18.66c0-1.68,0.49-3.02,1.47-4.03
		c0.98-1,2.38-1.5,4.19-1.5c0.67,0,1.31,0.08,1.92,0.24c0.61,0.16,1.14,0.42,1.57,0.76l-0.94,2.36c-0.32-0.26-0.69-0.46-1.1-0.6
		c-0.41-0.14-0.84-0.21-1.29-0.21c-0.91,0-1.6,0.25-2.07,0.76c-0.47,0.51-0.71,1.26-0.71,2.25v2.3l0.06,1.42v14.91H504.95z
		 M517.46,853.19c-0.6,0-1.1-0.19-1.5-0.58c-0.4-0.39-0.6-0.86-0.6-1.42c0-0.58,0.2-1.07,0.6-1.46c0.4-0.39,0.9-0.58,1.5-0.58
		s1.1,0.19,1.5,0.57s0.6,0.85,0.6,1.41c0,0.58-0.19,1.07-0.58,1.47C518.59,852.99,518.09,853.19,517.46,853.19z M515.91,873.62
		v-17.14h3.1v17.14H515.91z"/>
	<path class="st0" d="M532.4,873.82c-1.75,0-3.3-0.38-4.67-1.13c-1.37-0.75-2.44-1.79-3.22-3.11c-0.78-1.31-1.16-2.82-1.16-4.53
		s0.39-3.21,1.16-4.53c0.78-1.32,1.85-2.34,3.22-3.09c1.37-0.74,2.93-1.12,4.67-1.12c1.55,0,2.94,0.31,4.16,0.92
		c1.22,0.61,2.16,1.53,2.83,2.73l-2.36,1.52c-0.56-0.84-1.25-1.46-2.05-1.86c-0.81-0.4-1.68-0.6-2.6-0.6
		c-1.12,0-2.12,0.25-3.01,0.74c-0.88,0.5-1.58,1.19-2.1,2.09s-0.78,1.96-0.78,3.19s0.26,2.3,0.78,3.2c0.52,0.91,1.22,1.61,2.1,2.1
		c0.88,0.5,1.89,0.74,3.01,0.74c0.93,0,1.79-0.2,2.6-0.6c0.81-0.4,1.49-1.02,2.05-1.86l2.36,1.49c-0.67,1.19-1.61,2.1-2.83,2.73
		C535.34,873.5,533.95,873.82,532.4,873.82z"/>
	<path class="st0" d="M550.48,873.82c-1.7,0-3.23-0.38-4.58-1.13s-2.41-1.79-3.19-3.12s-1.16-2.83-1.16-4.51
		c0-1.7,0.39-3.21,1.16-4.51c0.78-1.3,1.83-2.33,3.17-3.09c1.34-0.75,2.87-1.13,4.59-1.13c1.7,0,3.23,0.37,4.58,1.12
		s2.4,1.77,3.17,3.09c0.76,1.32,1.15,2.82,1.15,4.53s-0.38,3.21-1.15,4.53c-0.77,1.32-1.82,2.35-3.17,3.11
		S552.18,873.82,550.48,873.82z M550.48,871.1c1.1,0,2.09-0.25,2.96-0.74c0.87-0.5,1.56-1.2,2.05-2.12c0.5-0.92,0.74-1.98,0.74-3.19
		c0-1.23-0.25-2.29-0.74-3.19s-1.18-1.59-2.05-2.09c-0.87-0.5-1.86-0.74-2.96-0.74s-2.08,0.25-2.94,0.74
		c-0.86,0.5-1.55,1.19-2.07,2.09s-0.78,1.96-0.78,3.19c0,1.21,0.26,2.27,0.78,3.19c0.52,0.92,1.21,1.62,2.07,2.12
		C548.4,870.85,549.38,871.1,550.48,871.1z"/>
</g>
<g>
</g>
<g>
</g>
<g>
</g>
<g>
</g>
<g>
</g>
<g>
</g>
<g>
</g>
<g>
</g>
<g>
</g>
<g>
</g>
<g>
</g>
<g>
</g>
<g>
</g>
<g>
</g>
<g>
</g>
</svg>
