<?xml version="1.0" encoding="utf-8"?>
<!-- Generator: Adobe Illustrator 25.4.1, SVG Export Plug-In . SVG Version: 6.00 Build 0)  -->
<svg version="1.1" id="Capa_1" xmlns="http://www.w3.org/2000/svg" xmlns:xlink="http://www.w3.org/1999/xlink" x="0px" y="0px"
	 viewBox="0 0 1080 1440" style="enable-background:new 0 0 1080 1440;" xml:space="preserve">
<style type="text/css">
	.st0{clip-path:url(#SVGID_00000090265724435327105360000011857838591607064968_);}
	.st1{clip-path:url(#SVGID_00000047026627174666609120000000225976934246728589_);fill:#676C80;}
	.st2{clip-path:url(#SVGID_00000047026627174666609120000000225976934246728589_);fill:#2E344C;}
	.st3{clip-path:url(#SVGID_00000047026627174666609120000000225976934246728589_);fill:#333A54;}
	.st4{clip-path:url(#SVGID_00000047026627174666609120000000225976934246728589_);fill:#243A7D;}
	.st5{clip-path:url(#SVGID_00000047026627174666609120000000225976934246728589_);fill:#3C5BA7;}
</style>
<g>
	<g>
		<defs>
			<rect id="SVGID_1_" x="102.7" y="282.7" width="874.5" height="874.5"/>
		</defs>
		<clipPath id="SVGID_00000173857599154282523390000012497825890391535260_">
			<use xlink:href="#SVGID_1_"  style="overflow:visible;"/>
		</clipPath>
		<g style="clip-path:url(#SVGID_00000173857599154282523390000012497825890391535260_);">
			<defs>
				<rect id="SVGID_00000032636905999014426840000017312254515287736983_" x="102.7" y="282.7" width="874.5" height="874.5"/>
			</defs>
			<clipPath id="SVGID_00000178918925316049416340000006659205865064754341_">
				<use xlink:href="#SVGID_00000032636905999014426840000017312254515287736983_"  style="overflow:visible;"/>
			</clipPath>
			<path style="clip-path:url(#SVGID_00000178918925316049416340000006659205865064754341_);fill:#676C80;" d="M151.2,920.3
				c-2.4,0-4.3,0.5-5.8,1.5s-2.3,2.6-2.3,4.7c0,2.1,0.8,3.7,2.3,4.8s4.8,2.3,9.7,3.6c5,1.3,8.7,3.1,11.2,5.4
				c2.5,2.3,3.8,5.7,3.8,10.2c0,4.5-1.6,8.1-4.8,10.9c-3.2,2.8-7.4,4.2-12.5,4.2c-7.6,0-14.3-2.8-20.1-8.3l5.1-6.5
				c4.9,4.5,10,6.8,15.2,6.8c2.6,0,4.7-0.6,6.3-1.8c1.5-1.2,2.3-2.8,2.3-4.8c0-2-0.7-3.5-2.2-4.6s-4-2.1-7.5-3
				c-3.6-0.9-6.2-1.7-8.1-2.5c-1.8-0.8-3.5-1.7-4.9-3c-2.9-2.3-4.3-5.8-4.3-10.6c0-4.7,1.6-8.4,4.9-11c3.3-2.6,7.3-3.9,12.1-3.9
				c3.1,0,6.2,0.5,9.2,1.6c3,1.1,5.7,2.6,7.9,4.6l-4.4,6.5c-1.4-1.4-3.4-2.5-5.8-3.4C156,920.7,153.6,920.3,151.2,920.3"/>
			<path style="clip-path:url(#SVGID_00000178918925316049416340000006659205865064754341_);fill:#676C80;" d="M216.8,959.6
				c-3.7,3.9-8.3,5.8-13.8,5.8s-10.1-1.9-13.8-5.8c-3.7-3.9-5.5-8.6-5.5-14.3c0-5.6,1.8-10.4,5.5-14.3c3.7-3.9,8.3-5.8,13.8-5.8
				s10.1,1.9,13.8,5.8c3.7,3.9,5.5,8.6,5.5,14.3C222.3,950.9,220.5,955.7,216.8,959.6 M194.6,954.5c2.2,2.4,5,3.6,8.3,3.6
				c3.4,0,6.1-1.2,8.3-3.6c2.2-2.4,3.3-5.4,3.3-9.2c0-3.8-1.1-6.8-3.3-9.2c-2.2-2.4-5-3.6-8.3-3.6c-3.4,0-6.1,1.2-8.3,3.6
				c-2.2,2.4-3.3,5.4-3.3,9.2C191.3,949.1,192.4,952.1,194.6,954.5"/>
			<path style="clip-path:url(#SVGID_00000178918925316049416340000006659205865064754341_);fill:#676C80;" d="M247,922.6v3.2h9.7
				v6.6H247v32.4h-7.7v-32.4h-4.6v-6.6h4.6v-3c0-4.1,1.2-7.4,3.5-9.8c2.3-2.4,5.1-3.6,8.4-3.6c3.3,0,6.3,1.3,9,3.9L257,919
				c-1.5-1.7-3.1-2.6-4.8-2.6c-1.7,0-3,0.6-3.9,1.7C247.5,919.2,247,920.7,247,922.6"/>
			<path style="clip-path:url(#SVGID_00000178918925316049416340000006659205865064754341_);fill:#676C80;" d="M280.6,932.4v19.8
				c0,1.9,0.5,3.3,1.4,4.4c0.9,1.1,2.2,1.7,3.9,1.7s3.3-0.9,4.8-2.6l3.2,5.8c-2.7,2.6-5.7,3.9-9,3.9c-3.3,0-6.1-1.2-8.4-3.6
				c-2.3-2.4-3.5-5.7-3.5-9.8v-19.6h-4.6v-6.6h4.6v-12.3h7.7v12.3h9.7v6.6H280.6z"/>
			<polygon style="clip-path:url(#SVGID_00000178918925316049416340000006659205865064754341_);fill:#676C80;" points="324.1,964.8 
				315.3,964.8 302.5,925.8 310.6,925.8 319.7,955.3 328.8,925.8 336.9,925.8 346,955.3 355.1,925.8 363.1,925.8 350.4,964.8 
				341.6,964.8 332.8,938.1 			"/>
			<path style="clip-path:url(#SVGID_00000178918925316049416340000006659205865064754341_);fill:#676C80;" d="M406.4,964.8h-7.1
				v-5.2c-3,3.9-7.1,5.8-12.2,5.8c-3.8,0-7-1.1-9.5-3.4c-2.5-2.3-3.8-5.4-3.8-9.2c0-3.8,1.3-6.7,4-8.6c2.7-1.9,6.3-2.9,10.9-2.9h10
				v-1.5c0-5.2-2.7-7.8-8.2-7.8c-3.4,0-7,1.3-10.7,4l-3.5-5.1c4.5-3.8,9.5-5.7,15.2-5.7c4.3,0,7.9,1.2,10.6,3.5
				c2.7,2.3,4.1,6,4.1,11V964.8z M398.6,950.3V947h-8.7c-5.6,0-8.4,1.9-8.4,5.6c0,1.9,0.7,3.4,2.1,4.4c1.4,1,3.3,1.5,5.8,1.5
				c2.5,0,4.6-0.7,6.5-2.2C397.7,954.8,398.6,952.8,398.6,950.3"/>
			<path style="clip-path:url(#SVGID_00000178918925316049416340000006659205865064754341_);fill:#676C80;" d="M443.4,933.5
				c-3.8,0-6.7,1.3-8.6,4c-1.9,2.6-2.9,6.2-2.9,10.6v16.7h-7.7v-39h7.7v7.9c1.2-2.4,2.9-4.5,5.1-6c2.1-1.6,4.4-2.4,6.8-2.4l0.1,8.3
				H443.4z"/>
			<path style="clip-path:url(#SVGID_00000178918925316049416340000006659205865064754341_);fill:#676C80;" d="M492.7,948.9h-28.8
				c0.2,2.8,1.4,5.1,3.7,6.9c2.3,1.7,4.8,2.6,7.7,2.6c4.6,0,8.1-1.5,10.5-4.6l4.4,5.1c-4,4.4-9.1,6.5-15.5,6.5
				c-5.2,0-9.6-1.8-13.2-5.5c-3.6-3.6-5.4-8.5-5.4-14.7c0-6.1,1.8-11,5.5-14.6c3.7-3.6,8-5.4,13-5.4c5,0,9.3,1.6,12.8,4.8
				c3.5,3.2,5.3,7.6,5.3,13.2V948.9z M463.8,942.4h21.1c0-3.3-1-5.8-2.9-7.6s-4.3-2.6-7.2-2.6s-5.4,0.9-7.6,2.8
				C465,936.8,463.8,939.3,463.8,942.4"/>
			<path style="clip-path:url(#SVGID_00000178918925316049416340000006659205865064754341_);fill:#676C80;" d="M571.7,920.2
				c4.7,4.5,7,10.7,7,18.7c0,8-2.3,14.3-6.8,18.9c-4.5,4.6-11.4,7-20.7,7h-16v-51.3h16.6C560.4,913.5,567,915.8,571.7,920.2
				 M570.4,939.1c0-11.7-6.3-17.6-19-17.6h-8.2v35.2h9.1c5.9,0,10.3-1.5,13.5-4.4C568.9,949.3,570.4,944.9,570.4,939.1"/>
			<path style="clip-path:url(#SVGID_00000178918925316049416340000006659205865064754341_);fill:#676C80;" d="M629.2,948.9h-28.8
				c0.2,2.8,1.4,5.1,3.7,6.9c2.3,1.7,4.8,2.6,7.7,2.6c4.6,0,8.1-1.5,10.5-4.6l4.4,5.1c-4,4.4-9.1,6.5-15.5,6.5
				c-5.2,0-9.6-1.8-13.2-5.5c-3.6-3.6-5.4-8.5-5.4-14.7c0-6.1,1.8-11,5.5-14.6c3.7-3.6,8-5.4,13-5.4c5,0,9.3,1.6,12.8,4.8
				c3.5,3.2,5.3,7.6,5.3,13.2V948.9z M600.4,942.4h21.1c0-3.3-1-5.8-2.9-7.6c-1.9-1.8-4.3-2.6-7.2-2.6c-2.8,0-5.4,0.9-7.6,2.8
				C601.5,936.8,600.4,939.3,600.4,942.4"/>
			<polygon style="clip-path:url(#SVGID_00000178918925316049416340000006659205865064754341_);fill:#676C80;" points="654,964.8 
				639.2,925.8 647.2,925.8 658.4,955.3 669.6,925.8 677.6,925.8 662.8,964.8 			"/>
			<path style="clip-path:url(#SVGID_00000178918925316049416340000006659205865064754341_);fill:#676C80;" d="M725,948.9h-28.8
				c0.2,2.8,1.4,5.1,3.7,6.9c2.3,1.7,4.8,2.6,7.7,2.6c4.6,0,8.1-1.5,10.5-4.6l4.4,5.1c-4,4.4-9.1,6.5-15.5,6.5
				c-5.2,0-9.6-1.8-13.2-5.5c-3.6-3.6-5.4-8.5-5.4-14.7c0-6.1,1.8-11,5.5-14.6c3.7-3.6,8-5.4,13-5.4c5,0,9.3,1.6,12.8,4.8
				c3.5,3.2,5.3,7.6,5.3,13.2V948.9z M696.1,942.4h21.1c0-3.3-1-5.8-2.9-7.6c-1.9-1.8-4.3-2.6-7.2-2.6c-2.8,0-5.4,0.9-7.6,2.8
				C697.2,936.8,696.1,939.3,696.1,942.4"/>
			
				<rect x="740.4" y="910.4" style="clip-path:url(#SVGID_00000178918925316049416340000006659205865064754341_);fill:#676C80;" width="7.7" height="54.5"/>
			<path style="clip-path:url(#SVGID_00000178918925316049416340000006659205865064754341_);fill:#676C80;" d="M797,959.6
				c-3.7,3.9-8.3,5.8-13.8,5.8c-5.5,0-10.1-1.9-13.8-5.8c-3.7-3.9-5.5-8.6-5.5-14.3c0-5.6,1.8-10.4,5.5-14.3
				c3.7-3.9,8.3-5.8,13.8-5.8c5.5,0,10.1,1.9,13.8,5.8c3.7,3.9,5.5,8.6,5.5,14.3C802.6,950.9,800.7,955.7,797,959.6 M774.9,954.5
				c2.2,2.4,5,3.6,8.3,3.6c3.4,0,6.1-1.2,8.3-3.6c2.2-2.4,3.3-5.4,3.3-9.2c0-3.8-1.1-6.8-3.3-9.2c-2.2-2.4-5-3.6-8.3-3.6
				c-3.4,0-6.1,1.2-8.3,3.6c-2.2,2.4-3.3,5.4-3.3,9.2C771.6,949.1,772.7,952.1,774.9,954.5"/>
			<path style="clip-path:url(#SVGID_00000178918925316049416340000006659205865064754341_);fill:#676C80;" d="M838,925.2
				c4.9,0,9.2,1.8,12.7,5.4c3.5,3.6,5.3,8.4,5.3,14.5c0,6-1.7,10.9-5.2,14.7c-3.5,3.8-7.5,5.7-12.2,5.7c-4.6,0-8.8-2.2-12.5-6.5
				v20.1h-7.7v-53.3h7.7v6.8C829.1,927.7,833,925.2,838,925.2 M825.9,945.4c0,3.7,1.1,6.8,3.2,9.1c2.1,2.4,4.7,3.6,7.7,3.6
				c3,0,5.7-1.2,8-3.5c2.3-2.3,3.4-5.4,3.4-9.1c0-3.7-1.1-6.8-3.3-9.3c-2.2-2.5-4.9-3.7-8-3.7c-3.1,0-5.7,1.2-7.8,3.7
				C826.9,938.6,825.9,941.7,825.9,945.4"/>
			<path style="clip-path:url(#SVGID_00000178918925316049416340000006659205865064754341_);fill:#676C80;" d="M905.9,948.9h-28.8
				c0.2,2.8,1.4,5.1,3.7,6.9c2.3,1.7,4.8,2.6,7.7,2.6c4.6,0,8.1-1.5,10.5-4.6l4.4,5.1c-4,4.4-9.1,6.5-15.5,6.5
				c-5.2,0-9.6-1.8-13.2-5.5c-3.6-3.6-5.4-8.5-5.4-14.7c0-6.1,1.8-11,5.5-14.6c3.7-3.6,8-5.4,13-5.4c5,0,9.3,1.6,12.8,4.8
				c3.5,3.2,5.3,7.6,5.3,13.2V948.9z M877.1,942.4h21.1c0-3.3-1-5.8-2.9-7.6c-1.9-1.8-4.3-2.6-7.2-2.6c-2.8,0-5.4,0.9-7.6,2.8
				C878.2,936.8,877.1,939.3,877.1,942.4"/>
			<path style="clip-path:url(#SVGID_00000178918925316049416340000006659205865064754341_);fill:#676C80;" d="M940.6,933.5
				c-3.8,0-6.7,1.3-8.6,4c-1.9,2.6-2.9,6.2-2.9,10.6v16.7h-7.7v-39h7.7v7.9c1.2-2.4,2.9-4.5,5.1-6c2.1-1.6,4.4-2.4,6.8-2.4l0.1,8.3
				H940.6z"/>
			<path style="clip-path:url(#SVGID_00000178918925316049416340000006659205865064754341_);fill:#2E344C;" d="M242.7,880.7
				c-6.7,0-12.8-1.3-18.5-4c-5.7-2.7-10.4-6.5-14-11.7l11.2-13.5c2.9,4.1,6.1,7.2,9.6,9.2c3.5,2,7.3,3.1,11.6,3.1
				c10.9,0,16.3-6.6,16.3-19.8v-55.4h-37.7v-16.9h57.2v71.2c0,12.7-3,22.2-9.1,28.4C263.3,877.5,254.4,880.7,242.7,880.7"/>
			<path style="clip-path:url(#SVGID_00000178918925316049416340000006659205865064754341_);fill:#2E344C;" d="M354.7,880.7
				c-8.2,0-15.8-1.4-22.8-4.1c-7-2.8-13.1-6.7-18.2-11.7c-5.1-5-9.1-10.9-12-17.6c-2.8-6.7-4.2-14-4.2-21.9c0-8,1.4-15.3,4.2-22
				c2.8-6.7,6.8-12.5,12-17.5c5.1-5,11.2-8.8,18.2-11.6c7-2.8,14.6-4.1,22.8-4.1c8.2,0,15.7,1.4,22.7,4.1c7,2.7,13,6.6,18.1,11.5
				c5.1,5,9.1,10.8,11.9,17.6c2.8,6.8,4.2,14.1,4.2,22.1s-1.4,15.3-4.2,22c-2.8,6.7-6.8,12.6-11.9,17.6c-5.1,5-11.1,8.9-18.1,11.6
				C370.4,879.3,362.8,880.7,354.7,880.7 M354.7,863.2c5.3,0,10.3-0.9,14.8-2.8c4.5-1.8,8.4-4.5,11.7-7.8c3.3-3.4,5.9-7.4,7.8-12
				c1.9-4.6,2.8-9.7,2.8-15.2c0-5.5-0.9-10.6-2.7-15.2c-1.8-4.6-4.4-8.6-7.8-12c-3.4-3.4-7.3-6-11.8-7.8c-4.5-1.8-9.4-2.8-14.8-2.8
				c-5.3,0-10.3,0.9-14.9,2.8c-4.6,1.8-8.5,4.5-11.9,7.9c-3.3,3.4-6,7.4-7.9,12c-1.9,4.6-2.9,9.6-2.9,15.1c0,5.4,1,10.4,2.9,15
				c1.9,4.6,4.5,8.6,7.9,12.1c3.3,3.4,7.3,6.1,11.9,7.9C344.4,862.2,349.3,863.2,354.7,863.2"/>
			<path style="clip-path:url(#SVGID_00000178918925316049416340000006659205865064754341_);fill:#2E344C;" d="M464.2,880.7
				c-8.3,0-16.2-1.2-23.7-3.6c-7.5-2.4-13.5-5.5-18.1-9.3l6.8-15.5c4.2,3.4,9.5,6.2,15.7,8.4c6.3,2.3,12.7,3.4,19.2,3.4
				c5.5,0,10-0.6,13.5-1.8c3.4-1.2,6-2.9,7.6-5c1.6-2.1,2.4-4.5,2.4-7.1c0-3.3-1.2-5.9-3.5-7.9c-2.3-2-5.3-3.6-9-4.8
				c-3.7-1.2-7.8-2.2-12.3-3.2c-4.5-1-9-2.2-13.5-3.6c-4.5-1.4-8.6-3.2-12.3-5.5c-3.7-2.2-6.7-5.1-9-8.8c-2.3-3.7-3.4-8.4-3.4-14.1
				c0-5.8,1.5-11.2,4.6-16c3.1-4.9,7.8-8.8,14.1-11.7c6.3-2.9,14.3-4.4,24-4.4c6.4,0,12.7,0.8,18.9,2.5c6.3,1.6,11.7,4,16.3,7.1
				l-6.2,15.5c-4.7-2.9-9.6-5-14.7-6.4c-5-1.4-9.9-2.1-14.5-2.1c-5.3,0-9.7,0.7-13.2,2c-3.4,1.3-5.9,3.1-7.5,5.3
				c-1.6,2.2-2.3,4.6-2.3,7.3c0,3.3,1.1,5.9,3.4,7.9c2.3,2,5.2,3.6,8.9,4.7c3.7,1.1,7.8,2.2,12.3,3.2c4.5,1,9,2.2,13.5,3.6
				c4.4,1.4,8.5,3.2,12.3,5.4c3.7,2.2,6.7,5.1,9,8.8c2.3,3.6,3.4,8.3,3.4,13.9c0,5.7-1.5,11-4.6,15.9c-3.1,4.9-7.8,8.8-14.1,11.7
				C481.9,879.2,473.9,880.7,464.2,880.7"/>
			<path style="clip-path:url(#SVGID_00000178918925316049416340000006659205865064754341_);fill:#2E344C;" d="M545.2,862.2h59.8
				v16.9h-79.4V771.6h77.3v16.9h-57.6V862.2z M543.7,816.3h52.7v16.4h-52.7V816.3z"/>
			<path style="clip-path:url(#SVGID_00000178918925316049416340000006659205865064754341_);fill:#2E344C;" d="M666.5,879.1V771.6
				h43.6c9.4,0,17.4,1.5,24.1,4.5c6.7,3,11.9,7.4,15.5,13.1c3.6,5.7,5.4,12.6,5.4,20.6c0,7.9-1.8,14.6-5.4,20.3
				c-3.6,5.6-8.8,10-15.5,13c-6.7,3.1-14.8,4.6-24.1,4.6h-32.5l8.6-8.9v40.2H666.5z M686.2,841l-8.6-9.7h31.6
				c8.7,0,15.2-1.9,19.6-5.7c4.4-3.8,6.6-9.1,6.6-15.8c0-6.8-2.2-12-6.6-15.7c-4.4-3.7-10.9-5.6-19.6-5.6h-31.6l8.6-9.8V841z
				 M735.8,879.1l-26.8-39h21l26.9,39H735.8z"/>
			<path style="clip-path:url(#SVGID_00000178918925316049416340000006659205865064754341_);fill:#2E344C;" d="M780.4,880.2
				c-3.5,0-6.5-1.2-8.9-3.6c-2.4-2.4-3.6-5.5-3.6-9.3c0-3.8,1.2-6.8,3.6-9.1c2.4-2.3,5.4-3.5,8.9-3.5c3.3,0,6.2,1.2,8.6,3.5
				c2.4,2.3,3.6,5.3,3.6,9.1c0,3.8-1.2,6.9-3.6,9.3C786.6,879,783.8,880.2,780.4,880.2"/>
			<path style="clip-path:url(#SVGID_00000178918925316049416340000006659205865064754341_);fill:#333A54;" d="M157.3,859.1
				c-2.6,0-5.3-0.6-7.7-1.7l-46.9-21.9V822l46.9-21.9c2.4-1.1,5.1-1.7,7.7-1.7v17c-0.2,0-0.4,0-0.5,0.1l-28.3,13.2l28.3,13.2
				c0.2,0.1,0.3,0.1,0.5,0.1V859.1z"/>
			<path style="clip-path:url(#SVGID_00000178918925316049416340000006659205865064754341_);fill:#333A54;" d="M922.7,858.9v-17
				c0.2,0,0.4,0,0.5-0.1l28.3-13.2l-28.3-13.2c-0.2-0.1-0.3-0.1-0.5-0.1v-17c2.6,0,5.3,0.6,7.7,1.7l46.9,21.9v13.5l-46.9,21.9
				C928,858.3,925.3,858.9,922.7,858.9"/>
			<polygon style="clip-path:url(#SVGID_00000178918925316049416340000006659205865064754341_);fill:#333A54;" points="867.6,879.1 
				850.5,879.1 901.1,771.7 918.1,771.7 			"/>
			<path style="clip-path:url(#SVGID_00000178918925316049416340000006659205865064754341_);fill:#2E344C;" d="M384,576
				c3.1,0,6-1.2,8.2-3.4c2-2,3.1-4.6,3.1-7.4v-82.9c0-3,0.5-5.9,1.5-8.5c2.6-7.3,8.3-13,15.6-15.6c2.7-0.9,5.5-1.5,8.5-1.5h25.5
				v25.5h-14.3c-3,0-5.9,1.1-8,3.2c0,0,0,0-0.1,0.1c-2.1,2.1-3.2,5-3.2,8v73.9c0,3-0.5,5.9-1.5,8.5c-1.9,5.3-5.4,9.7-10,12.8
				c4.6,3,8.1,7.5,10,12.8c1,2.7,1.5,5.5,1.5,8.5v73.9c0,3,1.1,5.9,3.2,8c0,0,0,0,0.1,0.1c2.1,2.1,5,3.2,8,3.2h14.3v25.5h-25.5
				c-3,0-5.9-0.5-8.5-1.5c-7.3-2.6-13-8.3-15.6-15.6c-1-2.7-1.5-5.5-1.5-8.5v-82.9c0-2.8-1.1-5.4-3.1-7.4c-2.2-2.2-5.1-3.4-8.2-3.4
				h-14.3V593v-8.5V576H384z"/>
			<path style="clip-path:url(#SVGID_00000178918925316049416340000006659205865064754341_);fill:#2E344C;" d="M696,576
				c-3.1,0-6-1.2-8.2-3.4c-2-2-3.1-4.6-3.1-7.4v-82.9c0-3-0.5-5.9-1.5-8.5c-2.6-7.3-8.3-13-15.6-15.6c-2.7-0.9-5.5-1.5-8.5-1.5
				h-25.5v25.5h14.3c3,0,5.9,1.1,8,3.2c0,0,0,0,0.1,0.1c2.1,2.1,3.2,5,3.2,8v73.9c0,3,0.5,5.9,1.5,8.5c1.9,5.3,5.4,9.7,10,12.8
				c-4.6,3-8.1,7.5-10,12.8c-1,2.7-1.5,5.5-1.5,8.5v73.9c0,3-1.1,5.9-3.2,8c0,0,0,0-0.1,0.1c-2.1,2.1-5,3.2-8,3.2h-14.3v25.5h25.5
				c3,0,5.9-0.5,8.5-1.5c7.3-2.6,13-8.3,15.6-15.6c1-2.7,1.5-5.5,1.5-8.5v-82.9c0-2.8,1.1-5.4,3.1-7.4c2.2-2.2,5.1-3.4,8.2-3.4h14.3
				V593v-8.5V576H696z"/>
			<path style="clip-path:url(#SVGID_00000178918925316049416340000006659205865064754341_);fill:#243A7D;" d="M517,524.9h-25.5
				c-4.7,0-8.5,3.8-8.5,8.5V559v25.5c0,4.7,3.8,8.5,8.5,8.5H517h25.5c4.7,0,8.5-3.8,8.5-8.5V559v-25.5c0-4.7-3.8-8.5-8.5-8.5H517z"
				/>
			<path style="clip-path:url(#SVGID_00000178918925316049416340000006659205865064754341_);fill:#3C5BA7;" d="M580,618.6h-12.8
				c-2.4,0-4.3,1.9-4.3,4.3v12.8v12.8c0,2.4,1.9,4.3,4.3,4.3H580h12.8c2.4,0,4.3-1.9,4.3-4.3v-12.8v-12.8c0-2.4-1.9-4.3-4.3-4.3H580
				z"/>
		</g>
	</g>
</g>
</svg>
